<svg width="285" height="128" viewBox="0 0 285 128" fill="none" xmlns="http://www.w3.org/2000/svg">
<path d="M2.10798 127.871C1.40509 127.871 0.760557 127.399 0.57278 126.686C0.471278 126.296 -1.8658 117.041 3.69647 109.832C7.56875 104.813 14.1993 102.143 23.4207 101.882C23.9206 93.9927 28.1634 59.0306 63.8487 57.8532C63.4351 54.4631 63.2702 47.2641 67.9215 41.3694C72.4002 35.6929 80.0737 32.8154 90.7288 32.8154C111.605 32.8154 137.262 27.3597 140.926 1.36519C141.038 0.581096 141.708 0 142.5 0C143.294 0 143.964 0.581096 144.075 1.36519C147.734 27.3597 173.391 32.8154 194.27 32.8154C204.925 32.8154 212.599 35.6929 217.08 41.3694C221.729 47.2641 221.564 54.4631 221.15 57.8532C256.836 59.0306 261.076 93.9927 261.576 101.882C270.797 102.143 277.43 104.815 281.303 109.835C286.867 117.044 284.528 126.296 284.426 126.686C284.206 127.531 283.345 128.041 282.49 127.818C281.643 127.6 281.133 126.732 281.351 125.882C281.371 125.801 283.388 117.709 278.77 111.753C275.317 107.297 269.021 105.039 260.053 105.039C259.178 105.039 258.465 104.326 258.465 103.45C258.462 101.717 257.965 60.9997 219.283 60.9997C218.796 60.9997 218.339 60.7764 218.037 60.3958C217.737 60.0152 217.626 59.5153 217.737 59.0433C217.758 58.9545 219.803 49.926 214.568 43.3157C210.721 38.4563 203.89 35.9949 194.27 35.9949C165.982 35.9949 148.255 26.6086 142.5 8.74687C136.742 26.6086 119.012 35.9949 90.7288 35.9949C81.109 35.9949 74.2805 38.4563 70.4311 43.3157C65.1961 49.926 67.2414 58.9545 67.2642 59.0433C67.3733 59.5153 67.2642 60.0152 66.9623 60.3958C66.6603 60.7764 66.2035 60.9997 65.7163 60.9997C27.0316 60.9997 26.5343 101.717 26.5318 103.45C26.5318 104.326 25.8187 105.039 24.9433 105.039C15.9655 105.039 9.66222 107.305 6.21118 111.773C1.59287 117.762 3.62542 125.801 3.64826 125.879C3.86903 126.729 3.36153 127.597 2.51399 127.821C2.37866 127.854 2.24332 127.871 2.10798 127.871Z" fill="#8B1E3F"/>
</svg>
