<svg width="224" height="314" viewBox="0 0 224 314" fill="none" xmlns="http://www.w3.org/2000/svg">
<path style="mix-blend-mode:multiply" d="M205.62 205.18C205.62 205.18 209.613 220.425 190.377 220.425C190.377 220.425 190.377 249.82 163.158 249.82C163.158 249.82 167.148 266.515 146.461 266.515C127.06 266.515 114.042 273.219 111.901 288.42C109.757 273.219 96.7394 266.515 77.3388 266.515C56.6518 266.515 60.6418 249.82 60.6418 249.82C33.4213 249.82 33.4213 220.425 33.4213 220.425C14.1862 220.425 18.1799 205.18 18.1799 205.18V107.959C18.1799 107.959 14.1862 92.7168 33.4213 92.7168C33.4213 92.7168 33.4213 63.3178 60.6418 63.3178C60.6418 63.3178 56.6518 46.627 77.3388 46.627C96.7394 46.627 109.757 39.9208 111.901 24.7183C114.042 39.9208 127.06 46.627 146.461 46.627C167.148 46.627 163.158 63.3178 163.158 63.3178C190.377 63.3178 190.377 92.7168 190.377 92.7168C209.613 92.7168 205.62 107.959 205.62 107.959V205.18Z" fill="url(#paint0_radial_31_6343)"/>
<path fill-rule="evenodd" clip-rule="evenodd" d="M111.901 313.139C111.568 313.139 111.284 312.892 111.237 312.562C108.288 291.631 87.7479 287.237 71.0346 287.237C62.8126 287.237 56.9103 285.041 53.4916 280.709C49.6144 275.798 50.1347 269.684 50.4859 267.491C21.2603 266.96 18.6822 237.565 18.4584 232.738C11.0842 232.625 5.81877 230.587 2.80033 226.678C-1.21698 221.471 0.203997 214.841 0.415051 213.964V99.1751C0.203997 98.2981 -1.21698 91.6702 2.80033 86.4632C5.81877 82.5534 11.0824 80.5157 18.4584 80.4029C18.6822 75.5744 21.2603 46.179 50.4859 45.6459C50.1347 43.4554 49.6144 37.3423 53.4898 32.4319C56.9103 28.1 62.8126 25.9022 71.0346 25.9022C87.7461 25.9022 108.286 21.5085 111.237 0.576736C111.284 0.245613 111.568 0 111.901 0C112.236 0 112.518 0.245613 112.565 0.576736C115.512 21.5085 136.052 25.9022 152.765 25.9022C160.987 25.9022 166.891 28.1 170.31 32.4319C174.186 37.3423 173.665 43.4554 173.316 45.6459C202.536 46.179 205.116 75.5744 205.34 80.4029C212.714 80.5157 217.981 82.5534 221 86.465C225.017 91.6702 223.596 98.2981 223.385 99.1751V213.964C223.596 214.841 225.017 221.469 221 226.676C217.979 230.587 212.714 232.625 205.34 232.738C205.116 237.565 202.536 266.96 173.316 267.491C173.665 269.684 174.186 275.798 170.31 280.709C166.89 285.041 160.987 287.237 152.765 287.237C136.052 287.237 115.512 291.631 112.565 312.562C112.518 312.892 112.236 313.139 111.901 313.139ZM111.901 4.18634C108.12 19.2907 94.0795 27.2431 71.0346 27.2431C63.2492 27.2431 57.7036 29.2644 54.5505 33.2524C50.2421 38.6996 51.9269 46.0807 51.9451 46.1553C51.9906 46.3536 51.9451 46.5647 51.8195 46.7248C51.6904 46.8849 51.4975 46.9795 51.2919 46.9795C20.1596 46.9795 19.7775 79.677 19.7775 81.0688C19.7775 81.44 19.4773 81.7383 19.1061 81.7383C11.8356 81.7383 6.70848 83.6014 3.86834 87.2728C0.0493473 92.2106 1.71595 98.8567 1.73414 98.9222C1.7487 98.978 1.75597 99.0344 1.75597 99.0914V214.046C1.75597 214.103 1.7487 214.159 1.73414 214.215C1.71595 214.282 0.0493473 220.928 3.86834 225.868C6.70848 229.539 11.8356 231.402 19.1061 231.402C19.4773 231.402 19.7775 231.701 19.7775 232.072C19.7775 233.464 20.1596 266.16 51.2919 266.16C51.4975 266.16 51.6904 266.252 51.8195 266.414C51.9451 266.574 51.9906 266.784 51.9451 266.984C51.9269 267.058 50.2421 274.439 54.5505 279.888C57.7036 283.876 63.2492 285.898 71.0346 285.898C94.0795 285.898 108.12 293.848 111.901 308.953C115.68 293.848 129.72 285.898 152.765 285.898C160.551 285.898 166.096 283.876 169.249 279.888C173.558 274.439 171.873 267.058 171.857 266.984C171.809 266.784 171.855 266.574 171.982 266.414C172.111 266.252 172.303 266.16 172.508 266.16C203.639 266.16 204.019 233.464 204.021 232.072C204.021 231.701 204.319 231.402 204.69 231.402C211.963 231.402 217.09 229.539 219.932 225.866C223.751 220.928 222.084 214.282 222.066 214.215C222.051 214.159 222.044 214.103 222.044 214.046V99.0914C222.044 99.0344 222.051 98.978 222.066 98.9222C222.084 98.8567 223.751 92.2106 219.932 87.2747C217.09 83.6014 211.963 81.7383 204.69 81.7383C204.319 81.7383 204.021 81.44 204.021 81.0688C204.019 79.677 203.639 46.9795 172.508 46.9795C172.303 46.9795 172.111 46.8849 171.982 46.7248C171.855 46.5647 171.809 46.3536 171.857 46.1553C171.873 46.0807 173.558 38.6996 169.251 33.2524C166.096 29.2644 160.551 27.2431 152.765 27.2431C129.72 27.2431 115.68 19.2907 111.901 4.18634Z" fill="url(#paint1_radial_31_6343)"/>
<defs>
<radialGradient id="paint0_radial_31_6343" cx="0" cy="0" r="1" gradientUnits="userSpaceOnUse" gradientTransform="translate(173.132 11.6038) scale(284.343 284.331)">
<stop offset="0.026" stop-color="#0081F6"/>
<stop offset="1" stop-color="#002CE3"/>
</radialGradient>
<radialGradient id="paint1_radial_31_6343" cx="0" cy="0" r="1" gradientUnits="userSpaceOnUse" gradientTransform="translate(111.9 156.569) scale(136.084 136.078)">
<stop stop-color="#002CE3"/>
<stop offset="0.974" stop-color="#00396B"/>
</radialGradient>
</defs>
</svg>
