<svg width="285" height="128" viewBox="0 0 285 128" fill="none" xmlns="http://www.w3.org/2000/svg">
<path d="M142.5 127.87C141.708 127.87 141.038 127.289 140.926 126.505C137.262 100.513 111.605 95.0569 90.7288 95.0569C80.0737 95.0569 72.4002 92.1793 67.9215 86.5029C63.2702 80.6082 63.4351 73.4067 63.8487 70.0165C28.1634 68.8391 23.9206 33.8795 23.4207 25.9929C14.2019 25.7315 7.56875 23.0595 3.69647 18.0402C-1.8658 10.8311 0.471278 1.57418 0.57278 1.1834C0.793545 0.338403 1.64616 -0.169124 2.50892 0.0516411C3.35645 0.269869 3.86649 1.13771 3.64826 1.98778C3.62796 2.06898 1.61317 10.1637 6.22894 16.1219C9.68253 20.5778 15.9781 22.8362 24.9433 22.8362C25.8187 22.8362 26.5318 23.5467 26.5318 24.4247C26.5343 26.1578 27.0316 66.87 65.7163 66.87C66.2035 66.87 66.6603 67.0933 66.9623 67.4739C67.2642 67.8545 67.3733 68.3544 67.2642 68.8264C67.2414 68.9177 65.1961 77.9463 70.4311 84.5566C74.2805 89.4159 81.109 91.8773 90.7288 91.8773C119.012 91.8773 136.742 101.261 142.5 119.125C148.255 101.261 165.982 91.8773 194.27 91.8773C203.89 91.8773 210.719 89.4159 214.568 84.5566C219.803 77.9463 217.758 68.9177 217.737 68.8264C217.626 68.3544 217.737 67.8545 218.037 67.4739C218.339 67.0933 218.796 66.87 219.283 66.87C258.021 66.87 258.465 26.1578 258.465 24.4247C258.465 23.5467 259.175 22.8362 260.053 22.8362C269.018 22.8362 275.317 20.5752 278.77 16.1193C283.388 10.1612 281.371 2.06898 281.351 1.98778C281.133 1.13771 281.643 0.269869 282.49 0.0516411C283.345 -0.169124 284.206 0.338403 284.426 1.1834C284.528 1.57418 286.865 10.8285 281.3 18.0402C277.428 23.0595 270.797 25.7315 261.576 25.9929C261.076 33.8795 256.836 68.8391 221.15 70.0165C221.564 73.4067 221.729 80.6082 217.08 86.5029C212.599 92.1793 204.925 95.0569 194.27 95.0569C173.391 95.0569 147.734 100.513 144.073 126.505C143.964 127.289 143.294 127.87 142.5 127.87Z" fill="#8B1E3F"/>
</svg>
