<svg width="100" height="100" viewBox="0 0 100 100" fill="none" xmlns="http://www.w3.org/2000/svg">
<circle cx="50" cy="50" r="50" fill="#480003"/>
<path d="M50 26.5C53.0861 26.5 56.142 27.1081 58.9932 28.2891C61.8442 29.47 64.4351 31.2007 66.6172 33.3828C68.7993 35.5649 70.53 38.1558 71.7109 41.0068C72.8919 43.858 73.5 46.9139 73.5 50C73.5 56.2326 71.0243 62.2101 66.6172 66.6172C62.2101 71.0243 56.2326 73.5 50 73.5C46.9139 73.5 43.858 72.8919 41.0068 71.7109C38.1558 70.53 35.5649 68.7993 33.3828 66.6172C28.9757 62.2101 26.5 56.2326 26.5 50C26.5 43.7674 28.9757 37.7899 33.3828 33.3828C35.5649 31.2007 38.1558 29.47 41.0068 28.2891C43.858 27.1081 46.9139 26.5 50 26.5ZM50 60.2998C47.6776 60.2998 44.9213 60.8412 42.6133 61.6543C41.4578 62.0614 40.3976 62.5428 39.5527 63.0693C38.7231 63.5864 38.0372 64.1859 37.7168 64.8564L37.5449 65.2158L37.8574 65.4639C41.2065 68.1233 45.4191 69.7002 50 69.7002C54.5809 69.7002 58.7935 68.1233 62.1426 65.4639L62.4551 65.2158L62.2832 64.8564C61.9628 64.1859 61.2769 63.5864 60.4473 63.0693C59.6024 62.5428 58.5422 62.0614 57.3867 61.6543C55.0787 60.8412 52.3224 60.2998 50 60.2998ZM50 30.2998C39.1399 30.2998 30.2998 39.1399 30.2998 50C30.2998 54.4829 31.827 58.6212 34.3389 61.8965L34.7227 62.3955L35.1221 61.9092C36.7421 59.938 39.5647 58.576 42.4834 57.709C45.3886 56.846 48.2987 56.5 50 56.5C51.7013 56.5 54.6114 56.846 57.5166 57.709C60.4353 58.576 63.2579 59.938 64.8779 61.9092L65.2773 62.3955L65.6611 61.8965C68.173 58.6212 69.7002 54.4829 69.7002 50C69.7002 39.1399 60.8601 30.2998 50 30.2998ZM50 36.0996C54.3799 36.0996 57.9004 39.6201 57.9004 44C57.9004 48.3799 54.3799 51.9004 50 51.9004C45.6201 51.9004 42.0996 48.3799 42.0996 44C42.0996 39.6201 45.6201 36.0996 50 36.0996ZM50 39.9004C48.9126 39.9004 47.8695 40.3317 47.1006 41.1006C46.3317 41.8695 45.9004 42.9126 45.9004 44C45.9004 45.0874 46.3317 46.1305 47.1006 46.8994C47.8695 47.6683 48.9126 48.0996 50 48.0996C51.0874 48.0996 52.1305 47.6683 52.8994 46.8994C53.6683 46.1305 54.0996 45.0874 54.0996 44C54.0996 42.9126 53.6683 41.8695 52.8994 41.1006C52.1305 40.3317 51.0874 39.9004 50 39.9004Z" fill="#F4A261" stroke="#480003"/>
</svg>
