<svg width="84" height="27" viewBox="0 0 84 27" fill="none" xmlns="http://www.w3.org/2000/svg">
<path d="M42 13.2495C42.0132 5.92342 47.8383 -0.0134932 54.9991 2.36296e-05C62.1603 0.0135404 67.9544 5.97227 67.9411 13.2988C67.9279 20.6345 62.1122 26.5723 54.9514 26.5588C47.7902 26.5453 41.9864 20.5857 42 13.2495Z" fill="#8B1E3F"/>
<path d="M67.9412 13.2584C67.9493 8.65683 71.5505 4.93236 75.9855 4.94119C80.4382 4.95003 84.0085 8.68733 84 13.2894C83.9919 17.902 80.4085 21.626 75.9557 21.6176C71.5208 21.6092 67.9327 17.8715 67.9412 13.2589V13.2584Z" fill="#8B1E3F"/>
<path d="M42 13.2495C41.9868 5.92342 36.1617 -0.0134932 29.0009 2.36296e-05C21.8397 0.0135404 16.0456 5.97227 16.0589 13.2988C16.0721 20.6345 21.8878 26.5723 29.0486 26.5588C36.2098 26.5453 42.0136 20.5857 42 13.2495Z" fill="#8B1E3F"/>
<path d="M16.0588 13.2584C16.0507 8.65683 12.4495 4.93236 8.01455 4.94119C3.56176 4.95003 -0.00849954 8.68733 1.51985e-05 13.2894C0.0081042 17.902 3.59154 21.626 8.04433 21.6176C12.4792 21.6092 16.0673 17.8715 16.0588 13.2589V13.2584Z" fill="#8B1E3F"/>
</svg>
