<svg width="419" height="419" viewBox="0 0 419 419" fill="none" xmlns="http://www.w3.org/2000/svg">
<defs>
  <clipPath id="innerClip">
    <path d="M209.509 0C209.509 0 223.595 24.9912 260.754 24.9912C297.198 24.9912 345.356 29.9162 347.19 71.8124C389.086 73.6523 394.014 121.804 394.014 158.245C394.014 195.409 419 209.504 419 209.504C419 209.504 394.014 223.597 394.014 260.755C394.014 297.202 389.086 345.351 347.19 347.191C345.356 389.084 297.198 394.021 260.754 394.021C223.595 394.021 209.509 419 209.509 419C209.509 419 195.41 394.021 158.246 394.021C121.805 394.021 73.6528 389.084 71.8129 347.191C29.9106 345.351 24.9797 297.202 24.9797 260.755C24.9797 223.597 0 209.504 0 209.504C0 209.504 24.9797 195.409 24.9797 158.245C24.9797 121.804 29.9106 73.6523 71.8129 71.8124C73.6528 29.9162 121.805 24.9912 158.246 24.9912C195.41 24.9912 209.509 0 209.509 0Z"/>
  </clipPath>
</defs>
<path d="M209.509 0C209.509 0 223.595 24.9912 260.754 24.9912C297.198 24.9912 345.356 29.9162 347.19 71.8124C389.086 73.6523 394.014 121.804 394.014 158.245C394.014 195.409 419 209.504 419 209.504C419 209.504 394.014 223.597 394.014 260.755C394.014 297.202 389.086 345.351 347.19 347.191C345.356 389.084 297.198 394.021 260.754 394.021C223.595 394.021 209.509 419 209.509 419C209.509 419 195.41 394.021 158.246 394.021C121.805 394.021 73.6528 389.084 71.8129 347.191C29.9106 345.351 24.9797 297.202 24.9797 260.755C24.9797 223.597 0 209.504 0 209.504C0 209.504 24.9797 195.409 24.9797 158.245C24.9797 121.804 29.9106 73.6523 71.8129 71.8124C73.6528 29.9162 121.805 24.9912 158.246 24.9912C195.41 24.9912 209.509 0 209.509 0Z" fill="#8B1E3F"/>
</svg>
