<svg width="471" height="471" viewBox="0 0 471 471" fill="none" xmlns="http://www.w3.org/2000/svg">
<path fill-rule="evenodd" clip-rule="evenodd" d="M235.509 0C235.509 0 251.342 28.0927 293.116 28.0928C334.08 28.0928 388.216 33.6302 390.278 80.7246C437.373 82.793 442.91 136.922 442.91 177.883C442.91 219.592 470.91 235.456 471 235.507C471 235.507 442.91 251.344 442.91 293.117C442.91 334.086 437.373 388.21 390.278 390.278C388.216 437.37 334.08 442.919 293.116 442.919C251.353 442.919 235.517 470.985 235.509 471C235.497 470.98 219.645 442.919 177.887 442.919C136.92 442.919 82.7927 437.37 80.7275 390.278C33.6244 388.21 28.0811 334.086 28.0811 293.117C28.0809 251.344 0 235.507 0 235.507C0.0867788 235.458 28.0809 219.594 28.0811 177.883C28.0811 136.922 33.6244 82.793 80.7275 80.7246C82.7927 33.6302 136.92 28.0928 177.887 28.0928C219.653 28.0927 235.503 0.0100289 235.509 0ZM235.509 9C235.509 9 220.266 36.0174 180.088 36.0176C140.687 36.0176 88.6296 41.3437 86.6387 86.6377C41.3384 88.6287 36.0059 140.687 36.0059 180.082C36.0059 220.263 9 235.506 9 235.506C9.01847 235.516 36.0059 250.753 36.0059 290.915C36.0059 330.319 41.3384 382.374 86.6387 384.362C88.6296 429.653 140.687 434.991 180.088 434.991C220.266 434.991 235.509 462 235.509 462C235.522 461.977 250.756 434.991 290.915 434.991C330.313 434.991 382.379 429.653 384.364 384.362C429.659 382.374 434.985 330.319 434.985 290.915C434.985 250.757 461.977 235.519 462 235.506C462 235.506 434.985 220.263 434.985 180.082C434.985 140.687 429.659 88.6287 384.364 86.6377C382.379 41.3437 330.313 36.0176 290.915 36.0176C250.754 36.0174 235.52 9.01941 235.509 9Z" fill="url(#paint0_linear_571_2)"/>
<path fill-rule="evenodd" clip-rule="evenodd" d="M235.509 9C235.52 9.01941 250.754 36.0174 290.915 36.0176C330.313 36.0176 382.379 41.3437 384.364 86.6377C429.659 88.6287 434.985 140.687 434.985 180.082C434.985 220.263 462 235.506 462 235.506C461.977 235.519 434.985 250.757 434.985 290.915C434.985 330.319 429.659 382.374 384.364 384.362C382.379 429.653 330.313 434.991 290.915 434.991C250.756 434.991 235.522 461.977 235.509 462C235.509 462 220.266 434.991 180.088 434.991C140.687 434.991 88.6296 429.653 86.6387 384.362C41.3384 382.374 36.0059 330.319 36.0059 290.915C36.0059 250.753 9.01847 235.516 9 235.506C9 235.506 36.0059 220.263 36.0059 180.082C36.0059 140.687 41.3384 88.6287 86.6387 86.6377C88.6296 41.3437 140.687 36.0176 180.088 36.0176C220.266 36.0174 235.509 9 235.509 9ZM235.509 26C235.502 26.0118 221.402 50.991 184.246 50.9912C147.805 50.9912 99.6524 55.9163 97.8125 97.8125C55.9107 99.6527 50.9795 147.803 50.9795 184.244C50.9795 221.347 26.0828 235.457 26 235.504C26 235.504 50.9795 249.597 50.9795 286.756C50.9795 323.202 55.9107 371.35 97.8125 373.19C99.6524 415.084 147.805 420.021 184.246 420.021C221.392 420.021 235.495 444.975 235.509 445C235.519 444.981 249.609 420.021 286.754 420.021C323.198 420.021 371.356 415.084 373.19 373.19C415.086 371.35 420.015 323.202 420.015 286.756C420.015 249.597 445 235.504 445 235.504C444.914 235.455 420.015 221.345 420.015 184.244C420.015 147.803 415.086 99.6527 373.19 97.8125C371.356 55.9163 323.198 50.9912 286.754 50.9912C249.595 50.991 235.509 26 235.509 26Z" fill="url(#paint1_radial_571_2)"/>
<defs>
<linearGradient id="paint0_linear_571_2" x1="-231.924" y1="276.392" x2="194.601" y2="-231.924" gradientUnits="userSpaceOnUse">
<stop stop-color="#B57E10"/>
<stop offset="0.14" stop-color="#F9DF7B"/>
<stop offset="0.258" stop-color="#FFF3A6"/>
<stop offset="0.36" stop-color="#F9DF7B"/>
<stop offset="0.489" stop-color="#B57E10"/>
<stop offset="0.613" stop-color="#F9DF7B"/>
<stop offset="0.72" stop-color="#FFF3A6"/>
<stop offset="0.839" stop-color="#F9DF7B"/>
<stop offset="1" stop-color="#B57E10"/>
</linearGradient>
<radialGradient id="paint1_radial_571_2" cx="0" cy="0" r="1" gradientUnits="userSpaceOnUse" gradientTransform="translate(235.5 235.499) scale(226.502 226.499)">
<stop offset="0.51" stop-color="#D6006B"/>
<stop offset="1" stop-color="#BA004F"/>
</radialGradient>
</defs>
</svg>
