<svg width="49" height="100" viewBox="0 0 49 100" fill="none" xmlns="http://www.w3.org/2000/svg">
<path fill-rule="evenodd" clip-rule="evenodd" d="M40.0698 31.2308C40.0698 31.6002 40.0661 31.9707 40.0711 32.3401C40.0736 32.4883 40.0899 32.6353 40.1063 32.7823C40.1251 32.9707 40.3525 33.1227 40.5108 33.0473C40.7436 32.9359 40.9735 32.8183 41.2004 32.6943C41.6225 32.4644 42.0396 32.2245 42.4642 31.9996C42.5936 31.9318 42.7393 31.8916 42.8813 31.8527C43.1589 31.7735 43.5169 31.9871 43.5722 32.2647C43.6023 32.4092 43.6337 32.5574 43.6312 32.7031C43.6224 33.1089 43.6149 33.5171 43.5734 33.9216C43.4842 34.7671 43.3724 35.6112 43.2732 36.4554C43.2657 36.527 43.2807 36.6024 43.2845 36.6753C43.2933 36.8323 43.5106 37.0258 43.6689 37.0082C43.8155 36.9931 43.9612 36.9722 44.1061 36.9454C44.5055 36.8687 44.9025 36.772 45.3045 36.7129C45.5206 36.6803 45.7492 36.6803 45.9653 36.7129C46.4879 36.7908 46.8082 37.2506 46.7165 37.7581C46.6976 37.8674 46.6788 37.978 46.6399 38.081C46.3547 38.8435 46.0695 39.606 45.7718 40.3635C45.5947 40.8107 45.3899 41.2466 45.2065 41.6913C45.1638 41.7918 45.1512 41.9049 45.1274 42.0129C45.1022 42.131 45.253 42.3307 45.3786 42.327C45.5972 42.3207 45.8208 42.3232 46.0356 42.283C46.7718 42.1461 47.5092 42.1637 48.2466 42.2529C48.5606 42.2905 48.7541 42.6209 48.6473 42.9161C48.6096 43.0204 48.5795 43.1297 48.5229 43.2239C47.7277 44.5593 46.9853 45.9285 46.0117 47.1483C45.366 47.9586 44.7216 48.7726 43.9503 49.4698C42.7117 50.5891 41.3926 51.6016 39.9455 52.4395C39.3689 52.7737 38.8023 53.1254 38.173 53.3591C38.036 53.4106 37.9104 53.4922 37.7835 53.5676C37.5411 53.7108 37.4707 53.9859 37.6114 54.2422C37.7006 54.403 37.7999 54.56 37.8966 54.717C38.629 55.9029 38.8388 57.1779 38.6202 58.551C38.3915 59.9856 37.8074 61.2493 36.8401 62.3108C35.5965 63.6726 34.0714 64.5155 32.1821 64.5833C31.2864 64.616 30.4133 64.5482 29.5641 64.2165C28.3996 63.7618 27.5391 62.9766 27.0266 61.8573C26.3696 60.419 26.6459 58.953 27.6635 57.8324C27.9398 57.5284 28.2752 57.2998 28.6559 57.1365C28.8929 57.0368 29.1253 56.9267 29.3531 56.8061C29.3933 56.7847 29.397 56.6817 29.4021 56.6152C29.4033 56.5875 29.3707 56.5436 29.343 56.5297C29.245 56.482 29.1445 56.4204 29.0403 56.4079C28.2426 56.3099 27.4914 56.4983 26.7803 56.8337C26.3042 57.0599 25.9337 57.4367 25.6824 57.9028C25.342 58.5359 25.1686 59.2168 25.2653 59.9379C25.3746 60.7481 25.5769 61.537 25.9525 62.2706C26.0869 62.5319 26.2465 62.7844 26.4211 63.0219C26.7138 63.4176 27.0856 63.7128 27.5743 63.8434C27.7527 63.892 27.9268 63.9527 28.0969 64.0256C28.3468 64.1323 28.4951 64.523 28.3908 64.7894C28.3368 64.9263 28.279 65.0645 28.2024 65.1901C27.9147 65.6674 27.5806 66.1096 27.1899 66.5078C26.7489 66.9563 26.3042 67.4023 25.8658 67.8533C25.7126 68.0128 25.5668 68.1811 25.4261 68.352C25.3169 68.4851 25.3118 68.7527 25.4174 68.8721C25.7578 69.2615 26.0907 69.6584 26.4512 70.0278C26.602 70.1823 26.8218 70.2677 26.9989 70.3996C27.2062 70.5529 27.421 70.7023 27.5969 70.887C27.9398 71.2463 27.9499 71.8254 27.6459 72.2136C27.6015 72.273 27.5538 72.33 27.5027 72.3844C26.6007 73.314 25.6648 74.2084 24.6423 75.0074C24.4639 75.1481 24.2076 75.1406 24.0229 75.0024C23.9928 74.9806 23.9631 74.9584 23.9338 74.9358C23.0418 74.2122 22.1977 73.4359 21.3962 72.6143C21.2668 72.4811 21.1387 72.3467 21.0244 72.2023C20.7229 71.8204 20.748 71.2362 21.0859 70.8745C21.2103 70.74 21.3422 70.5943 21.5017 70.5139C22.0117 70.2564 22.4012 69.8783 22.7416 69.4298C22.8961 69.225 23.0934 69.0529 23.2655 68.8607C23.3446 68.7715 23.3597 68.5329 23.2918 68.4386C23.1851 68.2892 23.082 68.1346 22.9552 68.0027C22.4678 67.4965 21.9716 66.9978 21.4779 66.4978C21.0859 66.0996 20.7543 65.6561 20.4666 65.1788C20.3912 65.0532 20.3347 64.9137 20.2819 64.7768C20.1789 64.5117 20.3334 64.1273 20.5897 64.0205C20.7606 63.9485 20.9352 63.8878 21.1136 63.8384C21.5608 63.7165 21.9025 63.4464 22.1964 63.0997C22.4376 62.8146 22.6223 62.4955 22.7818 62.1613C23.1562 61.3825 23.3496 60.5484 23.4099 59.6992C23.5054 58.3776 22.7554 56.9644 21.2618 56.585C20.8322 56.4757 20.4 56.3564 19.9503 56.3802C19.7682 56.389 19.586 56.4305 19.4089 56.4795C19.3511 56.4946 19.287 56.5724 19.2719 56.6327C19.2594 56.688 19.2908 56.7923 19.336 56.8174C19.5295 56.9238 19.7284 57.0188 19.9327 57.1026C20.9289 57.5134 21.5269 58.2721 21.8371 59.2808C22.1612 60.3361 21.9866 61.3285 21.4301 62.2631C20.5872 63.6789 19.2858 64.371 17.6954 64.5532C17.1477 64.616 16.5849 64.5858 16.0322 64.5482C15.4015 64.5054 14.7923 64.3321 14.2207 64.057C12.006 62.9942 10.6342 61.2707 10.1179 58.86C9.93575 58.0108 9.9257 57.1805 10.1141 56.3312C10.246 55.7421 10.4546 55.1969 10.7912 54.7032C11.3239 53.9193 11.256 53.6945 10.3867 53.2975C8.69587 52.5249 7.12685 51.5564 5.7312 50.3178C5.31539 49.9497 4.86441 49.618 4.48001 49.2211C3.42604 48.1269 2.44117 46.9725 1.62714 45.6861C1.15229 44.9349 0.701312 44.1698 0.252843 43.4023C0.143552 43.2151 0.0744585 42.9991 0.0116477 42.7893C-0.0486506 42.592 0.134758 42.3182 0.340777 42.2792C1.00029 42.1536 1.66483 42.1612 2.32937 42.2328C2.5492 42.2579 2.76527 42.3157 2.98637 42.3408C3.09315 42.3546 3.20495 42.3333 3.31424 42.3232C3.44237 42.3119 3.58181 42.1197 3.54538 41.9941C3.49513 41.8182 3.44865 41.6386 3.37705 41.4702C2.9424 40.4489 2.49393 39.4327 2.1447 38.3774C2.06431 38.1325 1.9927 37.8825 1.95376 37.6287C1.90225 37.2921 2.10325 36.9742 2.41604 36.8147C2.61955 36.7117 2.83562 36.6589 3.05923 36.6815C3.31675 36.7054 3.57176 36.7506 3.82678 36.7971C4.18982 36.8637 4.55161 36.9453 4.91591 37.0107C5.17972 37.0571 5.43096 36.8197 5.40207 36.5471C5.32167 35.7758 5.22997 35.0045 5.14831 34.2319C5.10644 33.8274 5.07085 33.4225 5.04154 33.0172C5.03023 32.8702 5.03777 32.7207 5.0453 32.5725C5.07797 31.967 5.48875 31.6843 6.02389 31.9218C6.4284 32.1026 6.81657 32.32 7.20725 32.5298C7.43588 32.6529 7.65069 32.7986 7.87681 32.9255C7.97228 32.9782 8.08032 33.0096 8.18333 33.0498C8.31146 33.1001 8.52 32.9996 8.54135 32.8702C8.56899 32.688 8.60542 32.5046 8.60668 32.3225C8.61296 31.619 8.60039 30.9155 8.61044 30.2133C8.61296 29.9558 8.63934 29.6957 8.69084 29.4432C8.76496 29.0701 9.1883 28.8252 9.54758 28.9357C9.75862 29.001 9.97092 29.0752 10.1656 29.1769C10.9533 29.5877 11.7334 30.011 12.5173 30.4281C12.6797 30.5152 12.8451 30.5964 13.0135 30.6718C13.168 30.7409 13.4017 30.6153 13.4657 30.4495C13.6001 30.099 13.6541 29.7347 13.6755 29.3641C13.7509 28.1054 13.9958 26.8692 14.1868 25.6269C14.2546 25.1784 14.4368 24.7777 14.7395 24.4347C14.8815 24.2739 15.1629 24.2023 15.3475 24.2978C15.5108 24.3832 15.6817 24.4636 15.8236 24.5779C16.4869 25.1093 17.1552 25.6369 17.7959 26.1959C18.5521 26.8554 19.189 27.6268 19.7707 28.4433C19.8996 28.6233 20.034 28.7992 20.1739 28.9709C20.2907 29.1141 20.5658 29.1015 20.6613 28.9533C20.7405 28.8289 20.8284 28.7071 20.8849 28.5739C21.7002 26.6645 22.6914 24.843 23.6071 22.9838C23.7039 22.7866 23.8257 22.5981 23.9526 22.4185C24.1285 22.171 24.5468 22.1735 24.7252 22.421C24.8332 22.5692 24.9387 22.7237 25.0204 22.887C25.9387 24.745 26.9248 26.5703 27.7464 28.4747C27.8192 28.643 27.921 28.7988 28.0177 28.9546C28.1107 29.1041 28.387 29.1141 28.5039 28.9684C28.6659 28.7661 28.8242 28.5614 28.9724 28.3503C30.0226 26.8404 31.3957 25.6633 32.8541 24.5741C33.0011 24.4649 33.1695 24.382 33.3328 24.2978C33.5162 24.2023 33.7988 24.2752 33.9408 24.4372C34.1908 24.7211 34.3541 25.049 34.4458 25.4133C34.4822 25.5565 34.501 25.7035 34.5237 25.8505C34.7108 27.0187 34.9143 28.1845 35.0161 29.3666C35.0475 29.7322 35.1505 30.0914 35.2309 30.452C35.2673 30.6178 35.5261 30.7384 35.6806 30.668C35.849 30.5914 36.0123 30.5047 36.1743 30.4181C36.9582 30.0023 37.7396 29.5789 38.5272 29.1694C38.7219 29.0676 38.9355 28.9948 39.1478 28.932C39.5008 28.8264 39.9153 29.0877 39.9945 29.4608C40.0334 29.6405 40.046 29.8251 40.0661 30.0085C40.0736 30.0826 40.0711 30.1568 40.0711 30.2309C40.0719 30.5642 40.0719 30.8975 40.0711 31.2308C40.0711 31.2308 40.0707 31.2308 40.0698 31.2308ZM30.8053 43.6334C30.8254 42.7855 30.7399 41.9061 30.6281 41.023C30.3807 39.0696 29.9448 37.1639 29.3606 35.2897C28.8317 33.5938 28.2526 31.9155 27.5567 30.2799C27.2665 29.599 26.9977 28.9093 26.6924 28.236C26.1434 27.0238 25.5781 25.8178 25.0091 24.6143C24.8998 24.3832 24.7528 24.1671 24.6096 23.9536C24.484 23.7677 24.1662 23.784 24.038 23.98C23.9162 24.1646 23.7931 24.3518 23.6988 24.5503C23.4288 25.1181 23.1901 25.701 22.9112 26.2638C22.0381 28.0212 21.2668 29.8239 20.5709 31.6567C19.3875 34.7759 18.3976 37.9453 18.017 41.2818C17.8198 43.0204 17.7921 44.7439 18.0723 46.4737C18.2833 47.7727 18.7293 48.9824 19.4277 50.0854C20.0596 51.0853 20.9465 51.7976 22.1097 52.1104C23.5695 52.5048 25.0342 52.5073 26.4977 52.1305C27.7049 51.8202 28.622 51.0903 29.2702 50.0527C29.9611 48.946 30.3982 47.7337 30.6131 46.436C30.7651 45.5178 30.8241 44.6007 30.8053 43.6334ZM14.3199 34.5573C14.3208 34.5573 14.3212 34.5573 14.3212 34.5573C14.3212 35.5183 14.3187 36.478 14.3237 37.439C14.325 37.7343 14.3312 38.0307 14.3689 38.3234C14.492 39.3133 14.6202 40.302 14.7646 41.2881C15.0247 43.0506 15.5272 44.749 16.1678 46.4072C16.3412 46.8531 16.5723 47.2777 16.7909 47.7048C16.8562 47.8342 16.9555 47.9498 17.0572 48.0553C17.0999 48.1005 17.1854 48.1156 17.2532 48.1269C17.3336 48.1395 17.4316 47.9862 17.4153 47.8794C17.3851 47.6973 17.3612 47.5139 17.3185 47.3355C17.0698 46.2853 16.9907 45.22 17.0095 44.1447C17.017 43.8122 17.0179 43.4798 17.012 43.1473C16.9831 41.8471 17.1552 40.5658 17.409 39.2982C17.641 38.1383 17.9106 36.9876 18.218 35.8462C18.4956 34.8136 18.7845 33.7809 19.1978 32.7873C19.3812 32.3451 19.5207 31.8828 19.6764 31.4293C19.9742 30.5638 20.0169 30.4784 19.4993 29.55C19.4817 29.5182 19.4633 29.4864 19.444 29.4545C18.782 28.3403 16.9379 26.4333 15.8437 25.7349C15.7822 25.6947 15.7143 25.6645 15.6478 25.6331C15.6151 25.6181 15.5762 25.6155 15.541 25.603C15.4342 25.5653 15.2131 25.662 15.1629 25.7726C15.1176 25.8731 15.0561 25.9711 15.0347 26.0766C14.938 26.5841 14.835 27.0916 14.7672 27.6029C14.6528 28.4822 14.5812 29.3666 14.4544 30.2422C14.3689 30.8293 14.3245 31.418 14.3212 32.0084C14.3162 32.8576 14.3199 33.7081 14.3199 34.5573ZM34.3855 34.3689C34.3566 33.0775 34.4294 31.5562 34.1769 30.05C34.1531 29.9043 34.1581 29.7548 34.1468 29.6065C34.0676 28.4596 33.883 27.3278 33.6707 26.2009C33.6431 26.0577 33.5777 25.9221 33.5212 25.7864C33.4559 25.6294 33.1921 25.5364 33.0426 25.6319C32.7323 25.8316 32.4107 26.0201 32.1318 26.2575C31.3982 26.8818 30.7186 27.5652 30.0741 28.2825C29.6759 28.7247 29.3694 29.2309 29.0679 29.7422C28.7865 30.2196 28.7149 30.6944 28.9247 31.2245C29.1822 31.8778 29.3996 32.5486 29.6345 33.2119C29.7463 33.5259 29.8744 33.835 29.9699 34.1528C30.3744 35.5007 30.76 36.8536 31.059 38.2292C31.4296 39.9326 31.7047 41.6486 31.6633 43.401C31.6607 43.5493 31.6612 43.6971 31.6645 43.8445C31.6934 45.0706 31.6155 46.2866 31.3278 47.4837C31.2864 47.6596 31.2889 47.848 31.2952 48.0289C31.2964 48.0654 31.4221 48.1395 31.4623 48.1244C31.5602 48.088 31.6758 48.0277 31.7223 47.9435C31.9735 47.4913 32.2449 47.0441 32.4371 46.5667C32.9634 45.2602 33.4094 43.9249 33.6782 42.5393C33.8968 41.4125 34.0551 40.2781 34.1933 39.1374C34.3691 37.6978 34.3679 36.2582 34.3855 34.8148C34.3867 34.7407 34.3855 34.6666 34.3855 34.3689ZM31.809 63.758C32.1733 63.7115 32.5476 63.699 32.9031 63.6098C34.7937 63.1362 36.2334 62.0684 37.1416 60.3222C37.4343 59.7607 37.5989 59.1577 37.7559 58.5472C38.0272 57.4907 37.8451 56.4946 37.428 55.521C37.2672 55.1454 37.0474 54.8012 36.7446 54.5211C36.516 54.3088 36.2459 54.202 35.9319 54.2648C35.751 54.3012 35.5739 54.3552 35.3942 54.3992C34.893 54.5236 34.393 54.6617 33.888 54.7685C32.8391 54.9896 31.7776 55.1328 30.711 55.2295C30.5653 55.2434 30.4209 55.2785 30.2776 55.3125C30.2462 55.3187 30.1985 55.3589 30.1985 55.3828C30.1998 55.4507 30.1998 55.5499 30.2412 55.5788C30.3593 55.6617 30.4975 55.7195 30.6281 55.7835C31.0276 55.9757 31.4384 56.1466 31.8228 56.3652C32.4572 56.7257 32.9371 57.2646 33.1192 57.9618C33.3491 58.8374 33.2913 59.7255 32.8303 60.5408C32.7411 60.6991 32.6092 60.836 32.4798 60.9654C32.4044 61.0408 32.2976 61.091 32.1984 61.1363C31.9258 61.2619 31.5766 61.0395 31.5364 60.7431C31.4911 60.4026 31.6155 60.0861 31.6406 59.7557C31.7411 58.4342 30.4347 57.4355 29.1885 57.9003C28.4109 58.1892 27.8959 58.7545 27.6986 59.5635C27.5466 60.1866 27.5856 60.8109 27.8393 61.4114C28.1551 62.1534 28.6634 62.7204 29.3644 63.1123C30.1206 63.5356 30.9309 63.763 31.809 63.758ZM16.8474 63.7278C17.7645 63.7668 18.6187 63.5432 19.3875 63.0633C20.5445 62.3422 21.1638 61.3109 21.0369 59.9102C20.9578 59.0246 20.4754 58.3889 19.7091 57.992C18.6325 57.4355 17.3839 58.0209 17.0824 59.1879C17.0158 59.4429 17.0233 59.6979 17.0597 59.9567C17.0949 60.2104 17.1326 60.468 17.1351 60.723C17.1376 61.0659 16.6954 61.282 16.3914 61.1074C16.1251 60.9541 15.9367 60.7305 15.7998 60.4642C15.3915 59.6703 15.3764 58.8324 15.5385 57.9781C15.5586 57.8714 15.6101 57.7684 15.6603 57.6704C15.9543 57.0988 16.355 56.6227 16.9291 56.3162C17.2545 56.1428 17.5924 55.9921 17.9253 55.8325C18.0911 55.7534 18.2657 55.6881 18.4227 55.5951C18.4667 55.57 18.4742 55.4695 18.4818 55.4017C18.4856 55.3778 18.4428 55.3351 18.4127 55.325C18.3097 55.2911 18.2042 55.2509 18.0961 55.2409C16.4002 55.0901 14.7219 54.8401 13.0889 54.3427C12.9482 54.3 12.8012 54.2686 12.6555 54.2535C12.4268 54.2296 12.2133 54.2937 12.0349 54.4394C11.9206 54.5324 11.805 54.6303 11.7196 54.7484C11.0236 55.7145 10.6882 56.7898 10.8252 57.9807C10.9005 58.6414 11.0751 59.2871 11.3389 59.9027C12.0964 61.6727 13.4142 62.8322 15.2194 63.459C15.747 63.6424 16.2884 63.7479 16.8474 63.7278ZM39.2282 31.5562C39.2215 31.5562 39.2144 31.5558 39.2068 31.5549C39.2068 31.2962 39.2169 31.0361 39.2031 30.7786C39.1955 30.6329 39.1553 30.4884 39.1201 30.3452C39.0674 30.1316 38.8048 29.996 38.59 30.0688C38.4506 30.1153 38.3049 30.1555 38.178 30.2284C37.4067 30.668 36.6374 31.1115 35.8703 31.5587C35.7761 31.614 35.6882 31.6856 35.6027 31.7547C35.3892 31.9268 35.2698 32.1529 35.251 32.423C35.2334 32.6818 35.2309 32.9405 35.2309 33.1993C35.2284 34.1993 35.241 35.1992 35.2271 36.1979C35.2121 37.4189 35.1781 38.6337 35.0224 39.8522C34.839 41.2881 34.5802 42.7026 34.2284 44.1033C33.9018 45.4022 33.4194 46.6396 32.824 47.8367C32.5099 48.4686 32.1507 49.0716 31.7663 49.6608C31.6884 49.7788 31.6545 49.9271 31.6105 50.064C31.6042 50.0828 31.6532 50.1456 31.6708 50.1431C31.7763 50.1268 31.9019 50.1281 31.9811 50.069C32.6695 49.559 33.2574 48.9422 33.7951 48.2827C35.0676 46.7212 36.0412 44.9801 36.8075 43.1222C37.6165 41.165 38.2111 39.145 38.5913 37.0622C38.7571 36.1527 38.8928 35.2369 39.0146 34.3211C39.0963 33.698 39.1315 33.0687 39.1817 32.4418C39.2056 32.1479 39.2131 31.8514 39.2282 31.5562ZM13.4569 35.6062C13.4527 35.6062 13.4485 35.6062 13.4444 35.6062C13.4444 35.0133 13.4444 34.4208 13.4444 33.8287C13.4427 33.4217 13.4418 33.0147 13.4418 32.6076C13.4431 32.1604 13.2434 31.8338 12.8665 31.5989C12.0826 31.1077 11.3025 30.609 10.4634 30.2133C10.3001 30.1354 10.1154 30.1015 9.93826 30.0588C9.82646 30.0324 9.61667 30.163 9.58275 30.2774C9.5413 30.4193 9.481 30.5638 9.481 30.7057C9.48226 31.3338 9.49105 31.9632 9.5212 32.5901C9.54381 33.0699 9.6016 33.5485 9.64305 34.0272C9.66818 34.3224 9.66943 34.6214 9.71591 34.9115C9.9772 36.5195 10.2523 38.1212 10.697 39.694C11.2334 41.5883 11.9243 43.4161 12.8276 45.1673C13.5109 46.4926 14.3802 47.686 15.3513 48.8065C15.7131 49.2249 16.1352 49.5917 16.5447 49.966C16.6465 50.0602 16.801 50.0979 16.9354 50.1532C16.9593 50.1632 17.007 50.1406 17.0309 50.1193C17.0535 50.0967 17.0761 50.0552 17.0711 50.0263C17.0208 49.7211 16.8072 49.5025 16.6502 49.2563C15.8111 47.9347 15.1478 46.5252 14.7119 45.0291C13.9519 42.4275 13.4833 39.7706 13.4582 37.0496C13.4532 36.5685 13.4569 36.0874 13.4569 35.6062ZM6.04274 34.1126C6.08671 34.6188 6.09927 34.9894 6.15328 35.3537C6.46106 37.4491 7.04897 39.4716 7.87807 41.4125C8.82274 43.6272 10.0011 45.71 11.5475 47.5817C12.766 49.0565 14.2119 50.2336 15.8362 51.2122C15.9895 51.3051 16.1754 51.3516 16.3512 51.3956C16.3977 51.4082 16.4706 51.3378 16.5196 51.2926C16.5359 51.2775 16.5259 51.2172 16.5095 51.1883C16.4718 51.1255 16.4342 51.0564 16.3776 51.0124C14.8965 49.8655 13.7446 48.4271 12.7698 46.8481C12.2673 46.0328 11.864 45.156 11.4219 44.303C11.0814 43.646 10.8214 42.9563 10.5701 42.2604C9.8252 40.2027 9.30764 38.091 8.98982 35.9291C8.9358 35.5635 8.85917 35.2017 8.7838 34.8399C8.73732 34.6163 8.62175 34.4254 8.43709 34.2897C7.87304 33.8701 7.29393 33.4744 6.64823 33.1893C6.54899 33.1466 6.43594 33.1353 6.3279 33.1126C6.2073 33.0888 6.0151 33.242 6.01762 33.3689C6.02264 33.6629 6.03771 33.9568 6.04274 34.1126ZM42.6288 34.1993C42.6388 33.9606 42.6551 33.6679 42.6614 33.3739C42.6652 33.2445 42.4742 33.09 42.3536 33.1126C42.2456 33.134 42.1325 33.144 42.0333 33.188C41.3864 33.4707 40.8085 33.8689 40.242 34.2847C40.0585 34.4204 39.9367 34.6101 39.8927 34.8349C39.8023 35.306 39.7231 35.7796 39.6402 36.2519C39.4254 37.4893 39.2005 38.7267 38.8576 39.9351C38.2421 42.1122 37.4217 44.2063 36.305 46.1785C35.2774 47.9925 34.0287 49.6281 32.3843 50.9371C32.3002 51.0049 32.2348 51.0979 32.1683 51.1845C32.1494 51.2097 32.1394 51.2725 32.1557 51.2876C32.2022 51.334 32.2763 51.4082 32.3165 51.3956C32.525 51.3315 32.7436 51.2712 32.9283 51.1594C34.2963 50.3341 35.5374 49.3505 36.6228 48.1759C36.923 47.8518 37.1893 47.495 37.467 47.1496C38.2094 46.2263 38.8689 45.2439 39.4342 44.205C40.3537 42.5142 41.1414 40.7668 41.6992 38.9164C42.1589 37.3901 42.5069 35.8474 42.6288 34.1993ZM18.7154 54.369C18.7556 54.364 19.0094 54.3351 19.2632 54.2987C19.287 54.2962 19.3184 54.251 19.3222 54.2221C19.3272 54.1919 19.3134 54.1404 19.2895 54.1266C19.1978 54.0688 19.1036 54.0035 19.0006 53.9746C18.7154 53.8942 18.429 53.8176 18.1388 53.7636C16.6779 53.496 15.2872 53.0186 13.928 52.4194C12.359 51.7272 10.9068 50.8454 9.62923 49.7173C7.99239 48.2739 6.47864 46.7049 5.31916 44.8306C5.12486 44.5157 4.91298 44.2138 4.68351 43.9249C4.57297 43.7842 4.41971 43.651 4.25766 43.5832C3.50393 43.2691 2.72382 43.0505 1.89974 43.0292C1.79296 43.0267 1.68367 43.0694 1.57815 43.097C1.46132 43.1284 1.35077 43.347 1.39474 43.4613C1.4475 43.5983 1.49147 43.7415 1.56684 43.8646C1.81683 44.2754 2.08315 44.6748 2.33439 45.0844C3.07053 46.2866 3.96119 47.3682 4.92471 48.392C5.45734 48.9598 6.05781 49.4485 6.66331 49.9346C7.55899 50.6532 8.50618 51.2951 9.50864 51.8516C11.4972 52.9533 13.619 53.6957 15.8601 54.0701C16.7319 54.2158 17.6062 54.3791 18.7154 54.369ZM30.1457 54.3816C30.7437 54.403 31.3228 54.2547 31.912 54.1982C33.3227 54.065 34.6857 53.712 36.0148 53.2523C39.0033 52.2209 41.6075 50.5589 43.8272 48.3078C44.2417 47.8882 44.606 47.4172 44.9904 46.9674C45.861 45.9486 46.5431 44.8042 47.1976 43.6422C47.2328 43.5794 47.2453 43.5041 47.2705 43.435C47.3144 43.3156 47.2014 43.1021 47.0707 43.087C46.8522 43.0606 46.6223 43.0053 46.415 43.0468C45.8346 43.1624 45.2618 43.3144 44.6902 43.4651C44.3159 43.5644 44.0395 43.8055 43.8272 44.1246C43.581 44.4939 43.3339 44.8629 43.086 45.2313C42.4014 46.2464 41.6539 47.2111 40.7683 48.0616C40.394 48.4209 40.0322 48.7915 39.6641 49.157C38.845 49.9698 37.9192 50.6444 36.9444 51.2549C36.0952 51.7863 35.202 52.2272 34.2799 52.6217C33.2197 53.0752 32.1331 53.4281 31.0075 53.6681C30.5729 53.7594 30.1399 53.8578 29.7086 53.9633C29.6031 53.9897 29.5063 54.05 29.4096 54.1027C29.3832 54.1178 29.3493 54.1743 29.3581 54.1869C29.3908 54.2397 29.4347 54.3175 29.4837 54.3251C29.7023 54.3552 29.9247 54.364 30.1457 54.3816ZM45.6299 38.0131C45.6261 37.738 45.3937 37.5647 45.2216 37.576C44.6613 37.6111 44.14 37.7958 43.6174 37.9805C43.0923 38.1664 42.7519 38.5093 42.5923 39.0533C42.4353 39.5834 42.2368 40.101 42.0572 40.6248C41.5019 42.2378 40.7922 43.7767 39.8864 45.2238C38.6868 47.1383 37.4004 48.9824 35.5776 50.3793C35.4332 50.4899 35.3163 50.6394 35.2033 50.7838C35.1668 50.8303 35.153 50.9383 35.1819 50.9823C35.2108 51.025 35.3176 51.0551 35.3729 51.0376C36.0462 50.8114 36.624 50.4107 37.2019 50.0125C38.0561 49.4258 38.8086 48.7136 39.6113 48.0616C39.7533 47.946 39.8852 47.8129 40.0033 47.6722C40.5259 47.0503 41.0547 46.4335 41.5572 45.7966C42.87 44.1359 43.9139 42.3106 44.7807 40.3849C45.0683 39.7455 45.2995 39.0822 45.5444 38.4239C45.6072 38.2556 45.6198 38.0672 45.6299 38.0131ZM13.5084 50.9823C13.5122 50.9459 13.5285 50.9044 13.516 50.8743C13.4142 50.6243 13.2132 50.4559 13.0072 50.3027C11.8954 49.4786 11.0123 48.4334 10.2033 47.3317C8.68707 45.269 7.42709 43.0606 6.61557 40.6173C6.41709 40.0218 6.2073 39.4301 6.00128 38.8385C5.89953 38.5483 5.72366 38.3134 5.44981 38.1714C4.82044 37.8461 4.15339 37.6388 3.44488 37.5772C3.2263 37.5584 2.9939 37.792 3.04415 37.9993C3.12078 38.3209 3.19992 38.645 3.31424 38.954C4.529 42.2139 6.35051 45.1019 8.67828 47.6772C8.8755 47.8945 9.10288 48.088 9.32397 48.2827C9.62798 48.5515 9.93785 48.8141 10.2536 49.0703C11.1153 49.7663 11.9859 50.4547 13.0009 50.9233C13.1303 50.9836 13.2785 51.0074 13.4192 51.0388C13.4444 51.0438 13.4783 51.0024 13.5084 50.9823ZM27.1019 64.9589C27.0693 64.8936 27.0517 64.812 27.0002 64.7667C26.8633 64.6449 26.7138 64.5369 26.5655 64.4263C25.994 63.9954 25.5342 63.4703 25.2377 62.8158C25.053 62.4113 24.8923 61.998 24.7164 61.5898C24.6427 61.4223 24.564 61.2569 24.4802 61.0936C24.4651 61.0659 24.4174 61.0345 24.3898 61.0383C24.3207 61.0483 24.2139 61.0571 24.1938 61.0999C24.0648 61.3653 23.9484 61.6358 23.8446 61.9114C23.4363 63.0118 22.8597 63.9841 21.8271 64.6185C21.7957 64.6374 21.7706 64.665 21.7417 64.6889C21.5608 64.8371 21.5118 65.1072 21.655 65.2856C22.0746 65.8019 22.4929 66.3219 22.9338 66.8206C23.1775 67.0958 23.4602 67.3395 23.739 67.5832C23.8471 67.6774 23.9865 67.744 24.1209 67.8043C24.2604 67.8671 24.4099 67.8482 24.5518 67.793C24.5862 67.7787 24.6188 67.7616 24.6498 67.7415C25.6799 67.097 26.352 66.1134 27.0693 65.175C27.1082 65.1235 27.0919 65.0318 27.1019 64.9589ZM24.327 70.5868C23.5456 70.7011 22.7856 70.843 22.0997 71.2463C21.7555 71.4485 21.7015 71.7865 21.9753 72.0767C22.0507 72.1571 22.1248 72.24 22.2077 72.3141C22.7596 72.8048 23.3132 73.2943 23.8684 73.7826C23.9225 73.8316 23.9853 73.8718 24.0443 73.9157C24.2177 74.0439 24.484 74.0363 24.6649 73.8944C24.752 73.8266 24.8374 73.7558 24.9211 73.6821C25.4203 73.2441 25.9186 72.804 26.416 72.3618C26.5253 72.2638 26.6271 72.1558 26.7263 72.0465C26.9537 71.7965 26.911 71.4586 26.6346 71.2865C25.9249 70.8443 25.1297 70.6961 24.327 70.5868ZM24.3332 54.7798C24.2189 54.7899 24.0707 54.7937 23.9262 54.815C23.2713 54.9113 22.6168 55.0122 21.9628 55.1178C21.709 55.1596 21.4582 55.2145 21.2103 55.2823C21.1663 55.2936 21.1374 55.3853 21.1161 55.4444C21.1098 55.4645 21.1475 55.5147 21.1751 55.5273C21.4758 55.6621 21.7777 55.7948 22.0808 55.9255C22.8145 56.2446 23.3848 56.7445 23.7667 57.4505C23.8194 57.5473 23.8672 57.6478 23.9199 57.7445C23.9744 57.84 24.0309 57.9346 24.0895 58.0284C24.2227 58.2432 24.479 58.2231 24.6184 57.9844C24.7097 57.8253 24.7976 57.6637 24.8822 57.4995C25.2729 56.7496 25.8708 56.2295 26.6459 55.9041C26.8494 55.8187 27.0592 55.7509 27.2615 55.663C27.3607 55.619 27.4512 55.5537 27.5391 55.4896C27.5617 55.472 27.5743 55.4218 27.5692 55.3903C27.5655 55.3589 27.5391 55.3137 27.514 55.3062C26.4864 55.0034 25.4161 54.9519 24.3332 54.7798Z" fill="#8B1E3F"/>
<path d="M24.3496 87.7564C24.1624 87.769 24.0003 87.6082 24.0079 87.4185C24.0142 87.2703 24.126 87.1422 24.2692 87.1158C24.4601 87.0831 24.6435 87.2087 24.6674 87.3896C24.6913 87.5667 24.538 87.7451 24.3496 87.7564Z" fill="#8B1E3F"/>
<path d="M24.6285 80.7379C24.5945 80.8773 24.4538 80.9615 24.2918 80.9389C24.1335 80.9188 24.0179 80.7806 24.0481 80.6487C24.0807 80.5105 24.2214 80.4276 24.386 80.4502C24.5493 80.4716 24.6611 80.6048 24.6285 80.7379Z" fill="#8B1E3F"/>
<path d="M24.6335 6.50324C24.6285 6.63891 24.489 6.74193 24.3232 6.73439C24.1637 6.72559 24.0355 6.60877 24.0456 6.47435C24.0481 6.43918 24.0581 6.40023 24.0782 6.3726C24.2189 6.18542 24.5066 6.20175 24.6121 6.40149C24.6285 6.43038 24.6272 6.46932 24.6335 6.50324Z" fill="#8B1E3F"/>
<path d="M24.3006 95.3755C24.1335 95.3617 24.0154 95.2373 24.0368 95.0979C24.0581 94.9559 24.1976 94.8655 24.3697 94.8818C24.5355 94.8981 24.6561 95.0237 24.636 95.1607C24.6159 95.2976 24.4714 95.3906 24.3006 95.3755Z" fill="#8B1E3F"/>
<path d="M24.6284 20.2264C24.6586 20.357 24.5405 20.4952 24.3822 20.5153C24.2189 20.5354 24.0782 20.45 24.0468 20.3118C24.0167 20.1761 24.131 20.0417 24.2918 20.0216C24.4526 20.0028 24.5958 20.0894 24.6284 20.2264Z" fill="#8B1E3F"/>
<path d="M24.6008 83.949C24.587 84.15 24.4362 84.2618 24.2792 84.2216C24.1637 84.1915 24.087 84.1111 24.077 83.988C24.0657 83.8448 24.2277 83.7217 24.3935 83.7732C24.4815 83.7996 24.5468 83.9001 24.6008 83.949Z" fill="#8B1E3F"/>
<path d="M24.342 90.9446C24.4915 90.9459 24.6134 91.069 24.5983 91.2034C24.5845 91.3366 24.4413 91.4308 24.2842 91.3994C24.1762 91.378 24.092 91.3139 24.077 91.1959C24.0594 91.0627 24.1913 90.9421 24.342 90.9446Z" fill="#8B1E3F"/>
<path d="M24.6096 15.4475C24.5619 15.4965 24.5066 15.5932 24.4262 15.6246C24.2755 15.6849 24.1322 15.6096 24.0858 15.4827C24.0405 15.3558 24.1448 15.2088 24.2981 15.1862C24.4438 15.1636 24.587 15.2654 24.6096 15.4475Z" fill="#8B1E3F"/>
<path d="M24.0581 99.7485C24.1046 99.6957 24.1536 99.594 24.2327 99.5575C24.3835 99.4897 24.5317 99.555 24.5933 99.6806C24.6548 99.8025 24.5481 99.9708 24.3948 99.996C24.2428 100.021 24.0933 99.9269 24.0581 99.7485Z" fill="#8B1E3F"/>
<path d="M24.0619 13.1074C24.1071 13.0546 24.1549 12.9541 24.234 12.9177C24.381 12.8486 24.528 12.9139 24.5895 13.0396C24.6498 13.1602 24.5443 13.3272 24.3935 13.3524C24.2441 13.3762 24.0958 13.2833 24.0619 13.1074Z" fill="#8B1E3F"/>
<path d="M24.6058 8.62507C24.5908 8.82104 24.44 8.92781 24.2817 8.89766C24.1712 8.87505 24.0807 8.77456 24.0757 8.66652C24.0694 8.52332 24.2265 8.40146 24.3935 8.45171C24.4827 8.47935 24.5493 8.57608 24.6058 8.62507Z" fill="#8B1E3F"/>
<path d="M24.6008 3.90932C24.5443 3.9558 24.4764 4.05253 24.3873 4.07891C24.2239 4.12916 24.0569 3.996 24.0782 3.85782C24.0958 3.73848 24.1699 3.65682 24.288 3.63044C24.4425 3.59527 24.5958 3.71335 24.6008 3.90932Z" fill="#8B1E3F"/>
<path d="M24.5996 77.7573C24.6033 77.893 24.4714 78.0085 24.3232 77.9985C24.1724 77.9897 24.0544 77.8603 24.082 77.7284C24.1059 77.6141 24.1925 77.5588 24.2993 77.5412C24.4551 77.5174 24.5958 77.6229 24.5996 77.7573Z" fill="#8B1E3F"/>
<path d="M24.0456 17.779C24.1712 17.7049 24.2528 17.622 24.3445 17.6094C24.5066 17.5881 24.6247 17.7677 24.5568 17.9034C24.5041 18.0089 24.3873 18.0755 24.2792 18.0214C24.1963 17.98 24.1423 17.882 24.0456 17.779Z" fill="#8B1E3F"/>
<path d="M24.582 10.9768C24.5305 11.022 24.4689 11.1137 24.386 11.1426C24.2403 11.1916 24.092 11.0697 24.0933 10.9316C24.0933 10.8311 24.18 10.7343 24.2855 10.7167C24.4362 10.6916 24.5832 10.7997 24.582 10.9768Z" fill="#8B1E3F"/>
<path d="M24.3157 0C24.4174 0.087935 24.5229 0.138184 24.5619 0.219838C24.6234 0.349228 24.4651 0.496205 24.3031 0.478618C24.1875 0.464799 24.0732 0.354257 24.1096 0.256273C24.1423 0.168338 24.2302 0.101753 24.3157 0Z" fill="#8B1E3F"/>
</svg>
