<svg width="48" height="64" viewBox="0 0 48 64" fill="none" xmlns="http://www.w3.org/2000/svg">
<path d="M2.09842 45.3597C2.76536 46.0269 3.5572 46.5561 4.42869 46.9171C5.30019 47.2782 6.23428 47.464 7.1776 47.464C8.12093 47.464 9.05502 47.2782 9.92651 46.9171C10.798 46.5561 11.5898 46.0269 12.2568 45.3597L15.4571 42.1594L21.8457 48.5467L18.6614 51.7337C17.6563 52.7384 16.9717 54.0186 16.6942 55.4124C16.4167 56.8062 16.5588 58.2509 17.1025 59.564C17.6462 60.877 18.567 61.9993 19.7486 62.7889C20.9302 63.5785 22.3195 64 23.7406 64C25.1618 64 26.551 63.5785 27.7326 62.7889C28.9142 61.9993 29.8351 60.877 30.3788 59.564C30.9224 58.2509 31.0645 56.8062 30.787 55.4124C30.5095 54.0186 29.8249 52.7384 28.8198 51.7337L25.6315 48.5441L32.0174 42.1581L35.2178 45.3584C35.8774 46.0577 36.6706 46.6175 37.5506 47.0047C38.4305 47.3918 39.3791 47.5984 40.3404 47.6121C41.3016 47.6259 42.2558 47.4466 43.1464 47.0849C44.0371 46.7232 44.8461 46.1864 45.5255 45.5062C46.2049 44.8261 46.7408 44.0166 47.1016 43.1255C47.4624 42.2345 47.6407 41.2801 47.6259 40.3189C47.6111 39.3577 47.4035 38.4093 47.0155 37.5298C46.6274 36.6503 46.0668 35.8576 45.3668 35.1987L42.1665 31.9984L45.3668 28.7981C46.7139 27.4508 47.4706 25.6236 47.4705 23.7184C47.4703 21.8132 46.7134 19.9861 45.3661 18.639C44.0189 17.292 42.1917 16.5352 40.2865 16.5354C38.3813 16.5355 36.5542 17.2924 35.2071 18.6397L32.0068 21.84L25.6168 15.4487L28.8131 12.2631C29.8178 11.2585 30.502 9.97852 30.7793 8.58506C31.0565 7.1916 30.9143 5.74722 30.3706 4.43459C29.8269 3.12195 28.9062 2.00002 27.7249 1.21067C26.5436 0.421316 25.1547 0 23.7339 0C22.3132 0 20.9243 0.421316 19.743 1.21067C18.5617 2.00002 17.641 3.12195 17.0973 4.43459C16.5536 5.74722 16.4114 7.1916 16.6886 8.58506C16.9659 9.97852 17.6501 11.2585 18.6548 12.2631L21.8551 15.4567L15.4544 21.8494L12.2541 18.649C10.9025 17.3238 9.08246 16.5856 7.18957 16.5949C5.29667 16.6042 3.48396 17.3603 2.14547 18.6988C0.806973 20.0372 0.0508957 21.85 0.0415872 23.7429C0.0322787 25.6357 0.770492 27.4558 2.09576 28.8074L5.29608 32.0077L2.09576 35.208C0.753104 36.5563 -0.000499621 38.3817 2.48516e-07 40.2844C0.000500118 42.1872 0.755063 44.0122 2.09842 45.3597ZM15.4611 25.6057L21.8618 32.0064L15.4611 38.407L9.06046 31.9984L15.4611 25.6057ZM32.0161 25.6057L38.4168 32.0064L32.0161 38.407L25.6168 31.9984L32.0161 25.6057ZM28.2517 56.8182C28.2541 57.4128 28.1382 58.0019 27.9109 58.5513C27.6836 59.1007 27.3493 59.5994 26.9276 60.0186C26.0673 60.8401 24.9235 61.2984 23.7339 61.2984C22.5444 61.2984 21.4006 60.8401 20.5403 60.0186C19.6949 59.1707 19.2202 58.0222 19.2202 56.8249C19.2202 55.6276 19.6949 54.4791 20.5403 53.6312L23.7406 50.4309L26.9329 53.6312C27.3521 54.0492 27.6844 54.546 27.9108 55.093C28.1371 55.6399 28.253 56.2263 28.2517 56.8182ZM23.7353 46.6665L17.3466 40.2792L23.7353 33.8919L30.1226 40.2792L23.7353 46.6665ZM44.8041 40.2792C44.8064 40.8738 44.6905 41.4629 44.4632 42.0123C44.2359 42.5617 43.9017 43.0604 43.4799 43.4796C42.6195 44.3007 41.4757 44.7589 40.2863 44.7589C39.0968 44.7589 37.9531 44.3007 37.0926 43.4796L33.899 40.2792L40.2876 33.8919L43.4799 37.0856C43.901 37.5041 44.2348 38.002 44.4621 38.5504C44.6894 39.0988 44.8056 39.6869 44.8041 40.2806V40.2792ZM37.0926 20.5306C37.9529 19.7091 39.0967 19.2507 40.2863 19.2507C41.4758 19.2507 42.6196 19.7091 43.4799 20.5306C43.8997 20.9498 44.2326 21.4476 44.4598 21.9956C44.687 22.5436 44.8039 23.131 44.8039 23.7242C44.8039 24.3174 44.687 24.9048 44.4598 25.4528C44.2326 26.0008 43.8997 26.4987 43.4799 26.9179L40.2876 30.1115L33.899 23.7309L37.0926 20.5306ZM20.5403 3.98489C21.3873 3.13788 22.5361 2.66204 23.7339 2.66204C24.3271 2.66204 24.9144 2.77886 25.4623 3.00584C26.0103 3.23281 26.5082 3.5655 26.9276 3.98489C27.347 4.40429 27.6797 4.90219 27.9067 5.45016C28.1336 5.99812 28.2505 6.58543 28.2505 7.17855C28.2505 7.77167 28.1336 8.35898 27.9067 8.90694C27.6797 9.45491 27.347 9.95281 26.9276 10.3722L23.7353 13.5659L20.535 10.3722C19.6903 9.52363 19.2165 8.37477 19.2175 7.17745C19.2185 5.98013 19.6942 4.83206 20.5403 3.98489ZM23.7406 17.3369L30.1293 23.7309L23.7419 30.1182L17.3466 23.7309L23.7406 17.3369ZM3.98395 20.5306C4.40334 20.1112 4.90124 19.7785 5.4492 19.5515C5.99717 19.3245 6.58448 19.2077 7.1776 19.2077C7.77072 19.2077 8.35803 19.3245 8.906 19.5515C9.45397 19.7785 9.95187 20.1112 10.3713 20.5306L13.5716 23.7242L7.18427 30.1115L3.98395 26.9179C3.13855 26.07 2.66382 24.9215 2.66382 23.7242C2.66382 22.5269 3.13855 21.3784 3.98395 20.5306ZM3.98395 37.0856L7.18427 33.8919L13.5716 40.2792L10.3713 43.4796C9.51078 44.3007 8.36705 44.7589 7.1776 44.7589C5.98816 44.7589 4.84442 44.3007 3.98395 43.4796C3.13692 42.6315 2.66116 41.4818 2.66116 40.2832C2.66116 39.0846 3.13692 37.9337 3.98395 37.0856Z" fill="#FAF5EE"/>
</svg>
