<svg width="135" height="141" viewBox="0 0 135 141" fill="none" xmlns="http://www.w3.org/2000/svg">
<path d="M87.4033 8.79395L86.29 9.39844L85.9619 8.17383C85.8215 7.64951 85.3419 6.31901 84.2344 5.3291C83.1912 4.3968 81.4693 3.65321 78.5537 4.43457C74.1962 5.60286 70.1419 3.37292 67.5 1.28906C64.8581 3.373 60.8038 5.60287 56.4463 4.43457C53.5303 3.6531 51.8079 4.39663 50.7646 5.3291C49.6573 6.31893 49.1777 7.64925 49.0371 8.17383L48.709 9.39844L47.5957 8.79395V8.79492L47.5928 8.79297C47.5866 8.78978 47.5748 8.7844 47.5586 8.77637C47.5256 8.76004 47.4726 8.7343 47.4023 8.70312C47.2611 8.64041 47.0517 8.55517 46.7939 8.47266C46.2704 8.30512 45.5851 8.1606 44.873 8.2041C44.1754 8.24677 43.4587 8.46795 42.8105 9.03125C42.1556 9.60045 41.4937 10.5869 41.0361 12.2949L40.7412 13.3955L39.6895 12.9609L39.6885 12.96H39.6875C39.6843 12.9587 39.6784 12.9564 39.6699 12.9531C39.6517 12.9461 39.621 12.9347 39.5801 12.9199C39.4982 12.8904 39.3736 12.8471 39.2129 12.7988C38.8897 12.7017 38.4272 12.5843 37.8818 12.5059C36.8007 12.3503 35.4735 12.3603 34.252 12.9004C33.1743 13.6884 32.5026 14.8327 32.0967 15.8467C31.8919 16.3584 31.7622 16.8179 31.6846 17.1465C31.646 17.31 31.6208 17.4397 31.6055 17.5254C31.5978 17.568 31.5928 17.5998 31.5898 17.6191C31.5884 17.6286 31.5874 17.6353 31.5869 17.6387L31.4365 18.7686L30.3369 18.4736C28.6295 18.016 27.4442 18.0962 26.624 18.3789C25.8125 18.6587 25.2628 19.169 24.877 19.752C24.4831 20.3472 24.2652 21.0134 24.1484 21.5508C24.0909 21.8156 24.0603 22.0396 24.0439 22.1934C24.0358 22.27 24.0307 22.3285 24.0283 22.3652C24.0272 22.3835 24.0267 22.3965 24.0264 22.4033V22.4062C24.0264 22.4062 24.0266 22.4054 24.0254 22.4053L23.9922 23.6719L22.7676 23.3438C22.2432 23.2032 20.8518 22.9537 19.4414 23.418C18.1126 23.8554 16.6075 24.9756 15.8262 27.8926C14.6587 32.251 10.701 34.648 7.5752 35.8945C8.0586 39.2251 7.96227 43.8514 4.77246 47.042C2.63782 49.1772 2.42133 51.0411 2.70703 52.4111C3.01034 53.8655 3.92201 54.9464 4.30566 55.3301L5.20117 56.2256L4.12207 56.8896L4.12012 56.8906C4.11435 56.8943 4.10316 56.901 4.08789 56.9111C4.05734 56.9315 4.00924 56.9646 3.94727 57.0098C3.82232 57.1008 3.64386 57.2397 3.44336 57.4219C3.03653 57.7916 2.56849 58.3125 2.25 58.9512C1.93801 59.577 1.77087 60.309 1.93457 61.1523C2.09996 62.0043 2.62298 63.071 3.87305 64.3213L4.67871 65.127L3.77734 65.8193V65.8203H3.77637L3.77539 65.8213C3.77276 65.8234 3.76726 65.827 3.75977 65.833C3.74455 65.8452 3.71971 65.8656 3.68652 65.8936C3.62001 65.9497 3.52078 66.0371 3.39844 66.1523C3.15274 66.3838 2.81914 66.7259 2.47852 67.1592C1.80353 68.0178 1.14911 69.1722 1.00586 70.5C1.1491 71.8278 1.80347 72.9822 2.47852 73.8408C2.81914 74.274 3.15274 74.6162 3.39844 74.8477C3.52058 74.9627 3.62004 75.0494 3.68652 75.1055C3.71956 75.1333 3.74451 75.1538 3.75977 75.166C3.76738 75.1721 3.77279 75.1767 3.77539 75.1787L4.67871 75.873L3.87305 76.6787C2.62309 77.929 2.09995 78.9957 1.93457 79.8477C1.77093 80.6908 1.93811 81.4222 2.25 82.0479C2.56848 82.6866 3.03646 83.2084 3.44336 83.5781C3.6435 83.76 3.82141 83.8983 3.94629 83.9893C4.00856 84.0346 4.05729 84.0685 4.08789 84.0889C4.10316 84.099 4.11435 84.1057 4.12012 84.1094C4.12289 84.1111 4.1247 84.1121 4.125 84.1123H4.12402L5.20117 84.7734L4.30566 85.6699C3.9217 86.0542 3.01029 87.1347 2.70703 88.5889C2.42131 89.959 2.63783 91.8228 4.77246 93.958C7.96193 97.1482 8.05848 101.774 7.5752 105.104C10.701 106.351 14.6586 108.749 15.8262 113.107C16.6075 116.024 18.1125 117.145 19.4414 117.582C20.8518 118.046 22.2432 117.797 22.7676 117.656L23.9922 117.328L24.0264 118.591C24.0264 118.591 24.0262 118.593 24.0264 118.597C24.0267 118.604 24.0272 118.617 24.0283 118.635C24.0307 118.671 24.0358 118.73 24.0439 118.807C24.0603 118.96 24.0909 119.184 24.1484 119.449C24.2652 119.987 24.4831 120.653 24.877 121.248C25.2628 121.831 25.8125 122.341 26.624 122.621C27.4442 122.904 28.6295 122.984 30.3369 122.526L31.4365 122.231L31.5869 123.361C31.5874 123.365 31.5884 123.371 31.5898 123.381C31.5928 123.4 31.5978 123.432 31.6055 123.475C31.6208 123.56 31.646 123.69 31.6846 123.854C31.7622 124.182 31.8919 124.642 32.0967 125.153C32.5028 126.168 33.1761 127.312 34.2549 128.1C35.4757 128.639 36.8015 128.65 37.8818 128.494C38.4272 128.416 38.8896 128.298 39.2129 128.201C39.3736 128.153 39.4982 128.11 39.5801 128.08C39.621 128.065 39.6517 128.054 39.6699 128.047L39.6875 128.04L39.6885 128.039L40.7412 127.604L41.0361 128.705C41.4937 130.413 42.1556 131.4 42.8105 131.969C43.4587 132.532 44.1754 132.753 44.873 132.796C45.5851 132.839 46.2704 132.695 46.7939 132.527C47.0517 132.445 47.2611 132.36 47.4023 132.297C47.4726 132.266 47.5256 132.24 47.5586 132.224C47.5748 132.216 47.5866 132.21 47.5928 132.207L47.5957 132.205L48.709 131.602L49.0371 132.826C49.1777 133.351 49.6575 134.68 50.7646 135.67C51.8079 136.602 53.5303 137.347 56.4463 136.565C60.8034 135.398 64.858 137.626 67.5 139.71C70.142 137.626 74.1966 135.398 78.5537 136.565C81.4696 137.347 83.1922 136.602 84.2354 135.67C85.3425 134.68 85.8216 133.35 85.9619 132.826L86.29 131.602L87.4014 132.204H87.4023L87.4053 132.206H87.4043L87.4062 132.207C87.4123 132.21 87.4241 132.216 87.4404 132.224C87.4734 132.24 87.5263 132.266 87.5967 132.297C87.738 132.36 87.947 132.445 88.2051 132.527C88.7286 132.695 89.4138 132.839 90.126 132.796C90.8236 132.753 91.5403 132.532 92.1885 131.969C92.8434 131.4 93.5063 130.413 93.9639 128.705L94.2588 127.604L95.3096 128.039L95.3115 128.04C95.3147 128.041 95.3212 128.043 95.3301 128.047C95.3483 128.054 95.3782 128.065 95.4189 128.08C95.5008 128.11 95.6261 128.153 95.7871 128.201C96.1104 128.298 96.5729 128.416 97.1182 128.494C98.1984 128.649 99.5237 128.639 100.744 128.1C101.823 127.312 102.497 126.168 102.903 125.153C103.108 124.642 103.238 124.182 103.315 123.854C103.354 123.69 103.379 123.56 103.395 123.475C103.402 123.432 103.407 123.4 103.41 123.381C103.412 123.371 103.413 123.365 103.413 123.361L103.562 122.231L104.663 122.526C106.371 122.984 107.556 122.904 108.376 122.621C109.188 122.341 109.737 121.831 110.123 121.248C110.517 120.653 110.735 119.987 110.852 119.449C110.909 119.184 110.94 118.96 110.956 118.807C110.964 118.73 110.968 118.671 110.971 118.635C110.972 118.616 110.973 118.604 110.974 118.597C110.974 118.593 110.974 118.591 110.974 118.591L111.008 117.327L112.232 117.656C112.757 117.797 114.148 118.046 115.559 117.582C116.888 117.144 118.393 116.024 119.174 113.107C120.341 108.749 124.298 106.351 127.423 105.104C126.94 101.774 127.038 97.1481 130.228 93.958C132.362 91.8228 132.579 89.9589 132.293 88.5889C131.99 87.135 131.078 86.0544 130.694 85.6699L129.799 84.7734L130.878 84.1104L130.88 84.1094C130.886 84.1057 130.896 84.0988 130.911 84.0889C130.942 84.0685 130.99 84.0346 131.053 83.9893C131.178 83.8982 131.356 83.7602 131.557 83.5781C131.964 83.2084 132.431 82.6867 132.75 82.0479C133.062 81.4222 133.229 80.6907 133.065 79.8477C132.9 78.9956 132.377 77.9281 131.127 76.6777L130.321 75.873L131.225 75.1787L131.24 75.166C131.255 75.1537 131.28 75.1333 131.313 75.1055C131.38 75.0494 131.479 74.9627 131.602 74.8477C131.847 74.6162 132.181 74.274 132.521 73.8408C133.197 72.9822 133.85 71.8277 133.993 70.5C133.85 69.1722 133.196 68.0178 132.521 67.1592C132.181 66.7259 131.847 66.3838 131.602 66.1523C131.479 66.0371 131.38 65.9497 131.313 65.8936C131.28 65.8656 131.255 65.8452 131.24 65.833C131.233 65.827 131.227 65.8234 131.225 65.8213L131.224 65.8203L131.223 65.8193L130.321 65.127L131.127 64.3213C132.377 63.071 132.9 62.0043 133.065 61.1523C133.229 60.3093 133.062 59.5778 132.75 58.9521C132.432 58.3134 131.964 57.7917 131.557 57.4219C131.356 57.2396 131.178 57.1008 131.053 57.0098C130.991 56.9644 130.942 56.9315 130.911 56.9111C130.896 56.9012 130.886 56.8943 130.88 56.8906L130.878 56.8896L129.798 56.2256L130.694 55.3301C131.078 54.9462 131.99 53.8654 132.293 52.4111C132.579 51.0411 132.362 49.1772 130.228 47.042C127.038 43.8515 126.939 39.2252 127.423 35.8945C124.298 34.6479 120.341 32.2504 119.174 27.8926C118.393 24.9758 116.887 23.8555 115.559 23.418C114.148 22.9537 112.757 23.2032 112.232 23.3438L111.008 23.6719L110.974 22.4092V22.4033C110.973 22.3965 110.972 22.3835 110.971 22.3652C110.968 22.3285 110.964 22.27 110.956 22.1934C110.94 22.0396 110.909 21.8156 110.852 21.5508C110.735 21.0134 110.517 20.3472 110.123 19.752C109.737 19.169 109.188 18.6587 108.376 18.3789C107.556 18.0962 106.371 18.016 104.663 18.4736L103.562 18.7686L103.413 17.6387C103.413 17.6353 103.412 17.6286 103.41 17.6191C103.407 17.5998 103.402 17.568 103.395 17.5254C103.379 17.4397 103.354 17.31 103.315 17.1465C103.238 16.8179 103.108 16.3583 102.903 15.8467C102.497 14.8327 101.825 13.6884 100.747 12.9004C99.526 12.3605 98.1992 12.3504 97.1182 12.5059C96.5729 12.5843 96.1104 12.7017 95.7871 12.7988C95.626 12.8472 95.5008 12.8903 95.4189 12.9199C95.3782 12.9346 95.3483 12.946 95.3301 12.9531C95.3212 12.9566 95.3147 12.9587 95.3115 12.96H95.3096L94.2588 13.3955L93.9639 12.2949C93.5063 10.5868 92.8434 9.60046 92.1885 9.03125C91.5403 8.46802 90.8236 8.24672 90.126 8.2041C89.4138 8.16061 88.7286 8.30508 88.2051 8.47266C87.947 8.55525 87.738 8.6404 87.5967 8.70312C87.5263 8.73438 87.4734 8.76004 87.4404 8.77637C87.4241 8.78448 87.4123 8.78982 87.4062 8.79297C87.4052 8.79353 87.404 8.79356 87.4033 8.79395ZM87.4033 8.79395L87.4043 8.79492H87.4033L87.4023 8.7959H87.4014C87.4016 8.79579 87.402 8.79462 87.4033 8.79395Z" fill="#7E0105" style="mix-blend-mode:multiply"/>
<path d="M87.4033 8.79395L86.29 9.39844L85.9619 8.17383C85.8215 7.64951 85.3419 6.31901 84.2344 5.3291C83.1912 4.3968 81.4693 3.65321 78.5537 4.43457C74.1962 5.60286 70.1419 3.37292 67.5 1.28906C64.8581 3.373 60.8038 5.60287 56.4463 4.43457C53.5303 3.6531 51.8079 4.39663 50.7646 5.3291C49.6573 6.31893 49.1777 7.64925 49.0371 8.17383L48.709 9.39844L47.5957 8.79395V8.79492L47.5928 8.79297C47.5866 8.78978 47.5748 8.7844 47.5586 8.77637C47.5256 8.76004 47.4726 8.7343 47.4023 8.70312C47.2611 8.64041 47.0517 8.55517 46.7939 8.47266C46.2704 8.30512 45.5851 8.1606 44.873 8.2041C44.1754 8.24677 43.4587 8.46795 42.8105 9.03125C42.1556 9.60045 41.4937 10.5869 41.0361 12.2949L40.7412 13.3955L39.6895 12.9609L39.6885 12.96H39.6875C39.6843 12.9587 39.6784 12.9564 39.6699 12.9531C39.6517 12.9461 39.621 12.9347 39.5801 12.9199C39.4982 12.8904 39.3736 12.8471 39.2129 12.7988C38.8897 12.7017 38.4272 12.5843 37.8818 12.5059C36.8007 12.3503 35.4735 12.3603 34.252 12.9004C33.1743 13.6884 32.5026 14.8327 32.0967 15.8467C31.8919 16.3584 31.7622 16.8179 31.6846 17.1465C31.646 17.31 31.6208 17.4397 31.6055 17.5254C31.5978 17.568 31.5928 17.5998 31.5898 17.6191C31.5884 17.6286 31.5874 17.6353 31.5869 17.6387L31.4365 18.7686L30.3369 18.4736C28.6295 18.016 27.4442 18.0962 26.624 18.3789C25.8125 18.6587 25.2628 19.169 24.877 19.752C24.4831 20.3472 24.2652 21.0134 24.1484 21.5508C24.0909 21.8156 24.0603 22.0396 24.0439 22.1934C24.0358 22.27 24.0307 22.3285 24.0283 22.3652C24.0272 22.3835 24.0267 22.3965 24.0264 22.4033V22.4062C24.0264 22.4062 24.0266 22.4054 24.0254 22.4053L23.9922 23.6719L22.7676 23.3438C22.2432 23.2032 20.8518 22.9537 19.4414 23.418C18.1126 23.8554 16.6075 24.9756 15.8262 27.8926C14.6587 32.251 10.701 34.648 7.5752 35.8945C8.0586 39.2251 7.96227 43.8514 4.77246 47.042C2.63782 49.1772 2.42133 51.0411 2.70703 52.4111C3.01034 53.8655 3.92201 54.9464 4.30566 55.3301L5.20117 56.2256L4.12207 56.8896L4.12012 56.8906C4.11435 56.8943 4.10316 56.901 4.08789 56.9111C4.05734 56.9315 4.00924 56.9646 3.94727 57.0098C3.82232 57.1008 3.64386 57.2397 3.44336 57.4219C3.03653 57.7916 2.56849 58.3125 2.25 58.9512C1.93801 59.577 1.77087 60.309 1.93457 61.1523C2.09996 62.0043 2.62298 63.071 3.87305 64.3213L4.67871 65.127L3.77734 65.8193V65.8203H3.77637L3.77539 65.8213C3.77276 65.8234 3.76726 65.827 3.75977 65.833C3.74455 65.8452 3.71971 65.8656 3.68652 65.8936C3.62001 65.9497 3.52078 66.0371 3.39844 66.1523C3.15274 66.3838 2.81914 66.7259 2.47852 67.1592C1.80353 68.0178 1.14911 69.1722 1.00586 70.5C1.1491 71.8278 1.80347 72.9822 2.47852 73.8408C2.81914 74.274 3.15274 74.6162 3.39844 74.8477C3.52058 74.9627 3.62004 75.0494 3.68652 75.1055C3.71956 75.1333 3.74451 75.1538 3.75977 75.166C3.76738 75.1721 3.77279 75.1767 3.77539 75.1787L4.67871 75.873L3.87305 76.6787C2.62309 77.929 2.09995 78.9957 1.93457 79.8477C1.77093 80.6908 1.93811 81.4222 2.25 82.0479C2.56848 82.6866 3.03646 83.2084 3.44336 83.5781C3.6435 83.76 3.82141 83.8983 3.94629 83.9893C4.00856 84.0346 4.05729 84.0685 4.08789 84.0889C4.10316 84.099 4.11435 84.1057 4.12012 84.1094C4.12289 84.1111 4.1247 84.1121 4.125 84.1123H4.12402L5.20117 84.7734L4.30566 85.6699C3.9217 86.0542 3.01029 87.1347 2.70703 88.5889C2.42131 89.959 2.63783 91.8228 4.77246 93.958C7.96193 97.1482 8.05848 101.774 7.5752 105.104C10.701 106.351 14.6586 108.749 15.8262 113.107C16.6075 116.024 18.1125 117.145 19.4414 117.582C20.8518 118.046 22.2432 117.797 22.7676 117.656L23.9922 117.328L24.0264 118.591C24.0264 118.591 24.0262 118.593 24.0264 118.597C24.0267 118.604 24.0272 118.617 24.0283 118.635C24.0307 118.671 24.0358 118.73 24.0439 118.807C24.0603 118.96 24.0909 119.184 24.1484 119.449C24.2652 119.987 24.4831 120.653 24.877 121.248C25.2628 121.831 25.8125 122.341 26.624 122.621C27.4442 122.904 28.6295 122.984 30.3369 122.526L31.4365 122.231L31.5869 123.361C31.5874 123.365 31.5884 123.371 31.5898 123.381C31.5928 123.4 31.5978 123.432 31.6055 123.475C31.6208 123.56 31.646 123.69 31.6846 123.854C31.7622 124.182 31.8919 124.642 32.0967 125.153C32.5028 126.168 33.1761 127.312 34.2549 128.1C35.4757 128.639 36.8015 128.65 37.8818 128.494C38.4272 128.416 38.8896 128.298 39.2129 128.201C39.3736 128.153 39.4982 128.11 39.5801 128.08C39.621 128.065 39.6517 128.054 39.6699 128.047L39.6875 128.04L39.6885 128.039L40.7412 127.604L41.0361 128.705C41.4937 130.413 42.1556 131.4 42.8105 131.969C43.4587 132.532 44.1754 132.753 44.873 132.796C45.5851 132.839 46.2704 132.695 46.7939 132.527C47.0517 132.445 47.2611 132.36 47.4023 132.297C47.4726 132.266 47.5256 132.24 47.5586 132.224C47.5748 132.216 47.5866 132.21 47.5928 132.207L47.5957 132.205L48.709 131.602L49.0371 132.826C49.1777 133.351 49.6575 134.68 50.7646 135.67C51.8079 136.602 53.5303 137.347 56.4463 136.565C60.8034 135.398 64.858 137.626 67.5 139.71C70.142 137.626 74.1966 135.398 78.5537 136.565C81.4696 137.347 83.1922 136.602 84.2354 135.67C85.3425 134.68 85.8216 133.35 85.9619 132.826L86.29 131.602L87.4014 132.204H87.4023L87.4053 132.206H87.4043L87.4062 132.207C87.4123 132.21 87.4241 132.216 87.4404 132.224C87.4734 132.24 87.5263 132.266 87.5967 132.297C87.738 132.36 87.947 132.445 88.2051 132.527C88.7286 132.695 89.4138 132.839 90.126 132.796C90.8236 132.753 91.5403 132.532 92.1885 131.969C92.8434 131.4 93.5063 130.413 93.9639 128.705L94.2588 127.604L95.3096 128.039L95.3115 128.04C95.3147 128.041 95.3212 128.043 95.3301 128.047C95.3483 128.054 95.3782 128.065 95.4189 128.08C95.5008 128.11 95.6261 128.153 95.7871 128.201C96.1104 128.298 96.5729 128.416 97.1182 128.494C98.1984 128.649 99.5237 128.639 100.744 128.1C101.823 127.312 102.497 126.168 102.903 125.153C103.108 124.642 103.238 124.182 103.315 123.854C103.354 123.69 103.379 123.56 103.395 123.475C103.402 123.432 103.407 123.4 103.41 123.381C103.412 123.371 103.413 123.365 103.413 123.361L103.562 122.231L104.663 122.526C106.371 122.984 107.556 122.904 108.376 122.621C109.188 122.341 109.737 121.831 110.123 121.248C110.517 120.653 110.735 119.987 110.852 119.449C110.909 119.184 110.94 118.96 110.956 118.807C110.964 118.73 110.968 118.671 110.971 118.635C110.972 118.616 110.973 118.604 110.974 118.597C110.974 118.593 110.974 118.591 110.974 118.591L111.008 117.327L112.232 117.656C112.757 117.797 114.148 118.046 115.559 117.582C116.888 117.144 118.393 116.024 119.174 113.107C120.341 108.749 124.298 106.351 127.423 105.104C126.94 101.774 127.038 97.1481 130.228 93.958C132.362 91.8228 132.579 89.9589 132.293 88.5889C131.99 87.135 131.078 86.0544 130.694 85.6699L129.799 84.7734L130.878 84.1104L130.88 84.1094C130.886 84.1057 130.896 84.0988 130.911 84.0889C130.942 84.0685 130.99 84.0346 131.053 83.9893C131.178 83.8982 131.356 83.7602 131.557 83.5781C131.964 83.2084 132.431 82.6867 132.75 82.0479C133.062 81.4222 133.229 80.6907 133.065 79.8477C132.9 78.9956 132.377 77.9281 131.127 76.6777L130.321 75.873L131.225 75.1787L131.24 75.166C131.255 75.1537 131.28 75.1333 131.313 75.1055C131.38 75.0494 131.479 74.9627 131.602 74.8477C131.847 74.6162 132.181 74.274 132.521 73.8408C133.197 72.9822 133.85 71.8277 133.993 70.5C133.85 69.1722 133.196 68.0178 132.521 67.1592C132.181 66.7259 131.847 66.3838 131.602 66.1523C131.479 66.0371 131.38 65.9497 131.313 65.8936C131.28 65.8656 131.255 65.8452 131.24 65.833C131.233 65.827 131.227 65.8234 131.225 65.8213L131.224 65.8203L131.223 65.8193L130.321 65.127L131.127 64.3213C132.377 63.071 132.9 62.0043 133.065 61.1523C133.229 60.3093 133.062 59.5778 132.75 58.9521C132.432 58.3134 131.964 57.7917 131.557 57.4219C131.356 57.2396 131.178 57.1008 131.053 57.0098C130.991 56.9644 130.942 56.9315 130.911 56.9111C130.896 56.9012 130.886 56.8943 130.88 56.8906L130.878 56.8896L129.798 56.2256L130.694 55.3301C131.078 54.9462 131.99 53.8654 132.293 52.4111C132.579 51.0411 132.362 49.1772 130.228 47.042C127.038 43.8515 126.939 39.2252 127.423 35.8945C124.298 34.6479 120.341 32.2504 119.174 27.8926C118.393 24.9758 116.887 23.8555 115.559 23.418C114.148 22.9537 112.757 23.2032 112.232 23.3438L111.008 23.6719L110.974 22.4092V22.4033C110.973 22.3965 110.972 22.3835 110.971 22.3652C110.968 22.3285 110.964 22.27 110.956 22.1934C110.94 22.0396 110.909 21.8156 110.852 21.5508C110.735 21.0134 110.517 20.3472 110.123 19.752C109.737 19.169 109.188 18.6587 108.376 18.3789C107.556 18.0962 106.371 18.016 104.663 18.4736L103.562 18.7686L103.413 17.6387C103.413 17.6353 103.412 17.6286 103.41 17.6191C103.407 17.5998 103.402 17.568 103.395 17.5254C103.379 17.4397 103.354 17.31 103.315 17.1465C103.238 16.8179 103.108 16.3583 102.903 15.8467C102.497 14.8327 101.825 13.6884 100.747 12.9004C99.526 12.3605 98.1992 12.3504 97.1182 12.5059C96.5729 12.5843 96.1104 12.7017 95.7871 12.7988C95.626 12.8472 95.5008 12.8903 95.4189 12.9199C95.3782 12.9346 95.3483 12.946 95.3301 12.9531C95.3212 12.9566 95.3147 12.9587 95.3115 12.96H95.3096L94.2588 13.3955L93.9639 12.2949C93.5063 10.5868 92.8434 9.60046 92.1885 9.03125C91.5403 8.46802 90.8236 8.24672 90.126 8.2041C89.4138 8.16061 88.7286 8.30508 88.2051 8.47266C87.947 8.55525 87.738 8.6404 87.5967 8.70312C87.5263 8.73438 87.4734 8.76004 87.4404 8.77637C87.4241 8.78448 87.4123 8.78982 87.4062 8.79297C87.4052 8.79353 87.404 8.79356 87.4033 8.79395ZM87.4033 8.79395L87.4043 8.79492H87.4033L87.4023 8.7959H87.4014C87.4016 8.79579 87.402 8.79462 87.4033 8.79395Z" stroke="#FEBF10" stroke-width="2"/>
</svg>
