<svg width="36" height="48" viewBox="0 0 36 48" fill="none" xmlns="http://www.w3.org/2000/svg">
<path d="M3.02695 8.51074C3.31357 8.51074 3.57414 8.40651 3.76961 8.21104C3.91296 8.06768 7.33937 4.70637 12.4857 3.03874C19.3517 0.797858 25.8529 2.53059 31.7809 8.15893C32.1978 8.56285 32.8623 8.53679 33.2661 8.1198C33.4616 7.91134 33.5658 7.65078 33.5527 7.37714C33.5397 7.1035 33.4355 6.84293 33.227 6.64755C29.6312 3.2471 25.7878 1.12343 21.7749 0.341733C18.5569 -0.283628 15.2346 -0.0491178 11.8994 1.03228C6.23192 2.86932 2.4537 6.58245 2.29736 6.73879C2.10189 6.93426 1.98468 7.19483 1.98468 7.48145C1.98468 7.76807 2.08891 8.02864 2.28438 8.22411C2.47967 8.39344 2.74032 8.51074 3.02695 8.51074Z" fill="#407D69"/>
<path d="M35.6763 22.1645C34.608 15.2854 31.898 10.3476 27.6116 7.50744C21.384 3.37741 14.023 5.16234 13.7233 5.24051C13.163 5.37079 12.8113 5.94404 12.9545 6.5043C13.0848 7.06457 13.6581 7.41629 14.2183 7.27302C14.492 7.20783 20.928 5.64443 26.4 9.2664C30.2173 11.7939 32.6537 16.2366 33.6177 22.4773C33.6569 22.751 33.8132 22.9985 34.0347 23.1679C34.2171 23.2982 34.4255 23.3763 34.647 23.3763C34.6991 23.3763 34.7513 23.3763 34.8034 23.3633C35.3636 23.2719 35.7675 22.7377 35.6763 22.1645ZM2.1019 22.1776C3.03994 11.2076 10.3229 8.67999 10.6356 8.57577C10.8962 8.48452 11.1177 8.30213 11.2349 8.05463C11.3652 7.80705 11.3782 7.52043 11.287 7.25986C11.1046 6.71267 10.5053 6.41297 9.95812 6.59537C9.59332 6.71267 1.05963 9.67006 0.00437764 22.0081C-0.021679 22.2818 0.0695636 22.5553 0.25196 22.7769C0.434357 22.9853 0.68194 23.1156 0.968563 23.1417H1.05981C1.30739 23.1417 1.5419 23.0504 1.73728 22.8941C1.94556 22.7117 2.07584 22.4511 2.1019 22.1776Z" fill="#407D69"/>
<path d="M6.46643 22.0995C6.80517 19.4287 7.88656 16.8751 9.52813 14.8948C10.7007 13.4877 12.1469 12.3934 13.7103 11.7159C15.3779 10.9993 17.1628 10.7518 19.0128 10.9732C21.5925 11.299 24.1722 12.5236 26.7126 14.6342C27.1556 14.999 27.8201 14.9469 28.1849 14.5039C28.3673 14.2955 28.4455 14.0219 28.4194 13.7352C28.3933 13.4486 28.2631 13.201 28.0415 13.0317C25.1883 10.6605 22.2439 9.26646 19.2603 8.90166C17.0455 8.62802 14.8958 8.92772 12.8764 9.80066C11.0133 10.6084 9.29354 11.9113 7.91253 13.5659C6.01039 15.8459 4.75967 18.7903 4.38181 21.852C4.10817 24.0278 3.76943 25.8778 3.3656 27.337C2.84446 29.2262 2.23209 30.4769 1.56769 31.0371C1.35923 31.2195 1.21588 31.467 1.18982 31.7537C1.16376 32.0273 1.25501 32.3009 1.42433 32.5224C1.52332 32.6404 1.6469 32.7354 1.78642 32.8007C1.92595 32.8659 2.07805 32.8999 2.23209 32.9003C2.4666 32.9003 2.71418 32.8221 2.90956 32.6527C3.91279 31.8189 4.7466 30.2163 5.38495 27.8973C5.81501 26.3207 6.17981 24.3665 6.46643 22.0995Z" fill="#407D69"/>
<path d="M27.5074 25.93V25.9171C27.4032 24.9659 27.299 23.9758 27.2077 23.129C27.1787 22.8769 27.1483 22.6251 27.1165 22.3733C26.8299 19.7546 26.5432 17.2661 24.2632 15.2337C22.9865 14.0872 21.3058 13.3055 19.5339 13.0058C18.0747 12.7713 16.5764 12.8625 15.2215 13.3055C13.7102 13.7876 12.3943 14.6475 11.2999 15.8591C9.85372 17.4746 8.88962 19.6373 8.44666 22.3082C8.43359 22.3603 8.43359 22.4124 8.4206 22.4515V22.4906C8.19908 24.9921 7.50862 28.3274 6.62269 31.1807C5.80186 33.8124 4.95507 35.6365 4.30365 36.1837C4.0952 36.3661 3.95184 36.6136 3.92578 36.9003C3.89973 37.1739 3.99097 37.4475 4.16029 37.669C4.34269 37.8774 4.59027 38.0208 4.8769 38.0469C5.15053 38.0729 5.42409 37.9818 5.64561 37.8123C6.96152 36.718 8.08195 33.5911 8.62914 31.8192C9.56718 28.8096 10.2838 25.3049 10.5183 22.6732C10.8962 20.4063 11.6908 18.5953 12.8634 17.2794C13.6972 16.3413 14.7004 15.6899 15.8599 15.3251C16.9153 14.9864 18.0617 14.9082 19.2082 15.1036C20.5892 15.3381 21.9051 15.9374 22.8822 16.8234C24.5629 18.3217 24.7974 20.4192 25.0449 22.6341C25.0841 22.9338 25.1101 23.2204 25.1362 23.4028C25.2535 24.419 25.3446 25.3049 25.4359 26.1648C25.9049 30.6857 26.4 35.3629 28.3934 39.7535C28.5628 40.1444 28.9536 40.3659 29.3445 40.3659C29.4878 40.3659 29.6311 40.3398 29.7744 40.2747C30.2956 40.0402 30.5301 39.4148 30.2956 38.8937C28.4325 34.7764 27.9635 30.2816 27.5074 25.93Z" fill="#407D69"/>
<path d="M23.0126 23.9624C23.2081 22.0343 22.8432 20.3535 21.9443 19.0898C21.3971 18.3081 20.6544 17.7087 19.7946 17.3569C18.9786 17.0208 18.0833 16.9258 17.2149 17.0833C16.0685 17.2918 15.0522 17.9432 14.3487 18.9073C13.9187 19.4936 13.541 20.2232 13.2283 21.07C12.9286 21.8908 12.668 22.8418 12.4596 23.9232C12.3032 24.7441 12.199 25.4736 12.1078 26.1641C11.9383 27.4279 11.7951 28.5353 11.2739 30.0336C10.7528 31.5319 10.0232 33.1735 9.08518 34.9453C7.86052 37.2644 6.70095 38.9581 6.23193 39.5444C5.86714 39.9873 5.93223 40.6518 6.37528 41.0166C6.59681 41.199 6.87036 41.2772 7.144 41.2511C7.41764 41.2251 7.67821 41.0948 7.84753 40.8733C8.49895 40.0785 9.77572 38.1242 10.9353 35.9355C11.9125 34.0984 12.6942 32.3396 13.2543 30.724C13.8407 29.0173 14.01 27.7666 14.1924 26.4506C14.2836 25.7992 14.3748 25.1217 14.5311 24.327C14.7135 23.3629 14.948 22.516 15.2086 21.8125C15.4562 21.135 15.7428 20.5747 16.0555 20.1578C16.4463 19.6236 16.9935 19.2719 17.6059 19.1677C18.0749 19.0764 18.557 19.1285 19.0129 19.324C19.495 19.5195 19.9249 19.8712 20.2376 20.3272C20.8369 21.1741 21.0714 22.3727 20.9282 23.7928C20.6676 26.3594 19.6383 30.0986 18.0228 34.3068C16.316 38.7756 14.1663 43.1922 12.9026 44.7947C12.5508 45.2508 12.629 45.9022 13.085 46.267C13.2805 46.4104 13.5019 46.4885 13.7234 46.4885C14.0361 46.4885 14.3488 46.3452 14.5443 46.0846C15.9383 44.2997 18.1662 39.7658 19.9641 35.0494C21.6577 30.633 22.726 26.7114 23.0126 23.9624ZM31.9762 26.516C31.7677 23.324 31.5462 20.0148 30.4388 17.5263C30.2043 17.0052 29.579 16.7576 29.0578 16.9921C28.5367 17.2267 28.2891 17.852 28.5236 18.3731C29.4747 20.5098 29.6832 23.6236 29.8786 26.6463C30.1001 29.9686 30.3086 33.1084 31.468 35.2321C31.5322 35.3549 31.6207 35.4634 31.7283 35.5507C31.8358 35.6381 31.96 35.7026 32.0934 35.7403C32.1976 35.7663 32.2889 35.7794 32.3931 35.7794C32.5625 35.7794 32.7318 35.7403 32.8882 35.6491C33.011 35.585 33.1194 35.4964 33.2068 35.3889C33.2942 35.2813 33.3587 35.1571 33.3963 35.0237C33.4745 34.7501 33.4484 34.4766 33.3051 34.229C32.367 32.5091 32.1846 29.6038 31.9762 26.516Z" fill="#407D69"/>
<path d="M18.8565 22.3596C18.8696 22.086 18.7783 21.8124 18.5829 21.604C18.4005 21.3955 18.1399 21.2782 17.8533 21.2653C17.28 21.2392 16.785 21.6822 16.7589 22.2554C16.5634 26.1509 15.7296 30.1116 14.3617 33.7205C13.0197 37.2772 11.1958 40.3519 8.96787 42.8535C8.59 43.2834 8.61606 43.9478 9.05911 44.3387C9.25458 44.5211 9.50207 44.5993 9.74965 44.5993C10.0363 44.5993 10.3229 44.482 10.5314 44.2475C12.9286 41.5505 14.8829 38.2543 16.329 34.463C17.7751 30.6458 18.6481 26.4636 18.8565 22.3596ZM24.8887 34.7367L24.7844 34.2155C24.7528 34.0296 24.6721 33.8556 24.5507 33.7113C24.4293 33.567 24.2716 33.4577 24.0939 33.3947C23.8333 33.3035 23.5467 33.3165 23.2861 33.4338C23.0386 33.5511 22.8432 33.7726 22.7519 34.0331L22.7129 34.1503C21.9833 36.2088 21.2667 38.2283 20.3678 40.2477C19.3646 42.5277 18.2702 44.5341 17.0325 46.3711C16.8762 46.6056 16.8241 46.8793 16.8762 47.1528C16.9283 47.4265 17.0847 47.661 17.3192 47.8173C17.5016 47.9346 17.697 47.9997 17.9055 47.9997C18.2442 47.9997 18.57 47.8434 18.7784 47.5437C20.0813 45.6155 21.2278 43.5048 22.2961 41.0946C22.7 40.1826 23.0908 39.2185 23.5078 38.1111C23.9638 39.8829 24.5892 41.7981 25.7878 43.9218C25.918 44.1694 26.1525 44.3387 26.4131 44.4169C26.6868 44.495 26.9603 44.456 27.2079 44.3256C27.4555 44.1823 27.6248 43.9608 27.703 43.7003C27.7811 43.4266 27.7421 43.1531 27.6117 42.9055C26.0222 40.0523 25.475 37.4727 24.8887 34.7367Z" fill="#407D69"/>
</svg>
