<svg width="68" height="60" viewBox="0 0 68 60" fill="none" xmlns="http://www.w3.org/2000/svg">
<path d="M40.5882 24.7055H26.4707C26.0027 24.7055 25.5539 24.5196 25.2229 24.1886C24.892 23.8577 24.7061 23.4088 24.7061 22.9408C24.7061 22.4728 24.892 22.024 25.2229 21.693C25.5539 21.3621 26.0027 21.1761 26.4707 21.1761H40.5882C41.0562 21.1761 41.5051 21.3621 41.836 21.693C42.1669 22.024 42.3529 22.4728 42.3529 22.9408C42.3529 23.4088 42.1669 23.8577 41.836 24.1886C41.5051 24.5196 41.0562 24.7055 40.5882 24.7055ZM40.5882 31.7642H26.4707C26.0027 31.7642 25.5539 31.5783 25.2229 31.2474C24.892 30.9164 24.7061 30.4676 24.7061 29.9995C24.7061 29.5315 24.892 29.0827 25.2229 28.7517C25.5539 28.4208 26.0027 28.2349 26.4707 28.2349H40.5882C41.0562 28.2349 41.5051 28.4208 41.836 28.7517C42.1669 29.0827 42.3529 29.5315 42.3529 29.9995C42.3529 30.4676 42.1669 30.9164 41.836 31.2474C41.5051 31.5783 41.0562 31.7642 40.5882 31.7642Z" fill="#FAF5EE"/>
<path d="M65.2932 59.9991H1.76468C1.29666 59.9991 0.847805 59.8132 0.516863 59.4823C0.185921 59.1513 0 58.7025 0 58.2344V29.9995C0 29.5315 0.185921 29.0827 0.516863 28.7517C0.847805 28.4208 1.29666 28.2349 1.76468 28.2349C2.2327 28.2349 2.68156 28.4208 3.0125 28.7517C3.34344 29.0827 3.52936 29.5315 3.52936 29.9995V56.4697H63.5285V22.9408C63.5285 22.4728 63.7144 22.024 64.0453 21.693C64.3763 21.3621 64.8251 21.1761 65.2932 21.1761C65.7612 21.1761 66.21 21.3621 66.541 21.693C66.8719 22.024 67.0578 22.4728 67.0578 22.9408V58.2344C67.0578 58.7025 66.8719 59.1513 66.541 59.4823C66.21 59.8132 65.7612 59.9991 65.2932 59.9991Z" fill="#FAF5EE"/>
<path d="M45.5996 36.1406C45.2857 36.145 44.9763 36.0656 44.7033 35.9105C44.4303 35.7554 44.2036 35.5302 44.0467 35.2583C43.9273 35.0599 43.8489 34.8396 43.8163 34.6104C43.7836 34.3812 43.7973 34.1477 43.8566 33.9239C43.9158 33.7001 44.0194 33.4904 44.1612 33.3074C44.303 33.1244 44.4801 32.9717 44.682 32.8583L64.4111 21.4232C64.8092 21.2433 65.2599 21.2174 65.6759 21.3507C66.092 21.4839 66.4439 21.7667 66.6634 22.1443C66.883 22.522 66.9547 22.9677 66.8646 23.3952C66.7745 23.8227 66.5291 24.2015 66.1758 24.4585L46.4819 35.8936C46.2169 36.0572 45.9111 36.1428 45.5996 36.1406ZM27.741 39.7759C27.429 39.782 27.1222 39.6961 26.8587 39.5288L0.882615 24.4585C0.610952 24.3102 0.385087 24.0904 0.229537 23.8229C0.0739879 23.5553 -0.00530184 23.2503 0.000275176 22.9408V19.4115C0.00309047 19.0948 0.0894151 18.7844 0.250533 18.5118C0.41165 18.2391 0.641857 18.0138 0.917909 17.8586L32.6822 0.211761C32.9428 0.0727265 33.2337 0 33.5292 0C33.8246 0 34.1156 0.0727265 34.3762 0.211761L63.1052 16.1645C63.5119 16.3943 63.8108 16.776 63.9365 17.2259C64.0622 17.6757 64.0044 18.1571 63.7758 18.5644C63.5453 18.9703 63.1662 19.2707 62.7185 19.4024C62.2707 19.5341 61.7893 19.4868 61.3758 19.2703L33.5292 3.77642L3.52964 20.435V21.9173L28.6234 36.4936C28.9546 36.6901 29.2125 36.9896 29.3576 37.3463C29.5028 37.703 29.5272 38.0975 29.4272 38.4694C29.3272 38.8414 29.1083 39.1704 28.8039 39.4063C28.4994 39.6421 28.1262 39.772 27.741 39.7759Z" fill="#FAF5EE"/>
<path d="M51.1764 32.8936C50.7084 32.8936 50.2596 32.7077 49.9286 32.3768C49.5977 32.0458 49.4118 31.597 49.4118 31.1289V17.6468H17.6475V31.1289C17.6475 31.597 17.4616 32.0458 17.1307 32.3768C16.7997 32.7077 16.3509 32.8936 15.8828 32.8936C15.4148 32.8936 14.966 32.7077 14.635 32.3768C14.3041 32.0458 14.1182 31.597 14.1182 31.1289V15.8821C14.1182 15.4141 14.3041 14.9652 14.635 14.6343C14.966 14.3034 15.4148 14.1174 15.8828 14.1174H51.1764C51.6445 14.1174 52.0933 14.3034 52.4243 14.6343C52.7552 14.9652 52.9411 15.4141 52.9411 15.8821V31.1289C52.9411 31.597 52.7552 32.0458 52.4243 32.3768C52.0933 32.7077 51.6445 32.8936 51.1764 32.8936Z" fill="#FAF5EE"/>
<path d="M65.2935 59.9991C64.8929 60.0124 64.5021 59.8737 64.1994 59.6109L32.4352 34.9054C32.1137 34.6019 31.9178 34.1888 31.8863 33.7478C31.8548 33.3069 31.99 32.8701 32.2651 32.524C32.5402 32.178 32.9352 31.9477 33.3719 31.8789C33.8086 31.8101 34.2552 31.9077 34.6234 32.1525L66.3876 56.858C66.7513 57.1492 66.985 57.5723 67.0379 58.0351C67.0908 58.4979 66.9585 58.9629 66.67 59.3286C66.5074 59.5385 66.2987 59.7082 66.06 59.8245C65.8213 59.9408 65.5591 60.0005 65.2935 59.9991Z" fill="#FAF5EE"/>
<path d="M1.76455 59.9991C1.49904 60.0005 1.23677 59.9408 0.998069 59.8245C0.759372 59.7082 0.550656 59.5385 0.388098 59.3286C0.0995582 58.9629 -0.0326845 58.4979 0.0202079 58.0351C0.0731003 57.5723 0.306838 57.1492 0.670448 56.858L32.4347 32.1525C32.6124 31.9847 32.823 31.8557 33.0531 31.7736C33.2833 31.6916 33.528 31.6582 33.7717 31.6756C34.0155 31.693 34.253 31.7608 34.4691 31.8748C34.6853 31.9888 34.8754 32.1464 35.0274 32.3377C35.1795 32.529 35.2902 32.7498 35.3524 32.9861C35.4147 33.2224 35.4272 33.469 35.3892 33.7104C35.3512 33.9518 35.2634 34.1826 35.1315 34.3883C34.9996 34.594 34.8264 34.7701 34.6229 34.9054L2.85865 59.6109C2.55601 59.8737 2.16517 60.0124 1.76455 59.9991Z" fill="#FAF5EE"/>
</svg>
