<svg width="43" height="60" viewBox="0 0 43 60" fill="none" xmlns="http://www.w3.org/2000/svg">
<path d="M21.0938 0C9.46266 0 0 9.46266 0 21.0938C0 25.0235 1.08856 28.8586 3.14871 32.1858L19.893 59.169C20.0507 59.4232 20.2707 59.6328 20.532 59.7783C20.7934 59.9237 21.0875 60 21.3866 60H21.4005C21.702 59.9977 21.9977 59.9178 22.2594 59.7682C22.5211 59.6185 22.7398 59.4041 22.8947 59.1455L39.2122 31.9008C41.1587 28.6439 42.1875 24.9069 42.1875 21.0938C42.1875 9.46266 32.7248 0 21.0938 0ZM36.1952 30.0959L21.36 54.8655L6.13676 30.3335C4.42195 27.5641 3.49219 24.3691 3.49219 21.0938C3.49219 11.4012 11.4012 3.49219 21.0938 3.49219C30.7863 3.49219 38.6836 11.4012 38.6836 21.0938C38.6836 24.272 37.8151 27.3853 36.1952 30.0959Z" fill="#FAF5EE"/>
<path d="M21.0938 10.5469C15.2782 10.5469 10.5469 15.2782 10.5469 21.0938C10.5469 26.8721 15.2012 31.6406 21.0938 31.6406C27.0589 31.6406 31.6406 26.8086 31.6406 21.0938C31.6406 15.2782 26.9093 10.5469 21.0938 10.5469ZM21.0938 28.1484C17.1964 28.1484 14.0391 24.9805 14.0391 21.0938C14.0391 17.2167 17.2167 14.0391 21.0938 14.0391C24.9708 14.0391 28.1367 17.2167 28.1367 21.0938C28.1367 24.9238 25.0528 28.1484 21.0938 28.1484Z" fill="#FAF5EE"/>
</svg>
