<svg width="60" height="60" viewBox="0 0 60 60" fill="none" xmlns="http://www.w3.org/2000/svg">
<path d="M47.3753 37.1679C46.1469 35.8889 44.6653 35.205 43.0951 35.205C41.5375 35.205 40.0432 35.8762 38.7642 37.1552L34.7625 41.1442C34.4333 40.9669 34.104 40.8023 33.7874 40.6376C33.3316 40.4097 32.901 40.1944 32.5338 39.9665C28.7854 37.5858 25.3789 34.4832 22.1118 30.4689C20.5289 28.4681 19.4651 26.7839 18.6927 25.0743C19.7311 24.1245 20.6935 23.1368 21.6306 22.187C21.9851 21.8325 22.3397 21.4652 22.6943 21.1106C25.3536 18.4513 25.3536 15.0069 22.6943 12.3476L19.2372 8.89045C18.8446 8.49789 18.4394 8.09266 18.0595 7.68743C17.2997 6.9023 16.5019 6.09184 15.6788 5.33203C14.4504 4.11635 12.9815 3.47051 11.4365 3.47051C9.89158 3.47051 8.3973 4.11635 7.13096 5.33203L7.10563 5.35736L2.80007 9.70091C1.17915 11.3218 0.254723 13.2973 0.0521081 15.5894C-0.251814 19.2871 0.83724 22.7316 1.67303 24.9857C3.7245 30.5196 6.78905 35.6483 11.3605 41.1442C16.9071 47.7671 23.5807 52.9971 31.2041 56.6822C34.1167 58.0625 38.0044 59.6961 42.3479 59.9747C42.6139 59.9873 42.8924 60 43.1457 60C46.071 60 48.5277 58.9489 50.4525 56.8595C50.4652 56.8341 50.4905 56.8215 50.5032 56.7962C51.1617 55.9984 51.9215 55.2765 52.7193 54.5041C53.2638 53.9849 53.821 53.4403 54.3655 52.8705C55.6192 51.5662 56.2777 50.0466 56.2777 48.489C56.2777 46.9187 55.6065 45.4117 54.3275 44.1454L47.3753 37.1679ZM51.9088 50.5024C51.8961 50.5024 51.8961 50.5151 51.9088 50.5024C51.4149 51.0343 50.9084 51.5155 50.3639 52.0474C49.5407 52.8325 48.705 53.6556 47.9198 54.5801C46.6408 55.9477 45.1339 56.5935 43.1584 56.5935C42.9684 56.5935 42.7658 56.5935 42.5759 56.5809C38.8148 56.3403 35.3197 54.8713 32.6984 53.6176C25.5309 50.1479 19.2372 45.2218 14.0072 38.9787C9.68897 33.7741 6.80171 28.962 4.88953 23.7953C3.71184 20.6421 3.28128 18.1854 3.47123 15.868C3.59786 14.3864 4.16772 13.158 5.21878 12.107L9.53701 7.78874C10.1575 7.20622 10.816 6.88963 11.4618 6.88963C12.2596 6.88963 12.9055 7.37084 13.3107 7.77607L13.3487 7.81406C14.1212 8.53588 14.8556 9.28302 15.6281 10.0808C16.0207 10.486 16.4259 10.8913 16.8311 11.3092L20.2882 14.7663C21.6306 16.1086 21.6306 17.3496 20.2882 18.6919C19.921 19.0592 19.5664 19.4264 19.1992 19.781C18.1355 20.87 17.1224 21.8831 16.0207 22.8709C15.9953 22.8962 15.97 22.9089 15.9574 22.9342C14.8683 24.0232 15.0709 25.087 15.2989 25.8088L15.3369 25.9227C16.236 28.1009 17.5023 30.1523 19.4271 32.5964L19.4398 32.609C22.9349 36.9146 26.62 40.2704 30.6849 42.8411C31.2041 43.1703 31.736 43.4363 32.2425 43.6895C32.6984 43.9175 33.129 44.1327 33.4962 44.3607C33.5468 44.386 33.5975 44.424 33.6482 44.4493C34.0787 44.6646 34.4839 44.7659 34.9018 44.7659C35.9529 44.7659 36.6114 44.1074 36.8267 43.8921L41.1576 39.5612C41.5881 39.1307 42.2719 38.6115 43.0697 38.6115C43.8549 38.6115 44.5007 39.1054 44.8933 39.5359L44.9186 39.5612L51.8961 46.5388C53.2005 47.8305 53.2005 49.1601 51.9088 50.5024ZM32.3818 14.2724C35.6996 14.8296 38.7135 16.3999 41.1196 18.8059C43.5256 21.212 45.0832 24.2258 45.6531 27.5437C45.7924 28.3794 46.5142 28.962 47.3373 28.962C47.4386 28.962 47.5273 28.9493 47.6286 28.9366C48.5657 28.7847 49.1862 27.8982 49.0342 26.9611C48.3504 22.9468 46.4509 19.2871 43.5509 16.3872C40.651 13.4873 36.9913 11.5878 32.977 10.9039C32.0399 10.752 31.1661 11.3725 31.0015 12.2969C30.8369 13.2213 31.4447 14.1204 32.3818 14.2724ZM59.8868 26.4673C58.7597 19.857 55.6445 13.8418 50.8577 9.05508C46.071 4.26831 40.0558 1.15311 33.4455 0.0260632C32.5211 -0.138561 31.6473 0.49461 31.4827 1.41904C31.3307 2.35613 31.9513 3.22991 32.8883 3.39453C38.7895 4.39494 44.1715 7.19356 48.4517 11.4611C52.7319 15.7414 55.5179 21.1233 56.5183 27.0245C56.6576 27.8603 57.3794 28.4428 58.2025 28.4428C58.3038 28.4428 58.3925 28.4301 58.4938 28.4174C59.4182 28.2781 60.0514 27.3917 59.8868 26.4673Z" fill="#FAF5EE"/>
</svg>
