<svg width="64" height="64" viewBox="0 0 64 64" fill="none" xmlns="http://www.w3.org/2000/svg">
<path d="M62.2628 49.0382V31.876C62.2628 31.6258 62.2104 31.3877 62.1166 31.1715C63.7465 27.6382 63.9998 23.4638 63.9998 21.2227L64 9.64267C64 7.8651 62.5539 6.41895 60.7763 6.41895C60.3465 6.41895 59.9359 6.50353 59.5605 6.65688V5.87922C59.5605 4.10165 58.1144 2.6555 56.3368 2.6555C55.901 2.6555 55.485 2.74271 55.1051 2.90071C54.9425 1.27423 53.566 0 51.8974 0C50.6558 0 49.5767 0.705882 49.0383 1.73704H31.8761C31.6259 1.73704 31.3879 1.78949 31.1715 1.88323C27.6383 0.253365 23.4639 0 21.2227 0H9.64267C7.8651 0 6.41895 1.44615 6.41895 3.22372C6.41895 3.65365 6.50353 4.06413 6.65688 4.43947H5.87922C4.10165 4.43947 2.6555 5.88562 2.6555 7.66319C2.6555 8.09889 2.74271 8.51514 2.90071 8.89487C1.27423 9.05738 0 10.434 0 12.1027C0 13.3443 0.705882 14.4235 1.73716 14.9617V32.1239C1.73716 32.3741 1.78962 32.6121 1.88336 32.8284C0.25349 36.3617 0.000250977 40.5361 0.000250977 42.7772L0 54.3573C0 56.1349 1.44615 57.5811 3.22372 57.5811C3.65365 57.5811 4.06413 57.4965 4.43947 57.3431V58.1208C4.43947 59.8984 5.88549 61.3445 7.66306 61.3445C8.09889 61.3445 8.51489 61.2573 8.89474 61.0993C9.05751 62.7258 10.434 64 12.1027 64C13.3443 64 14.4235 63.294 14.9618 62.2628H32.1239C32.3741 62.2628 32.6121 62.2104 32.8284 62.1168C36.3617 63.7466 40.5361 63.9999 42.7772 63.9999L54.3573 64C56.1349 64 57.5811 62.5539 57.5811 60.7763C57.5811 60.3464 57.4965 59.9359 57.3431 59.5605H58.1207C59.8982 59.5605 61.3444 58.1144 61.3444 56.3368C61.3444 55.901 61.2572 55.4849 61.0992 55.1051C62.7258 54.9425 64 53.566 64 51.8974C64 50.6558 63.2941 49.5765 62.2628 49.0382ZM51.3018 37.6143C50.4771 36.3891 48.6823 35.6779 46.6258 36.0592L48.0472 34.6378C48.7945 33.8913 49.426 33.0373 49.9208 32.1042H60.2552V45.5657C59.6687 44.7596 58.7185 44.2342 57.6476 44.2342H47.3763L50.1559 42.0559C52.1542 40.4898 52.0221 38.6845 51.3018 37.6143ZM32.0001 47.8458L17.3726 33.2183C15.7503 31.5959 14.8569 29.4291 14.8569 27.1167C14.8569 24.8043 15.7503 22.6374 17.3727 21.0151C18.9951 19.3926 21.1619 18.4991 23.4743 18.4991C25.7866 18.4991 27.9534 19.3926 29.5759 21.015L31.29 22.729C31.3832 22.8223 31.4939 22.8962 31.6156 22.9467C31.7374 22.9971 31.868 23.0231 31.9998 23.0231C32.1316 23.0231 32.2622 22.9971 32.384 22.9467C32.5058 22.8962 32.6164 22.8223 32.7096 22.729L34.4238 21.0147C36.0443 19.3941 38.2098 18.5009 40.5213 18.4994H40.5271C42.8386 18.4994 45.0048 19.3926 46.6268 21.0147C49.9914 24.3794 49.9914 29.8537 46.627 33.2181L32.0001 47.8458ZM3.745 31.8958V18.4341C4.33155 19.2403 5.28163 19.7658 6.35269 19.7658H15.7907C13.8935 21.7475 12.8491 24.3472 12.8491 27.1167C12.8491 28.8069 13.2401 30.4334 13.9737 31.8957L3.745 31.8958ZM38.8105 14.3182C39.4835 13.9491 40.1989 14.7297 40.4756 15.0825L41.6236 16.5475C41.2593 16.5105 40.8934 16.4919 40.5273 16.4917H40.5202C39.6718 16.492 38.8264 16.5924 38.0016 16.7908C37.847 15.6014 38.2349 14.6342 38.8105 14.3182ZM50.6815 3.22359C50.6815 2.55322 51.2269 2.00784 51.8972 2.00784C52.5676 2.00784 53.1131 2.55322 53.1131 3.22359V16.6915C53.1131 16.9577 53.2189 17.2131 53.4071 17.4013C53.5954 17.5896 53.8508 17.6954 54.117 17.6954C54.3833 17.6954 54.6386 17.5896 54.8269 17.4013C55.0152 17.2131 55.1209 16.9577 55.1209 16.6915V5.87407C55.1236 5.20646 55.669 4.66334 56.3367 4.66334C57.0072 4.66334 57.5526 5.20885 57.5526 5.87922V16.8304C57.5526 17.0966 57.6583 17.352 57.8466 17.5402C58.0349 17.7285 58.2902 17.8343 58.5565 17.8343C58.8227 17.8343 59.0781 17.7285 59.2664 17.5402C59.4546 17.352 59.5604 17.0966 59.5604 16.8304V9.64267C59.5604 8.97217 60.1058 8.42679 60.7762 8.42679C61.4467 8.42679 61.992 8.97217 61.992 9.64267L61.9919 21.2227C61.9919 22.8558 61.8281 26.8233 60.3988 30.0963H50.7334C51.7798 26.4892 50.8849 22.4331 48.0467 19.5949C47.4995 19.0484 46.8943 18.5633 46.2419 18.148V6.35269C46.2419 5.6822 46.7874 5.13682 47.4576 5.13682C48.1255 5.13682 48.6704 5.67944 48.6734 6.34717V17.1686C48.6734 17.4348 48.7792 17.6902 48.9674 17.8784C49.1557 18.0667 49.411 18.1725 49.6773 18.1725C49.9436 18.1725 50.1989 18.0667 50.3872 17.8784C50.5755 17.6902 50.6812 17.4348 50.6812 17.1686V3.22359H50.6815ZM45.5659 3.74488C44.7597 4.33142 44.2342 5.28163 44.2342 6.35269V16.6237L42.0559 13.8441C40.6022 11.9892 38.9273 11.9636 37.8442 12.5582C36.3602 13.3729 35.6754 15.3766 36.0778 17.4562C34.9341 17.9805 33.8932 18.7048 33.0041 19.595L32.104 20.4952V3.74488H45.5659ZM3.22359 10.8868H16.6915C16.9577 10.8868 17.2131 10.781 17.4013 10.5927C17.5896 10.4045 17.6954 10.1491 17.6954 9.88286C17.6954 9.6166 17.5896 9.36125 17.4013 9.17298C17.2131 8.9847 16.9577 8.87893 16.6915 8.87893H5.8742C5.20659 8.8763 4.66347 8.33079 4.66347 7.66319C4.66347 6.99269 5.20897 6.44731 5.87934 6.44731H16.8305C17.0968 6.44731 17.3521 6.34154 17.5404 6.15327C17.7286 5.965 17.8344 5.70964 17.8344 5.44339C17.8344 5.17713 17.7286 4.92178 17.5404 4.73351C17.3521 4.54524 17.0968 4.43947 16.8305 4.43947H9.64267C8.97217 4.43947 8.42692 3.89409 8.42692 3.22372C8.42692 2.55322 8.9723 2.00784 9.64267 2.00784H21.2227C22.8558 2.00784 26.8233 2.17161 30.0963 3.60107V18.7948C28.2254 17.3032 25.9157 16.4913 23.4742 16.4913C21.6768 16.4913 19.9506 16.9313 18.4181 17.758H6.35269C5.68232 17.758 5.13694 17.2126 5.13694 16.5422C5.13694 15.8734 5.68094 15.328 6.34968 15.3264H17.1687C17.4349 15.3264 17.6903 15.2206 17.8786 15.0323C18.0668 14.8441 18.1726 14.5887 18.1726 14.3224C18.1726 14.0562 18.0668 13.8008 17.8786 13.6126C17.6903 13.4243 17.4349 13.3185 17.1687 13.3185H3.22359C2.5531 13.3185 2.00784 12.773 2.00784 12.1027C2.00784 11.4322 2.55322 10.8868 3.22359 10.8868ZM13.3187 60.7763C13.3187 61.4468 12.7731 61.9922 12.1028 61.9922C11.4324 61.9922 10.8869 61.4468 10.8869 60.7763V47.3086C10.8869 47.0423 10.7811 46.7869 10.5929 46.5987C10.4046 46.4104 10.1492 46.3046 9.88298 46.3046C9.61672 46.3046 9.36137 46.4104 9.1731 46.5987C8.98483 46.7869 8.87906 47.0423 8.87906 47.3086V58.1259C8.87642 58.7935 8.33104 59.3365 7.66331 59.3365C6.99282 59.3365 6.44756 58.7912 6.44756 58.1207V47.1695C6.44756 46.9033 6.34179 46.6479 6.15352 46.4596C5.96525 46.2714 5.7099 46.1656 5.44364 46.1656C5.17738 46.1656 4.92203 46.2714 4.73376 46.4596C4.54549 46.6479 4.43972 46.9033 4.43972 47.1695V54.3572C4.43972 55.0276 3.89421 55.5731 3.22397 55.5731C2.55347 55.5731 2.00809 55.0276 2.00809 54.3572L2.00822 42.7772C2.00822 41.1442 2.17198 37.1767 3.60132 33.9036H15.2853C15.4965 34.1585 15.7193 34.4036 15.9531 34.6379L23.2108 41.8958C23.963 43.0266 24.677 44.1824 25.3514 45.3613C26.4887 47.3468 26.0317 49.1196 25.2646 49.636C24.5692 50.104 23.816 49.2894 23.5246 48.9175L19.5523 43.8484C19.4234 43.6839 19.2465 43.5637 19.0461 43.5045C18.8457 43.4454 18.6319 43.4502 18.4344 43.5184C18.2369 43.5866 18.0656 43.7147 17.9444 43.8848C17.8231 44.055 17.758 44.2588 17.7581 44.4677V57.6472C17.7581 58.3177 17.2127 58.8631 16.5424 58.8631C15.8745 58.8631 15.3296 58.3204 15.3266 57.653V46.8313C15.3266 46.5651 15.2209 46.3097 15.0326 46.1214C14.8443 45.9332 14.589 45.8274 14.3227 45.8274C14.0564 45.8274 13.8011 45.9332 13.6128 46.1214C13.4245 46.3097 13.3188 46.5651 13.3188 46.8313L13.3187 60.7763ZM18.4341 60.255C19.2403 59.6685 19.7658 58.7182 19.7658 57.6472V47.3763L21.9441 50.1559C23.5101 52.1541 25.3154 52.022 26.3857 51.3017C27.6109 50.4771 28.3221 48.6823 27.9409 46.626L31.2902 49.9753C31.4531 50.138 31.6669 50.2398 31.8958 50.2637V60.255H18.4341ZM60.7764 53.1132H47.3086C47.0423 53.1132 46.7869 53.219 46.5987 53.4073C46.4104 53.5955 46.3046 53.8509 46.3046 54.1171C46.3046 54.3834 46.4104 54.6388 46.5987 54.827C46.7869 55.0153 47.0423 55.1211 47.3086 55.1211H58.1259C58.7934 55.1237 59.3365 55.6691 59.3365 56.3368C59.3365 57.0072 58.791 57.5527 58.1207 57.5527H47.1695C46.9033 57.5527 46.6479 57.6585 46.4596 57.8467C46.2714 58.035 46.1656 58.2904 46.1656 58.5566C46.1656 58.8229 46.2714 59.0782 46.4596 59.2665C46.6479 59.4548 46.9033 59.5605 47.1695 59.5605H54.3572C55.0277 59.5605 55.5731 60.1059 55.5731 60.7763C55.5731 61.4468 55.0276 61.9922 54.3572 61.9922L42.7772 61.992C41.1441 61.992 37.1767 61.8283 33.9036 60.3988V48.7817L41.8957 40.7893C43.0265 40.037 44.1823 39.3231 45.3613 38.6488C47.3466 37.5114 49.1196 37.9683 49.636 38.7356C50.104 39.4309 49.2893 40.184 48.9173 40.4755L43.8483 44.4479C43.6839 44.5767 43.5637 44.7536 43.5046 44.954C43.4455 45.1543 43.4504 45.3681 43.5185 45.5656C43.5866 45.7631 43.7147 45.9343 43.8848 46.0556C44.0549 46.1768 44.2586 46.242 44.4675 46.242H57.6469C58.3174 46.242 58.8628 46.7874 58.8628 47.4578C58.8628 48.1256 58.3202 48.6705 57.6525 48.6735H46.8309C46.5647 48.6735 46.3093 48.7793 46.1211 48.9676C45.9328 49.1558 45.827 49.4112 45.827 49.6774C45.827 49.9437 45.9328 50.199 46.1211 50.3873C46.3093 50.5756 46.5647 50.6814 46.8309 50.6814H60.7758C61.4463 50.6814 61.9915 51.2267 61.9915 51.8972C61.9922 52.5677 61.4468 53.1132 60.7764 53.1132Z" fill="#FAF5EE"/>
</svg>
