<svg width="44" height="48" viewBox="0 0 44 48" fill="none" xmlns="http://www.w3.org/2000/svg">
<path fill-rule="evenodd" clip-rule="evenodd" d="M42.0059 7.1422C36.4546 13.0926 33.562 15.4595 33.2259 15.7278C33.1177 15.8046 33.0326 15.9096 32.9798 16.0314C32.5902 16.9498 32.2712 17.8965 32.0256 18.8634C31.9236 19.2439 31.8395 19.6214 31.7616 19.9977C30.1712 18.1205 28.0587 16.6861 25.6221 15.9461C25.6581 15.7648 25.7002 15.5836 25.7362 15.4035C25.8202 14.9876 25.8862 14.5681 25.9402 14.1421L25.9342 14.1409C25.9462 14.0281 25.9342 13.9104 25.8923 13.7964C25.8863 13.7874 24.512 10.363 22.5616 1.91852C22.5496 1.81679 22.5729 1.71403 22.6276 1.62744C22.6559 1.58018 22.6933 1.53898 22.7376 1.50622C22.7819 1.47346 22.8322 1.44978 22.8857 1.43655C22.9942 1.40708 23.1097 1.41929 23.2097 1.47078C23.2979 1.52016 23.3675 1.5971 23.4078 1.6898C23.9539 3.63849 24.494 5.27146 25.0402 6.58992C25.5924 7.93181 26.1564 8.9593 26.7206 9.67228C26.7566 9.72144 26.7986 9.76712 26.8466 9.80735C27.1827 10.0852 27.5428 10.3397 27.9149 10.5689C28.251 10.7772 28.6051 10.9609 28.9651 11.1235C29.366 11.4697 29.8399 11.7208 30.3515 11.8581C30.8916 12.0021 31.4318 12.0117 31.9419 11.9079C32.3199 11.9433 32.704 11.9565 33.0942 11.9439C33.5186 11.9314 33.9417 11.8899 34.3604 11.8197V11.8192C34.4074 11.8105 34.4536 11.7979 34.4984 11.7813C35.3566 11.45 36.3648 10.8361 37.5351 9.93828C38.6633 9.06985 39.9477 7.92963 41.388 6.51687C41.4721 6.44841 41.5801 6.41723 41.682 6.42083C41.7927 6.4273 41.8972 6.4738 41.9762 6.55165C42.0551 6.6297 42.1021 6.73431 42.1082 6.84513C42.108 6.94946 42.078 7.05509 42.0059 7.1422ZM37.0668 29.3208L39.0893 22.2962C39.1133 22.2248 39.1493 22.1612 39.2033 22.1071C39.2934 22.0082 39.4314 21.9403 39.5814 21.9061C39.7555 21.8671 39.9415 21.8707 40.1095 21.9193C40.2235 21.9523 40.3315 22.0075 40.4155 22.0861C40.4755 22.1419 40.5175 22.2007 40.5415 22.2619C40.5597 22.3172 40.5658 22.3757 40.5595 22.4335C40.4874 23.2366 40.4335 24.0905 40.3735 24.9985C40.1574 28.4607 39.8874 32.7259 38.3811 35.0658C37.5169 36.3981 36.4307 37.2041 35.2784 38.0599C34.5642 38.5904 33.826 39.1389 33.0759 39.8423C32.1396 40.7257 31.4915 41.6614 31.0534 42.6378C30.6153 43.6082 30.3812 44.6122 30.2732 45.6426C30.2454 45.8998 30.1236 46.1377 29.9311 46.3106C29.7397 46.4818 29.4918 46.5764 29.235 46.5765H22.5375V41.6284C22.5375 39.8796 23.4617 39.0867 24.692 38.0275C24.9139 37.8403 25.134 37.6509 25.3521 37.4592V37.4556L32.8238 31.6037C33.0939 31.3906 33.4539 31.2927 33.808 31.309C34.1561 31.3239 34.4922 31.4494 34.7323 31.6817C34.7743 31.7219 34.8103 31.7585 34.8403 31.7945C34.9783 31.974 35.0444 32.1829 35.0324 32.3863C35.0204 32.5897 34.9304 32.7938 34.7684 32.9648C34.7264 33.0056 34.6903 33.0429 34.6483 33.0758L29.3971 37.1868C29.0911 37.428 29.037 37.8734 29.277 38.1818C29.5171 38.4908 29.9612 38.5448 30.2732 38.3042L35.5184 34.1926C35.6149 34.1188 35.7052 34.0373 35.7884 33.949C36.1965 33.5247 36.4186 33.0002 36.4485 32.4636C36.4732 32.0171 36.3646 31.5734 36.1365 31.1888C36.2865 30.9878 36.4246 30.7825 36.5446 30.5683C36.7668 30.1844 36.9348 29.7715 37.0668 29.3208ZM13.7154 46.3107C13.523 46.1378 13.4012 45.8999 13.3733 45.6427C13.2653 44.6123 13.0313 43.6082 12.5932 42.6379C12.1551 41.6615 11.507 40.7258 10.5707 39.8424C9.82058 39.1391 9.08242 38.5906 8.36825 38.06C7.21604 37.2042 6.12968 36.3982 5.27149 35.0659C3.75909 32.726 3.48906 28.4609 3.27298 24.9986C3.21292 24.0906 3.16495 23.2366 3.08689 22.4337C3.08054 22.3758 3.08668 22.3173 3.10488 22.2621C3.12886 22.2008 3.17694 22.142 3.2309 22.0862C3.31496 22.0076 3.42299 21.9523 3.53703 21.9194C3.70502 21.8708 3.89111 21.8672 4.06511 21.9062C4.21511 21.9405 4.35313 22.0083 4.44318 22.1073C4.49714 22.1612 4.53323 22.2249 4.55721 22.2963L6.5797 29.3209C6.71172 29.7716 6.87983 30.1846 7.10179 30.5686C7.22182 30.7829 7.35983 30.9881 7.50984 31.1892C7.28164 31.5737 7.173 32.0174 7.19772 32.4639C7.2277 33.0004 7.44977 33.525 7.85783 33.9493C7.94114 34.0376 8.03144 34.1191 8.12786 34.1929L13.373 38.3045C13.6851 38.5451 14.1292 38.4912 14.3692 38.1821C14.6093 37.8737 14.5553 37.4284 14.2492 37.1871L8.99804 33.075C8.96206 33.0431 8.91998 33.0059 8.87801 32.9651C8.71601 32.794 8.62596 32.5899 8.61397 32.3865C8.60198 32.1831 8.66793 31.9742 8.80606 31.7948C8.83604 31.7588 8.87213 31.7222 8.9141 31.6819C9.15415 31.4496 9.49025 31.3242 9.84434 31.3092C10.1984 31.293 10.5525 31.3909 10.8226 31.6039L18.2943 37.4558V37.4594C18.5125 37.651 18.7326 37.8405 18.9545 38.0277C20.1908 39.0869 21.109 39.8797 21.109 41.6286V46.5767H14.4175C14.1587 46.5776 13.9087 46.4829 13.7154 46.3107ZM11.525 18.9468C11.2789 17.9854 10.9608 17.015 10.5407 16.0314C10.4868 15.9042 10.4027 15.8009 10.2947 15.7278C9.96459 15.4595 7.07192 13.0926 1.51475 7.1422C1.446 7.05906 1.41164 6.95278 1.41871 6.84513C1.41871 6.74069 1.46667 6.63505 1.55073 6.55165C1.62878 6.46945 1.73682 6.42563 1.84485 6.42083C1.9469 6.41723 2.04894 6.44841 2.13888 6.51687C3.57921 7.92963 4.86355 9.06985 5.99177 9.93828C7.15608 10.836 8.17027 11.45 9.02846 11.7813C9.07043 11.7993 9.1185 11.8113 9.16647 11.8192V11.8197C10.0072 11.9608 10.8633 11.9865 11.711 11.896C12.2032 11.9842 12.7192 11.9681 13.2294 11.8312C13.744 11.695 14.2203 11.4424 14.6218 11.093C14.9699 10.9315 15.312 10.7516 15.636 10.5499C16.0081 10.3225 16.3562 10.0746 16.6742 9.80746C16.7281 9.76723 16.7642 9.72166 16.8002 9.67239C17.3704 8.95941 17.9284 7.93203 18.4866 6.59003C19.0267 5.27157 19.5728 3.63859 20.1129 1.68991C20.1536 1.59552 20.2257 1.51814 20.317 1.47089C20.413 1.42172 20.5271 1.40613 20.6351 1.43666C20.744 1.46489 20.8382 1.53303 20.8992 1.62755C20.9531 1.7128 20.9772 1.81539 20.9652 1.91863C19.0088 10.3631 17.6345 13.7875 17.6345 13.7965C17.5865 13.9106 17.5744 14.0282 17.5865 14.141V14.1422C17.6405 14.5732 17.7066 14.998 17.7906 15.4187C17.8266 15.6053 17.8687 15.7938 17.9107 15.9822C15.4921 16.7426 13.3977 18.1847 11.8253 20.0668C11.8133 20.083 11.8013 20.0998 11.7893 20.1159C11.7111 19.7258 11.621 19.3364 11.525 18.9468ZM10.5108 7.39545C10.2355 7.87635 10.1621 8.44674 10.3067 8.98165C10.4567 9.54037 10.8168 9.9845 11.2789 10.2504C11.4605 10.3552 11.6567 10.4323 11.8611 10.479C11.8731 10.4809 11.885 10.4838 11.897 10.4869C12.2092 10.5499 12.5391 10.5457 12.8633 10.4581C13.3988 10.3148 13.8561 9.96584 14.1355 9.48706C14.3935 9.03333 14.4896 8.48061 14.3516 7.93214C14.34 7.91249 14.3338 7.89017 14.3336 7.86738C14.1851 7.34475 13.8384 6.90074 13.3674 6.62993V6.62873C12.9172 6.36828 12.3652 6.27704 11.813 6.41451C11.795 6.42116 11.771 6.42715 11.7529 6.43195C11.2068 6.58621 10.7747 6.94204 10.5107 7.39697V7.39545H10.5108ZM18.2046 27.1237C17.9285 30.6435 18.7687 34.1699 20.7432 37.7041L20.7372 37.7082C21.1632 38.1007 21.5293 38.4974 21.8234 38.9511C22.1114 38.504 22.4715 38.1133 22.8917 37.725C24.8541 34.21 25.7063 30.7034 25.4542 27.2034L25.4362 26.9832C24.1972 27.0961 22.9536 27.1527 21.7094 27.153V27.1501C20.5451 27.1501 19.3749 27.0991 18.2106 26.9994C18.2106 27.0408 18.2046 27.0817 18.2046 27.1237ZM21.8233 17.3505C20.0049 20.1051 18.8587 22.8514 18.3906 25.591C19.4943 25.6844 20.6015 25.7315 21.7093 25.7321V25.7297C22.8916 25.7297 24.0737 25.6769 25.25 25.5701C24.782 22.8369 23.6357 20.0973 21.8233 17.3505ZM12.9173 20.9741C12.1015 21.9543 11.4508 23.0608 10.9909 24.2502C12.9593 24.8053 14.9638 25.202 16.9742 25.4457C17.4483 22.5866 18.6005 19.7336 20.4309 16.8877C20.1969 16.9153 19.9628 16.949 19.7347 16.9898C19.4887 17.0348 19.2426 17.0875 19.0026 17.1488C18.9846 17.1542 18.9666 17.1608 18.9486 17.1656C18.9246 17.1716 18.9006 17.1752 18.8825 17.1788C16.4942 17.8 14.4296 19.1575 12.9173 20.9741ZM10.3187 29.915C10.8108 29.981 11.2969 30.1713 11.6989 30.4869L18.1384 35.5316C17.0102 32.6971 16.56 29.8597 16.7821 27.0174L16.8001 26.8542C14.6904 26.6006 12.6036 26.1833 10.5586 25.6059C10.3366 26.5037 10.2225 27.4388 10.2225 28.3954C10.2227 28.9025 10.2527 29.409 10.3187 29.915ZM33.43 28.3954C33.43 27.4172 33.3039 26.4611 33.0699 25.5453C31.0316 26.1333 28.951 26.5626 26.8465 26.8297C26.8525 26.9209 26.8645 27.0115 26.8705 27.104C27.0746 29.9168 26.6244 32.7266 25.5082 35.5329L31.9476 30.4869C32.3497 30.1712 32.8359 29.9809 33.328 29.915C33.394 29.409 33.43 28.9025 33.43 28.3954ZM32.6318 24.1914C32.1757 23.0182 31.5276 21.9313 30.7294 20.9741C29.193 19.1299 27.0925 17.7597 24.662 17.1512C24.6357 17.1477 24.6097 17.1426 24.5839 17.1362C24.5719 17.1326 24.5599 17.1288 24.548 17.1247C24.3371 17.0743 24.125 17.0293 23.9119 16.9898C23.6809 16.9489 23.4487 16.9148 23.2157 16.8877C25.0401 19.7239 26.1924 22.5674 26.6664 25.4169C28.6835 25.1629 30.6779 24.7532 32.6318 24.1914ZM21.7633 4.69835C20.335 10.5005 19.2908 13.4243 19.0207 14.1421C19.0626 14.4788 19.1227 14.8143 19.1888 15.145C19.2188 15.31 19.2548 15.4715 19.2908 15.6317C19.3569 15.6197 19.4228 15.6065 19.4889 15.5945C20.2592 15.4549 21.0405 15.3846 21.8234 15.3845C22.6156 15.3845 23.3958 15.4565 24.1579 15.5945C24.1879 15.5987 24.2119 15.6047 24.236 15.6095C24.2719 15.4516 24.308 15.2932 24.338 15.1312C24.4041 14.8035 24.458 14.4741 24.5061 14.1422C24.2359 13.4243 23.1917 10.5005 21.7633 4.69835ZM29.2411 7.92538C29.0911 8.48475 29.181 9.05066 29.4511 9.51278C29.7152 9.97426 30.1593 10.3343 30.7175 10.4838C30.9821 10.5554 31.2583 10.574 31.5302 10.5387C31.802 10.5034 32.0643 10.4148 32.3018 10.278V10.2768C32.764 10.0091 33.1301 9.56501 33.2741 9.00814C33.4187 8.47266 33.3453 7.90171 33.07 7.42019C32.7999 6.95927 32.3558 6.59864 31.7977 6.44972C31.5331 6.37791 31.2568 6.35923 30.9849 6.39477C30.7129 6.4303 30.4507 6.51934 30.2134 6.65674C29.9757 6.79369 29.7674 6.97627 29.6006 7.19399C29.4337 7.41171 29.3115 7.66027 29.2411 7.92538ZM42.9781 5.54575C42.642 5.2043 42.192 5.02181 41.7359 5.00328C41.2858 4.98409 40.8236 5.1293 40.4576 5.44262C40.4396 5.45941 40.4156 5.47739 40.3975 5.49604C38.9991 6.87402 37.7509 7.97945 36.6646 8.8142C35.7164 9.54516 34.9002 10.0613 34.2101 10.3631C34.4069 10.0584 34.5548 9.72466 34.6482 9.37411C34.9003 8.44027 34.7443 7.49269 34.3001 6.71311C33.85 5.93418 33.0998 5.32564 32.1697 5.07534C31.2335 4.82569 30.2852 4.97809 29.5051 5.42703C28.7249 5.87836 28.1187 6.62426 27.8668 7.55875C27.7648 7.93748 27.7348 8.31795 27.7528 8.68938C27.2966 8.08084 26.8285 7.20107 26.3484 6.04995C25.8263 4.78012 25.2981 3.19151 24.77 1.28611C24.764 1.25427 24.7521 1.22429 24.7401 1.19486C24.5776 0.771935 24.2659 0.423117 23.8639 0.214245C23.4618 0.00362341 22.9877 -0.0617871 22.5196 0.0635831C22.2395 0.138982 21.9807 0.27824 21.7634 0.470436C21.5462 0.278223 21.2874 0.138963 21.0073 0.0635831C20.5392 -0.0618961 20.0651 0.0035144 19.657 0.214245C19.2581 0.425315 18.949 0.773634 18.7868 1.19486C18.7748 1.22429 18.7628 1.25427 18.7509 1.28611C18.2228 3.19151 17.6946 4.77892 17.1725 6.04995C16.7164 7.15005 16.2722 8.00104 15.8282 8.60598C15.8465 8.24492 15.808 7.88323 15.7142 7.53412V7.53226C15.4733 6.63384 14.8864 5.86738 14.0819 5.40054L14.0759 5.40239V5.40054C13.2956 4.9516 12.3535 4.7992 11.4172 5.04885V5.04939C10.481 5.30024 9.73685 5.90638 9.28672 6.68476V6.68716C8.83659 7.46555 8.68058 8.41378 8.93263 9.34817C9.0327 9.72689 9.19713 10.0856 9.41874 10.4086C8.71056 10.1151 7.85837 9.58397 6.85617 8.81398C5.76992 7.97924 4.52767 6.8738 3.1233 5.49582C3.10514 5.47602 3.08502 5.45812 3.06324 5.4424C2.69715 5.12908 2.23503 4.98387 1.7849 5.00306C1.32877 5.0217 0.884629 5.20409 0.542641 5.54553C0.200544 5.88697 0.0205559 6.33416 0.00256799 6.78898C-0.0214159 7.23966 0.122596 7.69699 0.434714 8.06601L0.44071 8.06907C0.446705 8.07746 0.452702 8.08586 0.458697 8.0949C5.68587 13.6912 8.63261 16.1973 9.30471 16.7471C9.64461 17.5762 9.92537 18.4283 10.1449 19.2971C10.355 20.1271 10.511 20.9469 10.631 21.7595C10.1209 22.6177 9.70088 23.5371 9.40075 24.5003C9.39475 24.5068 9.39475 24.5135 9.38876 24.5201V24.534C9.00469 25.7606 8.79461 27.06 8.79461 28.3953C8.79461 28.9396 8.83059 29.4971 8.90265 30.0618C8.7833 30.1045 8.667 30.1552 8.55456 30.2137C8.47692 30.1008 8.40286 29.9855 8.33249 29.868C8.16691 29.5717 8.03603 29.2574 7.94242 28.9312L5.91993 21.9065C5.82988 21.6011 5.67987 21.343 5.4819 21.1336C5.18777 20.8204 4.79171 20.6151 4.37766 20.5215C3.9756 20.4309 3.54346 20.4422 3.1474 20.5563C2.81729 20.6511 2.51128 20.8162 2.25923 21.052C2.04316 21.2566 1.88715 21.4865 1.78511 21.7391C1.68307 21.9971 1.6471 22.275 1.67108 22.5673C1.74314 23.2875 1.79711 24.1601 1.85717 25.0879C2.08524 28.7151 2.36727 33.1838 4.07165 35.834C5.07384 37.3823 6.26214 38.2633 7.52238 39.1996C8.20058 39.7025 8.90265 40.224 9.59284 40.8757C10.3851 41.6229 10.9311 42.4061 11.2972 43.2217C11.6693 44.0439 11.8674 44.9032 11.9633 45.7933C12.0294 46.4228 12.3294 46.9737 12.7675 47.368C13.2057 47.7623 13.7817 48 14.418 48H29.2353C29.8654 48 30.4416 47.7623 30.8857 47.368C31.3237 46.9737 31.6179 46.4228 31.6838 45.7933C31.7799 44.9032 31.978 44.0439 32.35 43.2217C32.7161 42.4061 33.2623 41.6229 34.0544 40.8757C34.7446 40.224 35.4467 39.7025 36.1249 39.1996C37.3851 38.2633 38.5734 37.3823 39.5756 35.834C41.286 33.1838 41.562 28.7151 41.7901 25.0879C41.8501 24.1602 41.9041 23.2875 41.9762 22.5673C42.0002 22.275 41.9642 21.9971 41.8621 21.7391C41.7661 21.4864 41.6041 21.2566 41.388 21.052C41.136 20.8162 40.8298 20.6511 40.4999 20.5563C40.1038 20.4422 39.6716 20.4308 39.2756 20.5215C38.8555 20.6151 38.4654 20.8204 38.1654 21.1336C37.9673 21.343 37.8173 21.6012 37.7272 21.9065L35.7047 28.9312C35.6111 29.2574 35.4802 29.5717 35.3147 29.868C35.2487 29.9868 35.1706 30.1014 35.0926 30.2137C34.9845 30.1549 34.8645 30.1044 34.7445 30.0618C34.8166 29.4971 34.8525 28.9396 34.8525 28.3953C34.8525 27.0083 34.6305 25.661 34.2164 24.3924C34.2104 24.3828 34.2104 24.3744 34.2044 24.3648C33.888 23.3939 33.4569 22.4643 32.9201 21.5957C33.0401 20.8011 33.1901 20.0078 33.3942 19.2192C33.6103 18.4 33.8743 17.5766 34.2224 16.7472C34.8886 16.1974 37.8412 13.6913 43.0624 8.09501C43.0684 8.08542 43.0804 8.07583 43.0864 8.06623C43.3875 7.71061 43.5439 7.25477 43.5245 6.7892C43.5055 6.3207 43.3104 5.87664 42.9781 5.54575Z" fill="#407D69"/>
</svg>
