<svg width="48" height="48" viewBox="0 0 48 48" fill="none" xmlns="http://www.w3.org/2000/svg">
<path fill-rule="evenodd" clip-rule="evenodd" d="M24 48C37.2364 48 48 37.2339 48 24C48 10.7661 37.2364 0 24 0C10.7636 0 0 10.7661 0 24C0 37.2339 10.7636 48 24 48ZM17.2409 34.5092C17.2802 34.4412 17.3326 34.3816 17.395 34.3338C17.4574 34.2861 17.5286 34.251 17.6045 34.2308C17.6804 34.2105 17.7596 34.2054 17.8375 34.2158C17.9154 34.2261 17.9905 34.2517 18.0585 34.2911C18.1264 34.3305 18.1859 34.3828 18.2335 34.4452C18.2811 34.5076 18.3158 34.5788 18.3358 34.6547C18.3558 34.7306 18.3606 34.8097 18.3499 34.8874C18.3393 34.9652 18.3133 35.04 18.2736 35.1077L17.7129 36.0837C17.6034 36.2749 17.4002 36.3824 17.1961 36.3824C17.0945 36.3824 16.9889 36.3565 16.8953 36.3027C16.6105 36.1374 16.5129 35.772 16.6762 35.4861L17.2409 34.5092ZM12.8908 29.7232C13.1796 29.5578 13.5411 29.6564 13.7085 29.9413C13.8748 30.2271 13.7732 30.5925 13.4894 30.7578L12.5134 31.3215C12.4456 31.3606 12.3707 31.3859 12.2931 31.3961C12.2155 31.4062 12.1367 31.401 12.0611 31.3806C11.9856 31.3603 11.9148 31.3252 11.8527 31.2775C11.7907 31.2297 11.7387 31.1703 11.6997 31.1024C11.5334 30.8166 11.631 30.4511 11.9149 30.2868L12.8908 29.7232ZM11.5195 23.4025C11.8491 23.4025 12.113 23.6704 12.113 24C12.113 24.3306 11.8491 24.5975 11.5195 24.5975H10.3931C10.0595 24.5975 9.79559 24.3296 9.79559 24C9.79559 23.6704 10.0595 23.4025 10.3931 23.4025H11.5195ZM12.5124 16.6785L13.4884 17.2422C13.7732 17.4075 13.8748 17.7729 13.7075 18.0588C13.5979 18.25 13.3947 18.3575 13.1906 18.3575C13.089 18.3575 12.9874 18.3316 12.8898 18.2778L11.9139 17.7142C11.846 17.6749 11.7865 17.6225 11.7389 17.5601C11.6913 17.4977 11.6565 17.4265 11.6365 17.3506C11.6165 17.2747 11.6117 17.1956 11.6224 17.1179C11.6331 17.0402 11.659 16.9653 11.6987 16.8976C11.8611 16.6118 12.2276 16.5132 12.5124 16.6785ZM13.8459 12.2271C13.8618 12.5567 13.6099 12.8375 13.2802 12.8554L10.2179 13.0168C10.2059 13.0178 10.193 13.0178 10.185 13.0178C9.86829 13.0178 9.60339 12.7708 9.58745 12.4521L9.42512 9.38988C9.40919 9.06025 9.66115 8.77942 9.99079 8.76149C10.3244 8.74457 10.6053 8.99652 10.6212 9.32714L10.7068 10.9573C13.0332 8.58324 15.9363 6.88332 19.1809 6.01494C29.099 3.35701 39.3298 9.2644 41.9848 19.1821C42.9807 22.9026 42.8144 26.7744 41.4968 30.3794C41.4547 30.4943 41.3784 30.5936 41.2782 30.6637C41.1779 30.7339 41.0585 30.7716 40.9361 30.7718C40.8674 30.7718 40.7977 30.7598 40.729 30.7349C40.6554 30.7079 40.5879 30.6667 40.5304 30.6136C40.4728 30.5605 40.4262 30.4965 40.3934 30.4254C40.3605 30.3542 40.3421 30.2773 40.339 30.199C40.3359 30.1207 40.3483 30.0426 40.3754 29.9691C41.6074 26.5962 41.7657 22.9733 40.8306 19.4918C39.6265 14.9955 36.7434 11.2382 32.7141 8.91087C28.6797 6.58357 23.988 5.96515 19.4906 7.17013C16.477 7.97776 13.7732 9.55121 11.6061 11.749L13.2165 11.6644C13.5451 11.6475 13.83 11.8974 13.8459 12.2271ZM18.2746 12.8923C18.3543 13.0291 18.3764 13.192 18.336 13.3451C18.2957 13.4982 18.1962 13.629 18.0595 13.7089C17.9219 13.7878 17.7587 13.8091 17.6055 13.768C17.4523 13.7269 17.3216 13.6269 17.2419 13.4898L16.6762 12.5139C16.5139 12.2281 16.6115 11.8626 16.8953 11.6983C17.1841 11.5329 17.5456 11.6315 17.7129 11.9173L18.2746 12.8923ZM24.5975 11.519C24.5975 11.8496 24.3296 12.1165 24 12.1165C23.6704 12.1165 23.4025 11.8496 23.4025 11.519V10.3927C23.4025 10.0621 23.6704 9.79519 24 9.79519C24.3296 9.79519 24.5975 10.0621 24.5975 10.3927V11.519ZM30.7581 13.4898C30.6486 13.681 30.4454 13.7886 30.2413 13.7886C30.1397 13.7886 30.0341 13.7627 29.9405 13.7089C29.6557 13.5436 29.5581 13.1781 29.7214 12.8923L30.2871 11.9164C30.4494 11.6305 30.8159 11.5329 31.1047 11.6973C31.2415 11.7768 31.3413 11.9071 31.3823 12.0599C31.4234 12.2127 31.4023 12.3755 31.3238 12.5129L30.7581 13.4898ZM35.1092 18.2768C35.0116 18.3306 34.91 18.3565 34.8084 18.3565C34.6053 18.3565 34.4021 18.249 34.2915 18.0578C34.252 17.9898 34.2262 17.9148 34.2158 17.8368C34.2054 17.7589 34.2105 17.6797 34.2309 17.6038C34.2513 17.5279 34.2865 17.4567 34.3345 17.3945C34.3825 17.3323 34.4424 17.2801 34.5106 17.2412L35.4866 16.6775C35.5544 16.6383 35.6292 16.6128 35.7069 16.6025C35.7845 16.5923 35.8634 16.5975 35.939 16.6179C36.0146 16.6382 36.0855 16.6733 36.1475 16.7212C36.2095 16.769 36.2614 16.8286 36.3003 16.8966C36.3799 17.0334 36.402 17.1963 36.3617 17.3494C36.3213 17.5025 36.2219 17.6334 36.0851 17.7132L35.1092 18.2768ZM36.4795 24.5975C36.1499 24.5975 35.882 24.3306 35.882 24C35.882 23.6704 36.1499 23.4025 36.4795 23.4025H37.6059C37.9395 23.4025 38.2034 23.6704 38.2034 24C38.2034 24.3306 37.9395 24.5975 37.6059 24.5975H36.4795ZM34.5116 30.7578C34.4432 30.719 34.3832 30.667 34.335 30.6048C34.2869 30.5426 34.2516 30.4714 34.2312 30.3954C34.2108 30.3194 34.2057 30.2401 34.2163 30.1622C34.2268 30.0842 34.2527 30.0091 34.2925 29.9413C34.3319 29.8732 34.3843 29.8136 34.4467 29.7659C34.509 29.7181 34.5802 29.6831 34.6562 29.6628C34.7321 29.6426 34.8113 29.6375 34.8892 29.6478C34.9671 29.6582 35.0422 29.6838 35.1102 29.7232L36.0861 30.2868C36.154 30.3262 36.2135 30.3785 36.2611 30.4409C36.3087 30.5033 36.3435 30.5745 36.3635 30.6504C36.3835 30.7263 36.3883 30.8054 36.3776 30.8831C36.3669 30.9609 36.341 31.0357 36.3013 31.1034C36.1917 31.2946 35.9925 31.4022 35.7844 31.4022C35.6828 31.4022 35.5812 31.3763 35.4876 31.3225L34.5116 30.7578ZM29.7214 35.1077C29.5591 34.8219 29.6567 34.4564 29.9405 34.2911C30.2293 34.1268 30.5908 34.2244 30.7581 34.5092L31.3238 35.4852C31.4861 35.771 31.3885 36.1364 31.1047 36.3017C31.0111 36.3555 30.9055 36.3814 30.8039 36.3814C30.5968 36.3814 30.3976 36.2739 30.2871 36.0827L29.7214 35.1077ZM26.192 37.4709C25.932 38.398 25.0776 39.0802 24.0697 39.0802H23.281C22.2721 39.0802 21.4186 38.398 21.1587 37.4709H26.192ZM25.2887 34.6676L26.2766 35.8915V36.2759H21.0761V34.6676H25.2887ZM28.8062 24C28.8062 21.5512 26.9678 19.5256 24.5975 19.2299V14.5265H25.0248L25.1632 16.2134C25.1881 16.4744 25.3743 16.6905 25.6313 16.7472C26.4638 16.9333 27.2577 17.2625 27.9776 17.7202C28.1977 17.8596 28.4815 17.8397 28.6807 17.6714L29.9734 16.5759L31.4254 18.0269L30.3279 19.3175C30.1616 19.5167 30.1407 19.8035 30.2791 20.0236C30.7382 20.7466 31.0678 21.5363 31.2551 22.3698C31.2828 22.494 31.3494 22.606 31.4452 22.6897C31.5411 22.7733 31.6611 22.8242 31.7879 22.8349L33.4759 22.9733V25.0247L31.7879 25.1632C31.6611 25.1738 31.5411 25.2247 31.4452 25.3083C31.3494 25.392 31.2828 25.5041 31.2551 25.6282C31.0678 26.4617 30.7382 27.2505 30.2791 27.9744C30.1407 28.1955 30.1616 28.4813 30.3279 28.6815L31.4254 29.9721L29.9734 31.4231L28.6807 30.3286C28.4815 30.1593 28.1967 30.1404 27.9776 30.2798C27.2576 30.7372 26.4637 31.0661 25.6313 31.2518C25.3753 31.3086 25.1881 31.5256 25.1632 31.7866L25.0248 33.4725H24.5975V28.7691C26.9678 28.4744 28.8062 26.4488 28.8062 24ZM23.4015 33.4725H21.0512C20.9088 31.6193 20.0871 29.993 18.66 28.7422C16.8993 27.2007 15.8865 24.9759 15.8865 22.6377C15.8865 18.3665 19.2048 14.8561 23.4015 14.5484V33.4725ZM37.3778 38.6739L37.2922 37.0437C34.9658 39.4178 32.0588 41.1177 28.8181 41.9861C27.2482 42.4081 25.6296 42.622 24.004 42.6224C15.7819 42.6234 8.23901 37.1293 6.01419 28.8199C5.0183 25.0994 5.18461 21.2276 6.50218 17.6226C6.52915 17.5486 6.57045 17.4807 6.62372 17.4227C6.67698 17.3648 6.74117 17.3179 6.81259 17.2847C6.88401 17.2516 6.96127 17.2329 7.03994 17.2297C7.1186 17.2265 7.19712 17.2389 7.27101 17.2661C7.57973 17.3796 7.73908 17.7232 7.62455 18.0329C6.39263 21.4058 6.23428 25.0297 7.16943 28.5102C9.25184 36.2858 16.3107 41.4274 24.004 41.4274C25.4918 41.4274 27.0046 41.2352 28.5094 40.8319C31.523 40.0252 34.2228 38.4498 36.3899 36.253L34.7835 36.3376C34.4539 36.3555 34.1691 36.1016 34.1531 35.772C34.1372 35.4423 34.3891 35.1605 34.7188 35.1436L37.7812 34.9812C38.1148 34.9643 38.3906 35.2173 38.4115 35.5469L38.5699 38.6101C38.5898 38.9398 38.3379 39.2206 38.0092 39.2385C37.9973 39.2385 37.9853 39.2395 37.9763 39.2395C37.8231 39.24 37.6754 39.1816 37.564 39.0763C37.4526 38.971 37.3859 38.8269 37.3778 38.6739ZM46.8039 24C46.8039 36.5746 36.5731 46.805 24 46.805C11.4269 46.805 1.19607 36.5746 1.19607 24C1.19607 11.4254 11.4269 1.19502 24 1.19502C36.5731 1.19502 46.8039 11.4254 46.8039 24Z" fill="#407D69"/>
</svg>
