<svg width="70" height="64" viewBox="0 0 70 64" fill="none" xmlns="http://www.w3.org/2000/svg">
<path d="M44.4041 50.7545L42.7974 50.5379C41.6052 50.3772 40.7387 49.3873 40.7387 48.1837V44.2659C42.4186 43.5701 43.9106 42.6061 45.1788 41.3895C45.2405 41.5287 45.2964 41.6736 45.3423 41.8256L45.7067 43.0092C45.8172 43.3707 46.1514 43.6174 46.5287 43.6174C46.906 43.6174 47.2403 43.3707 47.3522 43.0092L47.7165 41.8242C48.0608 40.7038 48.8341 39.9291 49.9545 39.5863L51.138 39.2219C51.314 39.1676 51.468 39.0583 51.5773 38.9101C51.6867 38.7619 51.7457 38.5826 51.7457 38.3984C51.7457 38.2142 51.6867 38.0349 51.5773 37.8867C51.468 37.7385 51.314 37.6293 51.138 37.575L49.9545 37.2106C49.3907 37.037 48.9144 36.7544 48.5357 36.3742C49.1052 34.9712 49.4911 33.4391 49.6905 31.8079C50.8525 30.6215 52.158 27.8141 52.8854 24.8746C53.4778 22.4774 54.1865 17.8896 52.267 14.0894C50.8009 11.1887 47.6706 8.89047 43.4601 7.54627C43.7083 5.34418 42.915 3.46488 41.1332 2.07764C37.5769 -0.692545 31.5689 -0.692545 28.014 2.07764C26.2294 3.46775 25.4375 5.35136 25.6885 7.55774C23.4262 8.27934 21.4249 9.28211 19.8555 10.5302C19.7407 10.3208 19.6446 10.0941 19.57 9.85021L19.2056 8.66668C19.1517 8.49055 19.0426 8.33639 18.8945 8.22686C18.7464 8.11733 18.5671 8.05822 18.3829 8.05822C18.1987 8.05822 18.0194 8.11733 17.8713 8.22686C17.7232 8.33639 17.6141 8.49055 17.5602 8.66668L17.1958 9.85021C16.8515 10.9706 16.0782 11.7453 14.9564 12.0896L13.7729 12.454C13.4113 12.5644 13.1646 12.8987 13.1646 13.2774C13.1646 13.6547 13.4113 13.989 13.7729 14.1009L14.9564 14.4653C15.5159 14.6374 15.9893 14.9172 16.3666 15.293C15.0525 18.9598 15.7784 23.0555 16.3508 25.2261C17.0853 28.0135 18.3521 30.6761 19.4567 31.8108C19.9387 35.7602 21.5311 39.1042 24.0775 41.4943C25.3184 42.6577 26.7759 43.583 28.4085 44.2587V48.1852C28.4085 49.3888 27.5434 50.3786 26.3499 50.5393L24.7431 50.7559C13.0269 52.3354 12.433 61.2513 12.433 63.023V63.1392C12.433 63.6141 12.8189 64 13.2937 64C13.7686 64 14.1545 63.6141 14.1545 63.1392V63.023C14.1545 60.887 14.9349 53.8145 24.9727 52.4616L26.5794 52.245C28.6366 51.9681 30.1285 50.2596 30.1285 48.1852V44.8627C31.5029 45.2586 32.9776 45.4967 34.5327 45.5656C34.5456 45.5656 34.5585 45.567 34.5715 45.567C34.5844 45.567 34.5973 45.567 34.6102 45.5656C36.171 45.4953 37.6443 45.26 39.0144 44.8655V48.1852C39.0144 50.261 40.5078 51.9681 42.5635 52.245L44.1703 52.4616C54.208 53.8145 54.9884 60.887 54.9884 63.023V63.1392C54.9884 63.6141 55.3744 64 55.8492 64C56.324 64 56.7099 63.6141 56.7099 63.1392V63.023C56.7128 61.2499 56.1189 52.3325 44.4041 50.7545ZM46.5301 40.2462C46.0883 39.4672 45.4614 38.8403 44.6824 38.3984C45.4614 37.9566 46.0897 37.3297 46.5301 36.5507C46.972 37.3297 47.5989 37.9566 48.3779 38.3984C47.5989 38.8403 46.972 39.4672 46.5301 40.2462ZM29.0727 3.43762C32.0035 1.15376 37.1451 1.15376 40.076 3.43762C41.2896 4.38301 41.8563 5.60384 41.7731 7.07429C41.2294 6.94231 40.6713 6.82324 40.0989 6.72138C35.7822 5.94958 31.2848 6.12603 27.3756 7.08577C27.2895 5.60958 27.8562 4.38445 29.0727 3.43762ZM18.3836 11.4297C18.8255 12.2087 19.4524 12.8356 20.2314 13.2774C19.4524 13.7193 18.8255 14.3462 18.3836 15.1252C17.9418 14.3462 17.3148 13.7193 16.5359 13.2774C17.3148 12.8356 17.9432 12.2087 18.3836 11.4297ZM17.5171 17.7433L17.5616 17.8867C17.6721 18.2483 18.0063 18.495 18.3836 18.495C18.7609 18.495 19.0952 18.2483 19.2071 17.8867L19.5714 16.7018C19.9157 15.5814 20.689 14.8067 21.8094 14.4624L22.9929 14.098C23.1689 14.0437 23.3229 13.9345 23.4322 13.7863C23.5416 13.6381 23.6006 13.4587 23.6006 13.2746C23.6006 13.0904 23.5416 12.911 23.4322 12.7629C23.3229 12.6147 23.1689 12.5054 22.9929 12.4511L21.8094 12.0867C21.5397 12.0035 21.2915 11.8959 21.0634 11.7639C22.5941 10.5775 24.571 9.64219 26.8075 8.99376C26.8175 8.99233 26.829 8.99089 26.839 8.98802C26.8835 8.97798 26.9266 8.96364 26.9682 8.94785C30.8071 7.86474 35.3892 7.6223 39.7976 8.40989C45.1601 9.36819 49.1454 11.7195 50.732 14.8612C53.4118 20.1663 50.5298 27.728 48.8671 30.1022C48.2631 29.372 47.6376 28.4008 47.3421 27.4181C46.0108 22.9953 45.0095 20.7387 42.6037 19.0617C38.8523 16.4479 30.2993 16.4479 26.5478 19.0617C24.142 20.7387 23.1421 22.9939 21.8094 27.4181C21.5124 28.4037 20.8841 29.3778 20.2787 30.1094C18.8341 28.0938 16.7625 22.4875 17.5171 17.7433ZM34.5743 43.8427C27.0829 43.4912 22.1006 38.9651 21.1753 31.7004C22.0389 30.7765 23.0159 29.3849 23.4563 27.9202C24.6929 23.8144 25.5321 21.872 27.5305 20.4805C30.6909 18.2784 38.4577 18.2784 41.6181 20.4805C43.6165 21.872 44.4557 23.8144 45.6923 27.9202C46.1328 29.3849 47.1111 30.7765 47.9733 31.7004C47.8643 32.5611 47.695 33.3874 47.4727 34.1764L47.3536 33.7891C47.2996 33.613 47.1906 33.4588 47.0425 33.3493C46.8944 33.2398 46.7151 33.1806 46.5309 33.1806C46.3467 33.1806 46.1673 33.2398 46.0192 33.3493C45.8711 33.4588 45.7621 33.613 45.7081 33.7891L45.3437 34.9726C44.9994 36.093 44.2262 36.8677 43.1044 37.212L41.9208 37.5764C41.7448 37.6307 41.5909 37.74 41.4815 37.8882C41.3721 38.0363 41.3131 38.2157 41.3131 38.3999C41.3131 38.584 41.3721 38.7634 41.4815 38.9116C41.5909 39.0597 41.7448 39.169 41.9208 39.2233L43.1044 39.5877C43.4673 39.6996 43.7915 39.856 44.0784 40.0539C41.7315 42.3521 38.4663 43.6605 34.5743 43.8427ZM15.2806 41.9261C15.4566 41.8718 15.6106 41.7625 15.7199 41.6143C15.8293 41.4661 15.8883 41.2868 15.8883 41.1026C15.8883 40.9184 15.8293 40.7391 15.7199 40.5909C15.6106 40.4427 15.4566 40.3335 15.2806 40.2792L13.3554 39.6881C11.3843 39.0827 9.96404 37.6625 9.35865 35.6914L8.7676 33.7662C8.7133 33.5902 8.60404 33.4362 8.45585 33.3268C8.30766 33.2175 8.12833 33.1585 7.94415 33.1585C7.75997 33.1585 7.58064 33.2175 7.43245 33.3268C7.28425 33.4362 7.175 33.5902 7.1207 33.7662L6.52965 35.6914C5.92426 37.6625 4.50402 39.0813 2.5329 39.6881L0.607689 40.2792C0.431698 40.3335 0.277733 40.4427 0.16837 40.5909C0.0590074 40.7391 0 40.9184 0 41.1026C0 41.2868 0.0590074 41.4661 0.16837 41.6143C0.277733 41.7625 0.431698 41.8718 0.607689 41.9261L2.5329 42.5171C4.50402 43.1225 5.92282 44.5427 6.52965 46.5139L7.1207 48.4391C7.175 48.6151 7.28425 48.769 7.43245 48.8784C7.58064 48.9878 7.75997 49.0468 7.94415 49.0468C8.12833 49.0468 8.30766 48.9878 8.45585 48.8784C8.60404 48.769 8.7133 48.6151 8.7676 48.4391L9.35865 46.5139C9.96404 44.5427 11.3828 43.1239 13.3554 42.5171L15.2806 41.9261ZM7.94415 45.3504C7.15369 43.3721 5.67464 41.8931 3.69635 41.1026C5.67464 40.3122 7.15369 38.8331 7.94415 36.8548C8.7346 38.8331 10.2137 40.3122 12.192 41.1026C10.2137 41.8931 8.7346 43.3721 7.94415 45.3504ZM68.5395 47.2512L66.6143 46.6602C64.6432 46.0548 63.2244 44.6346 62.6176 42.6634L62.0265 40.7382C61.9722 40.5622 61.863 40.4083 61.7148 40.2989C61.5666 40.1895 61.3872 40.1305 61.2031 40.1305C61.0189 40.1305 60.8396 40.1895 60.6914 40.2989C60.5432 40.4083 60.4339 40.5622 60.3796 40.7382L59.7886 42.6634C59.1832 44.6346 57.7644 46.0534 55.7918 46.6602L53.8666 47.2512C53.6906 47.3055 53.5366 47.4148 53.4273 47.563C53.3179 47.7112 53.2589 47.8905 53.2589 48.0747C53.2589 48.2589 53.3179 48.4382 53.4273 48.5864C53.5366 48.7346 53.6906 48.8438 53.8666 48.8981L55.7918 49.4892C57.7629 50.0946 59.1817 51.5134 59.7886 53.4859L60.3796 55.4111C60.4339 55.5871 60.5432 55.7411 60.6914 55.8505C60.8396 55.9598 61.0189 56.0188 61.2031 56.0188C61.3872 56.0188 61.5666 55.9598 61.7148 55.8505C61.863 55.7411 61.9722 55.5871 62.0265 55.4111L62.6176 53.4859C63.223 51.5148 64.6418 50.096 66.6143 49.4892L68.5395 48.8981C68.7155 48.8438 68.8695 48.7346 68.9788 48.5864C69.0882 48.4382 69.1472 48.2589 69.1472 48.0747C69.1472 47.8905 69.0882 47.7112 68.9788 47.563C68.8695 47.4148 68.7155 47.3055 68.5395 47.2512ZM61.2045 52.3225C60.414 50.3442 58.935 48.8651 56.9567 48.0747C58.9364 47.2842 60.414 45.8052 61.2045 43.8269C61.995 45.8052 63.474 47.2842 65.4523 48.0747C63.474 48.8651 61.995 50.3442 61.2045 52.3225Z" fill="#FAF5EE"/>
</svg>
