<svg width="201" height="200" viewBox="0 0 201 200" fill="none" xmlns="http://www.w3.org/2000/svg">
<path d="M111.135 33.015C108.188 33.0563 105.377 35.6962 105.16 38.6531C105.058 40.0566 105.279 41.4098 105.729 42.7629C106.586 45.3404 108.326 46.7298 110.95 47.3107C114.003 47.9862 116.974 47.6057 119.969 47.0398C121.577 46.7368 123.194 46.3985 124.82 46.2928C126.446 46.1881 128.101 46.2918 129.642 46.9684C131.155 47.6329 132.421 48.682 133.779 49.5981C136.604 51.504 137.333 54.2275 137.288 57.3717C137.264 58.9766 136.97 60.526 136.541 62.0675C136.163 63.4277 136.59 63.8696 137.928 63.485C139.518 63.0279 141.12 62.736 142.774 62.7329C145.11 62.7289 147.41 62.9846 149.13 64.7637C150.23 65.9024 151.2 67.1891 152.08 68.509C152.677 69.4051 153.213 70.431 153.433 71.472C153.962 73.978 153.923 76.5413 153.246 79.014C152.634 81.2491 152.386 83.5155 152.313 85.7999C152.25 87.8085 152.71 89.7667 153.63 91.5639C153.936 92.1609 154.438 92.7318 154.99 93.1144C156.44 94.1202 158.064 94.7504 159.849 94.8682C164.065 95.1471 167 92.3995 167.013 88.1709C167.015 87.5729 167.035 86.9739 167.007 86.3778C166.901 84.034 165.295 82.3878 162.833 82.0767C160.49 81.7807 158.669 82.8731 158.022 85.1344C157.768 86.0194 157.746 87.0091 157.81 87.9373C157.886 89.0116 158.845 89.7305 159.997 89.7919C161.283 89.8604 162.445 89.1385 162.705 88.1216C162.845 87.5769 162.74 87.0393 162.233 86.85C161.896 86.7242 161.399 86.8802 161.026 87.0373C160.708 87.1712 160.466 87.4873 160.067 87.8286C159.657 86.4573 159.91 85.4224 160.731 84.6199C161.555 83.8145 162.577 84.0752 163.542 84.4276C164.387 84.7367 164.811 85.4193 164.879 86.252C164.962 87.2417 164.922 88.2434 164.894 89.2382C164.886 89.5231 164.784 89.8352 164.635 90.0808C163.532 91.9001 162.127 93.0741 159.772 92.7831C157.017 92.4438 155.45 91.1209 154.852 88.4277C154.332 86.0838 154.601 83.7621 155.039 81.4716C155.488 79.1238 156.136 76.8051 155.978 74.3928C155.887 73.0124 155.821 71.5637 155.353 70.2901C154.363 67.6009 152.648 65.2943 150.637 63.2847C148.313 60.963 145.322 60.528 142.182 60.8532C141.02 60.974 139.867 61.1744 138.664 61.3446C138.852 60.0659 139.078 58.899 139.187 57.7221C139.487 54.5224 138.963 51.5181 136.558 49.1854C135.386 48.0487 134.057 47.0388 132.676 46.1649C131.514 45.429 130.229 44.7363 128.904 44.4383C125.856 43.7516 122.797 43.962 119.745 44.7353C116.987 45.434 114.179 45.725 111.328 45.1239C109.63 44.7665 108.394 43.9701 107.843 42.2676C107.752 41.9847 107.6 41.7209 107.503 41.44C106.755 39.2744 107.282 37.597 108.951 36.1029C110.652 34.5796 112.584 34.9612 114.448 35.374C115.673 35.6448 116.28 37.751 115.685 38.9179C115.145 39.9781 113.598 40.407 112.333 39.7928C112.48 39.5925 112.586 39.366 112.763 39.224C113.293 38.7951 113.556 38.3088 113.133 37.6816C112.797 37.1832 112.029 37.1399 111.377 37.5386C110.507 38.0722 110.01 39.4848 110.302 40.5903C110.563 41.5759 111.373 42.2193 112.503 42.2636C113.097 42.2867 113.705 42.2716 114.288 42.1699C116.698 41.7531 118.124 39.9247 117.965 37.5154C117.793 34.9108 116.107 33.1308 113.672 33.018C112.83 32.9788 111.981 33.0029 111.135 33.015Z" fill="#480003"/>
<path d="M33.1142 86.3728C33.0901 87.1692 33.1052 87.9666 33.1092 88.7629C33.1243 91.2719 34.8842 93.7497 37.2895 94.535C39.7712 95.3455 42.0899 94.7645 44.3321 93.5976C45.5936 92.9402 46.39 91.9475 46.8964 90.6286C48.0885 87.5296 47.8337 84.3773 47.3384 81.2109C47.0162 79.151 46.5208 77.1071 46.3598 75.0361C46.254 73.678 46.3598 72.1959 46.8098 70.9253C47.6636 68.514 49.2473 66.4803 51.0565 64.6902C51.7311 64.0237 52.6926 63.5334 53.6118 63.2494C56.3503 62.4027 59.0989 62.6142 61.8354 63.4196C63.5611 63.928 63.9416 63.5132 63.4946 61.7855C63.4453 61.5932 63.3678 61.404 63.3446 61.2086C63.1473 59.5867 62.7748 57.9597 62.811 56.3418C62.8714 53.6556 63.7342 51.2614 66.1848 49.721C66.7718 49.3525 67.245 48.7998 67.839 48.4484C68.9455 47.793 70.0429 46.9875 71.2551 46.6764C72.6707 46.3129 74.2181 46.2425 75.685 46.3512C77.5064 46.4871 79.3025 46.9523 81.1127 47.2503C84.4292 47.797 87.7416 48.0789 90.9442 46.7026C91.5705 46.4338 92.2531 46.0934 92.6769 45.59C94.5295 43.3902 95.2644 40.845 94.8295 37.9625C94.4691 35.5733 91.1587 32.565 88.55 32.9919C87.8715 33.1026 87.1576 32.9858 86.4619 33.014C84.2117 33.1056 82.5927 34.5776 82.193 36.8671C81.7742 39.2653 82.6813 41.1168 84.8973 41.878C85.8941 42.2203 87.0499 42.2495 88.1191 42.183C89.1451 42.1196 89.8579 41.0393 89.8871 39.9066C89.9162 38.7619 89.1521 37.591 88.2188 37.3262C87.6801 37.1732 87.219 37.2799 86.8989 37.742C86.5545 38.2404 86.7398 38.6693 87.1334 39.068C87.3761 39.3146 87.5664 39.6116 87.9701 40.1302C87.2281 40.1302 86.8375 40.1704 86.4569 40.1231C84.8943 39.9308 84.1462 39.1093 84.2066 37.6957C84.2761 36.0677 85.1098 35.1887 86.6935 35.1112C87.3388 35.08 87.9882 35.1112 88.6346 35.1021C90.5244 35.075 91.7396 36.2509 92.4967 37.7037C93.3897 39.4183 92.7383 41.1712 91.9933 42.8616C91.3691 44.2772 90.2022 44.7594 88.8531 45.0836C85.9646 45.7783 83.1314 45.3112 80.2882 44.7584C78.7296 44.4554 77.156 44.1584 75.5773 44.0537C73.5375 43.9187 71.5128 44.1503 69.5969 44.9638C67.4584 45.872 65.6995 47.354 63.9326 48.7977C62.5996 49.8871 61.7397 51.3228 61.2665 53.0173C60.4873 55.8031 60.8598 58.5306 61.5152 61.3889C60.1581 61.1835 58.9449 60.9338 57.7196 60.8261C54.7495 60.5643 51.863 60.9277 49.6621 63.1226C48.2345 64.5462 47.0786 66.2588 45.9148 67.922C45.3258 68.7647 44.7982 69.7413 44.5777 70.732C44.0018 73.3195 43.8689 75.9564 44.4418 78.5761C44.9422 80.8615 45.4355 83.1369 45.4879 85.4969C45.5241 87.1188 45.2624 88.6663 44.7046 90.1674C44.5546 90.5712 44.3009 91.0152 43.9636 91.2558C42.3779 92.3814 40.631 93.0369 38.6406 92.7358C37.1575 92.5123 35.307 90.6306 35.2174 89.2049C35.158 88.2626 35.159 87.3101 35.2225 86.3688C35.3383 84.6572 37.526 83.5266 39.0322 84.3642C40.0692 84.9411 40.4981 86.6567 39.8075 87.6998C39.6182 87.5427 39.4027 87.4168 39.2578 87.2356C38.8238 86.693 38.3003 86.4483 37.7194 86.9145C37.1686 87.3564 37.2421 87.9676 37.5462 88.5435C38.0053 89.4113 39.2578 89.9419 40.3914 89.7657C41.4204 89.6056 42.2157 88.8515 42.3376 87.7853C42.701 84.5867 40.625 80.7488 35.9615 82.4221C34.1744 83.0674 33.1736 84.4458 33.1142 86.3728Z" fill="#480003"/>
<path d="M167.015 113.337C167.029 112.64 167.02 111.943 167.013 111.245C166.981 108.063 164.28 105.202 161.099 105.064C160.216 105.026 159.299 105.125 158.437 105.325C155.377 106.035 153.321 107.696 152.683 111.003C152.07 114.174 152.465 117.227 153.066 120.318C153.378 121.923 153.674 123.55 153.742 125.177C153.794 126.451 153.721 127.826 153.287 129.003C152.365 131.499 150.775 133.64 148.842 135.462C147.223 136.987 145.097 137.301 142.984 137.225C141.409 137.168 139.832 136.857 138.284 136.526C136.499 136.144 136.089 136.442 136.603 138.147C137.053 139.643 137.267 141.155 137.288 142.702C137.315 144.827 137.164 147.011 135.642 148.594C134.283 150.01 132.596 151.123 130.99 152.282C130.317 152.768 129.517 153.203 128.716 153.358C126.103 153.861 123.482 153.781 120.873 153.178C119.424 152.844 117.948 152.613 116.475 152.398C113.909 152.025 111.389 152.267 109.016 153.326C108.231 153.678 107.431 154.248 106.928 154.932C105.825 156.436 105.208 158.177 105.142 160.078C105.005 164.107 107.692 166.914 111.696 166.919C112.194 166.92 112.693 166.899 113.19 166.922C115.913 167.047 117.78 165.303 117.973 162.33C118.052 161.128 117.792 160.051 116.911 159.184C115.563 157.857 113.902 157.471 112.093 157.715C111.051 157.855 110.352 158.72 110.241 159.778C110.119 160.941 110.716 162.169 111.606 162.548C112.15 162.778 112.71 162.806 113.108 162.307C113.518 161.795 113.371 161.299 112.902 160.859C112.675 160.647 112.511 160.367 112.282 160.071C113.014 159.534 113.65 159.814 114.237 159.982C115.503 160.346 116.031 161.184 115.883 162.449C115.712 163.91 114.971 164.727 113.648 164.804C112.704 164.859 111.755 164.843 110.81 164.806C110.479 164.793 110.123 164.674 109.833 164.509C107.615 163.248 106.927 161.805 107.306 159.291C107.688 156.752 108.974 155.398 111.433 154.856C114.332 154.215 117.181 154.593 119.999 155.29C121.902 155.761 123.824 155.994 125.764 155.905C127.096 155.843 128.499 155.76 129.725 155.3C132.456 154.275 134.806 152.547 136.831 150.473C139.046 148.207 139.465 145.305 139.189 142.277C139.078 141.054 138.835 139.844 138.648 138.601C140.034 138.798 141.387 139.081 142.753 139.168C145.79 139.361 148.649 138.791 150.843 136.501C151.973 135.321 152.978 133.992 153.863 132.616C154.58 131.499 155.267 130.265 155.559 128.989C156.245 125.997 156.059 122.984 155.386 119.967C154.934 117.941 154.637 115.847 154.593 113.776C154.563 112.424 155.083 111.052 155.421 109.706C155.512 109.346 155.776 108.951 156.077 108.738C157.574 107.682 159.215 106.989 161.097 107.162C162.799 107.318 164.796 109.252 164.902 110.85C164.962 111.743 164.957 112.646 164.897 113.538C164.838 114.426 164.481 115.173 163.566 115.52C162.599 115.886 161.581 116.124 160.75 115.355C159.9 114.567 159.675 113.518 160.049 112.132C160.453 112.472 160.739 112.691 160.999 112.937C161.413 113.331 161.858 113.459 162.333 113.089C162.777 112.743 162.848 112.274 162.676 111.745C162.389 110.865 161.293 110.146 160.197 110.139C159.067 110.132 158.024 110.813 157.834 111.83C157.3 114.699 158.772 118.459 162.933 117.872C165.42 117.518 166.961 115.854 167.015 113.337Z" fill="#480003"/>
<path d="M88.7606 166.917C92.1112 166.901 94.9353 164.125 94.9665 160.76C94.9746 159.923 94.883 159.06 94.6766 158.251C93.9356 155.345 92.376 153.325 89.1925 152.655C86.4822 152.085 83.8554 152.308 81.1985 152.714C79.4315 152.985 77.6877 153.44 75.9137 153.625C73.7803 153.848 71.7143 153.634 69.7037 152.622C67.9781 151.754 66.5736 150.51 65.0926 149.354C64.1442 148.613 63.5954 147.546 63.2592 146.346C62.5665 143.876 62.6339 141.434 63.2813 138.981C63.4203 138.452 63.6015 137.926 63.6689 137.388C63.7656 136.613 63.4042 136.271 62.6188 136.358C62.2272 136.401 61.8517 136.582 61.46 136.636C59.8411 136.857 58.2171 137.232 56.5971 137.218C54.213 137.196 51.9447 136.624 50.3529 134.591C49.7085 133.768 48.9897 132.989 48.452 132.1C47.7634 130.961 46.9569 129.791 46.674 128.529C46.0589 125.784 46.3116 123.015 46.9851 120.262C47.7825 117.004 48.1913 113.705 47.2288 110.386C46.8351 109.029 46.378 107.692 45.1437 106.865C43.2791 105.617 41.2151 104.931 38.9498 105.056C35.7552 105.232 33.1254 108.064 33.1093 111.285C33.1053 112.032 33.0932 112.779 33.1134 113.526C33.1758 115.816 34.5833 117.407 36.901 117.827C39.3052 118.264 41.1296 117.355 41.9451 115.159C42.2481 114.343 42.3387 113.413 42.3518 112.531C42.3699 111.344 41.6561 110.509 40.6 110.223C39.572 109.945 38.2199 110.391 37.6742 111.241C37.495 111.52 37.3268 111.9 37.3711 112.203C37.4225 112.552 37.642 113.011 37.9229 113.151C38.1937 113.286 38.676 113.152 38.9931 112.992C39.3183 112.828 39.5549 112.488 39.858 112.199C40.2969 113.062 40.3211 113.422 40.0452 114.233C39.6214 115.478 38.8632 115.95 37.5262 115.802C36.1529 115.65 35.3334 114.923 35.2307 113.68C35.1693 112.938 35.2458 112.185 35.1984 111.441C35.0806 109.583 36.2445 108.418 37.5967 107.609C39.1592 106.674 40.8466 107.171 42.4767 107.825C43.9607 108.42 44.7752 109.441 45.1215 110.974C45.7991 113.967 45.4951 116.917 44.7672 119.835C44.293 121.737 44.0362 123.656 44.1258 125.595C44.1892 126.976 44.2738 128.429 44.746 129.703C45.7417 132.388 47.4724 134.675 49.4719 136.699C51.6205 138.874 54.4204 139.339 57.3381 139.163C58.7034 139.08 60.0555 138.794 61.5103 138.586C61.459 138.82 61.4177 138.997 61.3825 139.175C60.9757 141.227 60.6254 143.274 60.9465 145.387C61.3039 147.738 62.2071 149.775 64.0908 151.298C64.9426 151.985 65.7611 152.738 66.6934 153.297C68.0496 154.11 69.4208 155.063 70.917 155.441C73.9364 156.203 77.0242 156.087 80.0708 155.29C81.1743 155.001 82.311 154.801 83.4446 154.679C85.5791 154.447 87.7236 154.364 89.7795 155.16C90.3231 155.37 90.9726 155.607 91.2927 156.039C92.3821 157.507 93.0516 159.17 92.8653 161.051C92.667 163.052 90.7148 164.801 88.7153 164.819C87.9682 164.826 87.2021 164.915 86.4802 164.779C85.8842 164.666 85.2277 164.393 84.8008 163.981C84.096 163.3 84.0175 161.621 84.4887 160.888C85.0515 160.012 86.3875 159.636 87.8535 160.059C87.6269 160.362 87.5152 160.593 87.334 160.738C86.8114 161.156 86.4892 161.618 86.9332 162.261C87.3118 162.809 88.1636 162.869 88.8039 162.343C89.6748 161.629 90.0523 160.681 89.8298 159.554C89.6265 158.52 88.8422 157.769 87.7769 157.673C84.5562 157.38 80.835 159.385 82.5123 164.141C83.1346 165.903 84.4575 166.724 86.2265 166.895C87.0611 166.978 87.9139 166.921 88.7606 166.917Z" fill="#480003"/>
<path d="M89.9839 23.7463C91.9794 25.6734 94.1863 27.389 96.3721 29.1066C97.7605 30.197 98.8337 31.3759 98.9626 33.2456C99.022 34.1094 99.8879 34.5615 100.577 34.1094C100.883 33.908 101.104 33.3976 101.146 33.0049C101.3 31.5702 102.008 30.4728 103.081 29.5919C104.158 28.7089 105.231 27.8078 106.389 27.0416C108.628 25.5586 110.459 23.6769 111.927 21.4619C113.55 19.0103 113.909 16.3222 112.595 13.6571C111.321 11.0757 109.2 9.66715 106.205 9.43357C103.194 9.19898 99.5586 12.5285 100.403 16.31C100.806 18.1112 102.461 19.6527 104.235 19.7805C106.052 19.9114 107.723 18.8009 108.383 16.9937C108.706 16.1097 108.767 15.2147 108.069 14.4686C107.327 13.6742 106.413 13.1759 105.289 13.2987C104.969 13.3339 104.55 13.5111 104.395 13.7598C104.156 14.1434 103.955 14.6639 104.012 15.0908C104.086 15.6576 104.621 15.8328 105.176 15.712C105.631 15.6133 106.07 15.4925 106.314 16.0855C106.045 16.9655 105.506 17.5514 104.518 17.5696C103.777 17.5837 102.841 16.888 102.615 16.1097C102.373 15.2721 102.383 14.4072 102.883 13.6591C104.495 11.2539 106.749 11.1884 108.854 12.5657C111.366 14.2088 112.01 17.5907 110.344 20.1027C109.472 21.4176 108.42 22.6529 107.272 23.7353C105.792 25.1317 104.111 26.3117 102.562 27.6376C101.647 28.4199 100.817 29.3019 100.053 30.0399C99.1589 29.1891 98.3223 28.3475 97.4373 27.5611C96.5443 26.7688 95.6462 25.9704 94.6736 25.2837C92.7737 23.9437 91.182 22.3116 89.9195 20.3816C88.227 17.7961 88.4113 14.5431 91.2112 12.5839C93.0607 11.2901 95.5264 11.1039 97.1866 13.633C97.7061 14.4243 97.7665 15.3234 97.4302 16.2124C97.106 17.0692 96.1184 17.6713 95.3129 17.5565C94.4592 17.4347 94.0202 16.8819 93.9235 15.6687C94.3152 15.6949 94.7008 15.7936 95.0511 15.7231C95.4076 15.6516 95.917 15.4895 96.0237 15.2297C96.1657 14.8834 96.0751 14.3639 95.911 13.9954C95.7891 13.7216 95.4207 13.484 95.1116 13.3793C94.0434 13.0158 93.1674 13.5242 92.362 14.1404C91.5726 14.7435 91.3199 15.569 91.5505 16.5356C91.9482 18.2018 93.5097 19.6345 95.0763 19.7775C96.8453 19.9386 98.7059 18.8382 99.4036 17.194C101.003 13.4236 97.8148 9.99234 95.2737 9.56344C89.8359 8.64624 86.2637 13.6108 86.7671 17.6662C87.0702 20.1369 88.2965 22.1173 89.9839 23.7463Z" fill="#480003"/>
<path d="M184.09 100.253C182.123 100.571 180.419 102.223 180.252 104.088C180.079 106.018 181.279 107.745 183.236 108.396C184.168 108.706 185.024 108.609 185.704 107.863C186.429 107.068 186.967 106.158 186.683 105.03C186.594 104.678 186.311 104.265 186.002 104.107C185.655 103.929 185.115 103.872 184.775 104.023C184.518 104.137 184.377 104.648 184.307 105.007C184.24 105.357 184.329 105.738 184.351 106.136C182.594 105.909 181.963 104.661 182.825 103.431C183.603 102.323 185.233 102.061 186.424 102.853C188.446 104.198 188.929 106.927 187.45 108.86C185.441 111.486 182.484 111.819 179.872 110.254C177.988 109.125 176.416 107.587 175.072 105.821C173.491 103.744 172 101.582 169.854 100.035C170.667 99.2559 171.48 98.5934 172.15 97.8101C173.314 96.4509 174.402 95.0253 175.501 93.6117C176.707 92.0582 178.174 90.7785 179.82 89.7445C181.671 88.5817 183.689 88.3964 185.638 89.4928C187.414 90.4926 188.376 92.0481 188.288 94.1634C188.215 95.9344 186.528 97.5674 184.772 97.5382C183.64 97.5191 182.654 96.763 182.478 95.7793C182.316 94.8702 182.742 94.2923 184.026 93.7164C184.161 93.8332 184.23 93.8634 184.231 93.8976C184.252 94.2742 184.263 94.6517 184.276 95.0283C184.307 95.9153 185.053 96.4116 185.818 95.9736C186.174 95.7693 186.518 95.3786 186.661 94.9961C187.246 93.4305 185.546 91.3011 183.876 91.4461C181.976 91.6122 180.276 93.4657 180.238 95.3766C180.204 97.0499 181.044 98.2742 182.373 99.0766C183.974 100.043 185.753 100.016 187.376 99.134C190.741 97.3057 191.614 92.924 189.307 89.8754C187.095 86.9527 183.724 85.9811 180.252 87.2215C178.707 87.7732 177.409 88.7508 176.329 89.8815C174.48 91.8165 172.78 93.9057 171.146 96.029C169.977 97.5513 168.737 98.7696 166.696 98.9327C165.899 98.9961 165.499 99.7975 165.896 100.468C166.081 100.78 166.582 101.042 166.961 101.075C168.406 101.202 169.502 101.915 170.388 102.977C171.312 104.085 172.243 105.198 173.036 106.398C174.519 108.641 176.413 110.464 178.639 111.91C181.093 113.504 183.773 113.88 186.439 112.503C189.061 111.15 190.443 108.977 190.598 105.917C190.736 103.183 187.566 99.6918 184.09 100.253Z" fill="#480003"/>
<path d="M29.106 103.736C30.2246 102.3 31.4207 101.184 33.3507 101.057C34.2085 101.001 34.6546 100.081 34.1763 99.424C33.9558 99.121 33.4474 98.9176 33.0477 98.8763C31.5485 98.7223 30.4411 97.94 29.55 96.8124C28.5322 95.5257 27.6109 94.1615 26.5638 92.8989C25.6144 91.7542 24.6368 90.6044 23.5183 89.6328C22.1742 88.466 20.7525 87.3876 18.9383 86.9255C14.2214 85.7254 10.3583 89.0992 9.63641 92.4982C8.70008 96.911 12.5521 100.278 16.086 99.6717C17.9446 99.3535 19.5554 97.8534 19.788 96.0734C20.0417 94.1332 19.047 92.464 17.1683 91.6968C16.2944 91.3404 15.4064 91.2337 14.6272 91.881C13.7371 92.619 13.2508 93.5815 13.3807 94.7666C13.4109 95.0454 13.5609 95.3424 13.7371 95.568C14.1006 96.0351 14.5959 96.2617 15.1869 96.0341C15.7437 95.8207 15.8514 95.3686 15.788 94.8139C15.7487 94.4675 15.8031 94.1101 15.8172 93.6983C17.2237 94.1725 17.6597 94.6528 17.6305 95.5408C17.6053 96.2908 16.9317 97.197 16.1424 97.4195C15.3017 97.6561 14.456 97.6188 13.6948 97.1325C11.6812 95.8468 11.1869 93.06 12.6155 91.1229C14.4298 88.6633 17.7805 88.0562 20.3317 89.7657C22.0775 90.9356 23.631 92.327 24.9107 94.0094C26.5306 96.1388 28.07 98.3397 30.143 99.8811C29.1403 100.971 28.1435 101.994 27.2183 103.077C26.0222 104.475 24.965 106 23.6995 107.328C22.0554 109.054 20.3398 110.728 17.7845 111.098C14.456 111.58 11.5322 108.879 11.8323 105.537C12.0074 103.581 14.2184 101.99 16.0276 102.519C16.8663 102.764 17.3908 103.345 17.5972 104.162C17.7714 104.852 17.5036 105.459 16.9186 105.854C16.6579 106.029 16.2974 106.056 15.9823 106.15C15.9078 105.845 15.7377 105.527 15.7769 105.238C15.8726 104.544 15.7115 104.042 14.9946 103.857C14.4218 103.709 13.715 104.145 13.4794 104.811C13.0837 105.93 13.5589 106.86 14.2294 107.705C14.8496 108.485 15.6813 108.712 16.6408 108.467C18.3342 108.034 19.6994 106.502 19.8203 104.902C19.9521 103.151 18.9302 101.368 17.3385 100.666C13.6002 99.0173 10.1257 102.011 9.64446 104.661C8.61651 110.327 13.8136 113.788 17.7754 113.258C20.1877 112.934 22.1369 111.756 23.7337 110.111C25.6658 108.123 27.3975 105.927 29.106 103.736Z" fill="#480003"/>
<path d="M110.159 176.276C108.218 174.368 106.056 172.669 103.896 171.002C102.412 169.856 101.23 168.629 101.117 166.648C101.08 165.992 100.665 165.686 100.011 165.703C99.3551 165.72 98.9775 166.06 98.9493 166.708C98.8688 168.578 97.8046 169.793 96.3769 170.845C94.6563 172.114 92.9256 173.388 91.3389 174.814C89.5216 176.446 87.9117 178.285 87.1163 180.681C85.4128 185.815 89.582 190.731 94.2153 190.508C97.5489 190.347 100.285 187.24 99.7538 183.935C99.4547 182.072 97.8851 180.469 96.1343 180.239C94.2355 179.991 92.6527 180.901 91.8151 182.722C91.4204 183.579 91.2442 184.456 91.8463 185.272C92.536 186.206 93.4934 186.724 94.6694 186.662C95.0328 186.643 95.5111 186.46 95.7084 186.187C95.9662 185.828 96.1544 185.283 96.087 184.862C95.9994 184.31 95.4628 184.134 94.906 184.248C94.5174 184.327 94.021 184.523 93.9002 184.008C93.8297 183.705 94.0623 183.249 94.2918 182.974C94.8909 182.259 95.7769 182.203 96.5652 182.743C97.6828 183.51 97.9687 185.139 97.1965 186.334C95.8977 188.342 93.0937 188.86 91.1868 187.407C88.4725 185.339 88.2288 182.29 89.8357 179.708C90.9986 177.84 92.5319 176.277 94.3019 174.938C96.3487 173.389 98.4791 171.923 99.9994 169.77C100.721 170.552 101.33 171.346 102.073 171.985C103.393 173.117 104.787 174.163 106.163 175.229C107.795 176.492 109.18 177.996 110.268 179.732C111.46 181.636 111.642 183.693 110.48 185.68C109.445 187.448 107.856 188.345 105.747 188.205C104.033 188.092 102.474 186.445 102.491 184.735C102.502 183.588 103.24 182.6 104.223 182.417C105.141 182.245 105.694 182.643 106.416 184.172C105.948 184.217 105.625 184.314 105.327 184.264C104.642 184.148 104.126 184.288 103.937 185.016C103.784 185.604 104.208 186.272 104.861 186.552C106.386 187.205 108.692 185.65 108.583 183.985C108.486 182.484 107.672 181.356 106.375 180.642C105.1 179.94 103.776 180.004 102.539 180.758C100.643 181.913 99.9491 183.853 100.438 186.211C100.744 187.687 103.026 190.192 104.875 190.456C109.452 191.106 113.484 187.463 113.339 182.834C113.252 180.145 111.945 178.032 110.159 176.276Z" fill="#480003"/>
<path d="M145.658 57.1049C146.064 57.1049 146.314 57.117 146.561 57.1019C146.857 57.0837 147.157 57.0656 147.447 57.0072C151.66 56.1585 155.181 54.2506 157.482 50.465C157.714 50.0844 158.011 49.7451 158.278 49.3857C160.431 46.4831 161.691 43.2431 161.92 39.6247C161.992 38.494 161.56 38.0369 160.472 38.1004C159.731 38.1427 158.987 38.2222 158.258 38.3561C153.839 39.1625 150.378 41.74 147.023 44.4976C146.683 44.7775 146.418 45.1561 146.15 45.5115C144.054 48.2832 142.848 51.363 142.874 54.8828C142.878 55.4607 143.037 55.8806 143.42 56.3437C144.092 57.1582 144.883 57.274 145.658 57.1049ZM146.921 53.1431C147.573 51.3872 148.943 50.3109 150.541 49.4541C149.791 51.1385 148.577 52.3598 146.921 53.1431ZM148.738 45.6927C151.149 43.7123 153.632 41.7631 156.712 40.852C157.689 40.563 158.682 40.3284 159.937 39.9982C159.773 40.8631 159.697 41.4309 159.554 41.9806C159.011 44.0617 158.24 46.0421 156.945 47.7899C156.323 48.6276 155.751 49.5015 155.143 50.3502C153.516 52.6256 151.174 53.8207 148.601 54.6905C150.474 53.1763 151.97 51.359 153.228 49.3424C153.673 48.6286 154.045 47.8684 154.462 47.1365C154.775 46.5868 154.997 46.037 154.436 45.5175C153.937 45.0554 153.443 45.285 152.928 45.5407C150.277 46.8576 147.884 48.5128 145.986 50.8184C145.799 51.0459 145.611 51.2714 145.424 51.498C145.965 49.2296 146.955 47.1566 148.738 45.6927Z" fill="#480003"/>
<path d="M161.128 156.212C160.447 153.496 158.761 151.319 157.202 149.063C154.483 145.125 150.663 143.285 146.009 142.932C145.662 142.895 145.317 142.831 144.971 142.825C143.994 142.809 142.901 143.785 142.879 144.752C142.862 145.595 142.848 146.46 143.006 147.281C143.819 151.502 145.705 155.054 149.498 157.372C149.879 157.604 150.221 157.9 150.58 158.168C153.527 160.36 156.801 161.677 160.496 161.843C161.539 161.89 162.043 161.453 161.915 160.446C161.736 159.024 161.476 157.602 161.128 156.212ZM157.084 159.224C155.166 158.662 153.364 157.821 151.784 156.557C151.357 156.216 150.921 155.875 150.449 155.603C148.037 154.214 146.692 151.973 145.572 149.552C145.5 149.397 145.563 149.181 145.563 148.736C146.173 149.408 146.593 149.956 147.097 150.41C148.875 152.014 150.776 153.444 152.975 154.445C153.51 154.689 154.016 154.856 154.484 154.393C154.965 153.916 154.757 153.412 154.499 152.889C153.257 150.368 151.703 148.082 149.558 146.232C149.297 146.008 149.053 145.763 148.667 145.402C150.024 145.363 150.899 146.165 151.825 146.664C153.317 147.47 154.529 148.648 155.491 150.1C156.864 152.171 158.453 154.109 159.14 156.562C159.418 157.553 159.679 158.549 159.965 159.605C158.829 159.938 157.947 159.477 157.084 159.224ZM146.67 146.594C148.757 147.613 149.888 149.117 150.969 150.758C149.276 150.122 147.74 148.684 146.67 146.594Z" fill="#480003"/>
<path d="M39.0311 44.0526C40.061 47.3751 42.0525 50.1438 44.3037 52.6416C47.004 55.6389 50.5852 57.0746 54.6789 57.1451C55.5014 57.1592 56.0431 56.9176 56.6442 56.3699C57.3963 55.6852 57.1526 54.9362 57.1224 54.4257C57.1465 51.9741 56.5224 49.9636 55.5286 48.0315C54.5561 46.1427 53.3287 44.4855 51.5729 43.2552C50.4724 42.484 49.3941 41.6795 48.2655 40.9516C45.6236 39.2481 42.7291 38.2715 39.5828 38.0953C38.5659 38.0389 38.1532 38.4859 38.1823 39.532C38.2236 41.0835 38.57 42.5665 39.0311 44.0526ZM49.2059 49.1611C50.9024 50.1096 52.4065 51.2533 53.4445 53.3716C51.3061 52.3597 50.1885 50.8274 49.2059 49.1611ZM40.3379 40.0918C41.3286 40.3264 42.2358 40.5006 43.1177 40.7583C46.3486 41.7027 48.9582 43.7254 51.4923 45.8065C53.0126 47.0549 53.807 48.8903 54.6165 50.6583C54.6889 50.8173 54.6426 51.0318 54.6638 51.4949C53.1012 49.4602 51.3494 48.0073 49.4002 46.7951C48.6431 46.324 47.8366 45.9313 47.0574 45.4943C46.5922 45.2325 46.124 45.0977 45.679 45.4984C45.1827 45.9444 45.2884 46.4609 45.5471 46.9935C46.7312 49.4279 48.2162 51.6439 50.2368 53.4733C50.4583 53.6736 50.6778 53.876 50.8872 54.0884C50.9517 54.1539 50.9768 54.2566 51.0695 54.4408C50.8117 54.4408 50.5701 54.5103 50.3969 54.4307C47.8769 53.2618 45.7203 51.7174 44.1799 49.285C42.9536 47.3499 41.5652 45.5275 40.9108 43.2944C40.6249 42.3148 40.202 41.3513 40.3379 40.0918Z" fill="#480003"/>
<path d="M56.1409 143.167C55.6053 142.842 54.8441 142.888 54.1826 142.767C50.2984 143.038 46.8964 144.431 44.3471 147.264C41.959 149.917 39.8246 152.852 38.8792 156.408C38.5248 157.742 38.3425 159.131 38.1925 160.507C38.0878 161.463 38.551 161.874 39.5145 161.847C40.2082 161.827 40.9099 161.795 41.5915 161.674C46.0718 160.88 49.6117 158.32 53.0087 155.516C53.4607 155.143 53.8111 154.631 54.1585 154.148C56.0351 151.545 57.1306 148.701 57.1849 145.428C57.2031 144.372 56.9061 143.632 56.1409 143.167ZM54.535 149.515C53.3883 152.04 51.8811 154.228 49.4537 155.767C47.5246 156.99 45.7285 158.42 43.4934 159.07C42.5027 159.358 41.4969 159.595 40.1155 159.953C40.3914 158.723 40.5213 157.849 40.7861 157.019C41.3912 155.118 42.2067 153.311 43.4611 151.731C43.8004 151.304 44.1397 150.868 44.4146 150.399C45.8684 147.908 48.1911 146.524 50.7253 145.407C50.8501 145.351 51.0122 145.383 51.3807 145.359C50.987 145.761 50.7283 146.062 50.4323 146.321C48.3421 148.148 46.8148 150.389 45.6107 152.867C45.5885 152.912 45.5623 152.954 45.5402 152.998C45.2965 153.47 45.2009 153.953 45.5996 154.381C46.0013 154.81 46.4926 154.758 46.9678 154.513C47.7169 154.128 48.4851 153.767 49.1929 153.314C51.1642 152.055 53.0258 150.656 54.6347 148.465C54.5854 149.038 54.6297 149.308 54.535 149.515ZM53.0893 146.896C52.6765 148.286 51.6405 149.376 49.2392 150.842C50.394 148.668 51.6072 147.462 53.0893 146.896Z" fill="#480003"/>
<path d="M26.431 67.4619C26.8569 68.2069 27.5727 68.5392 28.4587 68.4335C29.986 68.2503 31.5164 68.0912 33.0407 67.8848C33.4736 67.8264 33.9176 67.6945 34.3062 67.4962C35.1217 67.0814 35.2667 66.6313 34.9425 65.7846C34.3233 64.1666 33.6961 62.5527 33.0769 60.9348C32.5946 59.6743 32.1446 59.3531 30.725 59.3299C29.7313 59.3138 28.7376 59.3269 27.7438 59.3269C27.7438 59.3078 27.7438 59.2897 27.7438 59.2705C26.5014 59.2705 25.257 59.2252 24.0177 59.2836C22.8759 59.337 22.3675 60.0126 22.8457 60.9429C23.9784 63.1488 25.1997 65.3094 26.431 67.4619ZM31.015 61.2519C31.5637 62.8185 32.1557 64.511 32.7829 66.3001C31.2939 66.4189 29.9296 66.5588 28.5624 66.6112C28.2966 66.6212 27.909 66.3524 27.764 66.1037C26.875 64.5774 26.0403 63.0189 25.0678 61.2529C27.1629 61.2519 29.0195 61.2519 31.015 61.2519Z" fill="#480003"/>
<path d="M174.89 59.2644C173.101 59.2846 171.311 59.3027 169.521 59.3279C167.854 59.351 167.373 59.7608 166.856 61.3465C166.428 62.6624 165.954 63.9692 165.406 65.2378C164.742 66.7712 165 67.5404 166.597 67.8142C168.356 68.1163 170.146 68.2331 172.093 68.4505C172.633 68.4727 173.182 68.1445 173.563 67.5827C174.035 66.885 174.469 66.1591 174.876 65.4211C175.643 64.0307 176.412 62.6402 177.119 61.2186C177.729 59.9934 177.315 59.354 175.933 59.2695C175.586 59.2483 175.238 59.2604 174.89 59.2644ZM171.992 66.6051C170.419 66.5114 168.944 66.4238 167.314 66.3262C167.917 64.5663 168.488 62.9 169.068 61.2086C170.943 61.2086 172.815 61.2086 174.867 61.2086C174.091 63.2484 173.057 64.9489 171.992 66.6051Z" fill="#480003"/>
<path d="M132.206 33.4731C132.242 33.7571 132.404 34.0359 132.551 34.2917C132.967 35.0206 133.403 35.2028 134.152 34.9199C135.865 34.2725 137.565 33.5939 139.275 32.9385C140.28 32.5529 140.756 31.8602 140.707 30.7608C140.66 29.7188 140.697 28.6737 140.697 27.6296C140.715 27.6296 140.733 27.6296 140.751 27.6296C140.751 26.3872 140.798 25.1418 140.737 23.9024C140.685 22.8352 140.03 22.3227 139.182 22.7567C136.931 23.9085 134.725 25.1508 132.526 26.4003C131.893 26.7597 131.507 27.3769 131.587 28.1471C131.772 29.9251 131.98 31.7001 132.206 33.4731ZM138.779 25.1116C138.779 27.1765 138.779 29.0834 138.779 30.9702C137.131 31.538 135.502 32.0999 133.71 32.718C133.611 31.1434 133.518 29.6845 133.416 28.0837C134.97 26.9289 136.764 26.0358 138.779 25.1116Z" fill="#480003"/>
<path d="M140.698 172.477C140.698 171.434 140.711 170.39 140.695 169.347C140.673 167.827 140.291 167.371 138.854 166.862C137.362 166.333 135.888 165.752 134.418 165.161C133.352 164.732 132.883 164.88 132.417 165.945C132.262 166.3 132.176 166.7 132.13 167.088C131.974 168.369 131.964 169.679 131.687 170.932C131.376 172.331 131.836 173.271 133.006 173.923C134.914 174.985 136.828 176.037 138.771 177.033C140.053 177.689 140.709 177.247 140.755 175.756C140.789 174.664 140.762 173.57 140.762 172.477C140.74 172.477 140.719 172.477 140.698 172.477ZM138.82 174.987C136.826 173.892 135.106 172.946 133.409 172.015C133.513 170.367 133.607 168.863 133.708 167.232C135.454 167.844 137.07 168.409 138.868 169.04C138.99 170.838 138.861 172.735 138.82 174.987Z" fill="#480003"/>
<path d="M59.4322 27.5974C59.4322 28.6898 59.4815 29.7852 59.4191 30.8746C59.3526 32.0203 59.9437 32.6093 60.9223 32.9808C62.5865 33.6131 64.2407 34.2705 65.9039 34.9028C66.6772 35.1968 67.1151 35.0468 67.5108 34.3189C67.6961 33.9796 67.8269 33.5869 67.8803 33.2043C68.0907 31.683 68.2408 30.1527 68.4522 28.6314C68.6092 27.5068 68.2015 26.6802 67.2319 26.1426C65.2364 25.0371 63.246 23.9206 61.2162 22.8785C60.0574 22.2835 59.4231 22.6862 59.3506 24.0223C59.2872 25.2103 59.3376 26.4054 59.3376 27.5974C59.3698 27.5974 59.401 27.5974 59.4322 27.5974ZM61.2938 25.0271C63.1795 26.0409 64.8961 26.9652 66.6872 27.9287C66.5745 29.603 66.4748 31.0739 66.3641 32.703C64.6384 32.112 63.0245 31.5602 61.2938 30.9672C61.2938 29.1399 61.2938 27.2269 61.2938 25.0271Z" fill="#480003"/>
<path d="M173.872 132.778C173.332 131.804 172.495 131.421 171.374 131.572C170.195 131.731 169.003 131.789 167.826 131.956C167.146 132.053 166.451 132.198 165.824 132.463C164.982 132.82 164.819 133.319 165.131 134.14C165.764 135.803 166.421 137.458 167.052 139.122C167.425 140.107 168.031 140.677 169.171 140.607C170.21 140.544 171.256 140.594 172.299 140.594C172.299 140.621 172.299 140.647 172.299 140.672C173.59 140.672 174.886 140.734 176.172 140.653C177.316 140.58 177.714 139.926 177.203 138.926C176.142 136.852 175.002 134.817 173.872 132.778ZM169.085 138.751C168.506 137.107 167.937 135.494 167.301 133.69C168.907 133.568 170.4 133.454 172.061 133.327C173.003 135.038 173.947 136.751 175.049 138.751C172.841 138.751 170.97 138.751 169.085 138.751Z" fill="#480003"/>
<path d="M68.0726 167.793C67.9649 167.067 67.7998 166.324 67.5068 165.657C67.1766 164.903 66.6862 164.768 65.915 165.061C64.2034 165.71 62.501 166.383 60.7934 167.04C59.8561 167.402 59.3627 168.021 59.4201 169.081C59.4755 170.121 59.4322 171.166 59.4322 172.208C59.405 172.208 59.3768 172.208 59.3496 172.208C59.3496 173.499 59.2902 174.794 59.3678 176.079C59.4362 177.223 60.0937 177.649 61.0753 177.148C63.1946 176.067 65.2717 174.902 67.3477 173.738C68.2689 173.222 68.5891 172.39 68.4542 171.34C68.3012 170.16 68.2458 168.968 68.0726 167.793ZM66.0801 172.316C64.5891 173.181 63.0678 173.995 61.326 174.954C61.1861 172.831 61.2334 170.937 61.1971 169.049C63.0003 168.414 64.578 167.86 66.3439 167.237C66.4567 168.734 66.5936 170.134 66.6389 171.539C66.648 171.797 66.3389 172.165 66.0801 172.316Z" fill="#480003"/>
<path d="M27.5927 140.694C27.5927 140.661 27.5927 140.628 27.5927 140.595C28.6851 140.595 29.7775 140.612 30.8699 140.591C32.1938 140.566 32.6116 140.252 33.0778 139.033C33.696 137.416 34.3222 135.802 34.9414 134.185C35.2676 133.333 35.1216 132.892 34.3081 132.476C33.9638 132.301 33.5691 132.187 33.1845 132.134C31.7125 131.933 30.2306 131.8 28.7616 131.578C27.5655 131.397 26.7188 131.855 26.159 132.862C25.0747 134.812 23.9903 136.763 22.9735 138.748C22.3482 139.967 22.763 140.616 24.1675 140.683C25.3062 140.737 26.451 140.694 27.5927 140.694ZM27.8766 133.706C28.0005 133.509 28.379 133.365 28.6317 133.378C29.9617 133.442 31.2887 133.564 32.7939 133.679C32.1535 135.486 31.5787 137.105 30.9957 138.751C29.115 138.751 27.2393 138.751 25.2338 138.751C25.9053 136.869 26.8839 135.28 27.8766 133.706Z" fill="#480003"/>
<path d="M100.182 192.589C98.026 192.545 96.1695 193.852 95.957 195.566C95.951 195.615 95.954 195.666 95.95 195.715C95.7335 198.309 97.3515 200 100.049 200C102.743 200 104.361 198.292 104.123 195.699C103.964 193.957 102.285 192.632 100.182 192.589ZM100.014 198.412C98.9422 198.376 97.8982 197.574 97.8539 196.364C97.8146 195.275 98.6543 194.437 100.075 194.655C101.369 194.412 102.251 195.356 102.242 196.277C102.229 197.605 101.004 198.445 100.014 198.412Z" fill="#480003"/>
<path d="M4.36782 95.9364C1.78436 95.594 0.0284643 97.2603 0.00329408 99.9334C0.00329408 100.132 -0.00475324 100.33 0.00430802 100.527C0.0798186 102.142 1.2578 103.718 2.78814 103.987C4.58127 104.302 5.76929 104.163 6.91001 102.173C7.87151 100.494 7.5896 98.1483 6.18007 96.8153C5.70989 96.3713 5.00513 96.0209 4.36782 95.9364ZM3.7889 102.174C2.40857 102.194 1.61924 100.991 1.61622 99.9898C1.6132 98.9397 2.47301 97.7386 3.7728 97.8C4.90244 97.8533 5.36958 98.4564 5.3726 99.9727C5.59108 101.34 4.74839 102.159 3.7889 102.174Z" fill="#480003"/>
<path d="M195.853 95.8992C194.073 96.021 192.734 97.641 192.668 99.7523C192.599 101.917 193.853 103.803 195.534 104.06C195.632 104.075 195.732 104.071 195.83 104.079C198.389 104.258 200.029 102.694 200.033 100.071C200.038 97.2896 198.465 95.72 195.853 95.8992ZM196.409 102.165C195.223 102.19 194.705 101.509 194.712 99.9355C194.718 98.4273 195.192 97.8111 196.346 97.8081C197.483 97.8051 198.51 98.8723 198.48 100.023C198.452 101.136 197.478 102.142 196.409 102.165Z" fill="#480003"/>
<path d="M101.941 7.00011C103.27 6.36079 104.237 5.42948 104.125 3.76422C104.209 2.36475 103.53 1.35091 102.442 0.50721C101.523 -0.205609 98.5426 -0.138157 97.5962 0.528349C95.5121 1.99527 95.5323 4.92106 96.822 6.12017C98.1369 7.34344 100.317 7.7814 101.941 7.00011ZM100.021 1.54622C101.178 1.53112 102.23 2.5611 102.217 3.69779C102.205 4.84253 101.585 5.30868 100.07 5.3117C98.5074 5.31472 97.8248 4.78513 97.861 3.5971C97.8942 2.53291 98.9161 1.56132 100.021 1.54622Z" fill="#480003"/>
<path d="M167.211 36.1623C169.193 36.2237 170.606 35.0185 170.632 33.2446C170.66 31.3558 168.72 29.3955 166.819 29.3925C165.16 29.3905 163.968 30.6933 163.844 32.4784C163.694 34.6702 165.455 36.2902 167.211 36.1623ZM166.739 31.4021C167.552 31.4404 168.677 32.6274 168.629 33.3976C168.591 34.0279 167.995 34.4155 167.058 34.4185C165.991 34.4215 165.617 34.0581 165.607 33.0059C165.597 31.9911 166.037 31.3689 166.739 31.4021Z" fill="#480003"/>
<path d="M32.5935 36.1834C34.7098 36.3253 36.4526 34.5081 36.1848 32.7653C36.2009 30.7134 35.0441 29.3834 33.2519 29.3935C31.333 29.4036 29.4381 31.3447 29.4744 33.2616C29.5076 34.948 30.7802 36.0616 32.5935 36.1834ZM33.3818 31.397C34.0775 31.3849 34.4652 31.9921 34.442 33.0552C34.4188 34.1225 34.0674 34.4466 32.964 34.4194C32.0428 34.3963 31.4357 33.9745 31.4246 33.3502C31.4135 32.6143 32.6197 31.4101 33.3818 31.397Z" fill="#480003"/>
<path d="M167.334 163.841C165.45 163.566 163.733 165.37 163.841 167.36C163.942 169.24 165.108 170.57 166.841 170.555C168.786 170.538 170.68 168.611 170.632 166.699C170.588 164.952 169.306 163.841 167.334 163.841ZM166.761 168.596C166.079 168.647 165.608 167.996 165.606 166.997C165.604 165.919 165.941 165.585 167.035 165.584C168.036 165.582 168.578 165.915 168.618 166.56C168.669 167.334 167.573 168.535 166.761 168.596Z" fill="#480003"/>
<path d="M32.8272 163.842C30.7723 163.823 29.4604 164.969 29.4715 166.77C29.4836 168.713 31.3895 170.588 33.3185 170.555C35.0674 170.525 36.1809 169.252 36.1829 167.283C36.1859 165.077 34.9999 163.861 32.8272 163.842ZM33.3719 168.604C32.6651 168.586 31.4187 167.317 31.4267 166.622C31.4338 166.005 32.0318 165.605 32.9752 165.586C34.1028 165.563 34.428 165.862 34.4441 166.935C34.4582 167.954 34.0303 168.621 33.3719 168.604Z" fill="#480003"/>
<path d="M26.9455 29.3241C28.0782 28.8751 28.933 27.9891 29.4082 26.8544C29.9609 25.5345 29.5813 23.989 28.5494 23.541C25.4333 22.1868 22.9414 24.3142 23.2737 26.643C23.0703 29.2949 25.0547 30.0742 26.9455 29.3241ZM25.7343 25.2707C26.1894 25.0029 26.8509 24.9737 27.4046 25.019C27.906 25.0603 27.8829 25.5707 27.8245 25.9754C27.6714 27.0386 26.6435 27.7555 25.1967 27.7303C24.9107 26.7336 24.807 25.8154 25.7343 25.2707Z" fill="#480003"/>
<path d="M174.704 170.416C173.23 170.245 172.275 171.059 171.368 172.032C170.467 172.997 170.203 174.124 170.63 175.342C171.068 176.593 172.149 176.798 173.215 176.752C174.89 176.764 175.915 176.222 176.522 175.015C176.994 174.076 176.945 173.082 176.706 172.097C176.448 171.031 175.787 170.542 174.704 170.416ZM172.291 174.75C172.278 173.447 172.931 172.45 173.912 172.219C174.694 172.035 174.992 172.29 175.117 173.065C175.305 174.234 174.012 175.626 172.291 174.75Z" fill="#480003"/>
<path d="M25.8097 170.417C24.8361 170.381 23.9451 170.62 23.5726 171.557C22.5426 174.145 23.8323 176.924 26.7168 176.748C26.8407 176.748 27.04 176.758 27.2384 176.747C28.9117 176.648 29.6708 175.813 29.6023 174.153C29.5248 172.262 27.7065 170.486 25.8097 170.417ZM27.7367 174.824C25.3798 175.241 24.675 174.492 25.2469 172.318C26.9746 172.125 27.8555 172.984 27.7367 174.824Z" fill="#480003"/>
<path d="M174.205 29.5757C175.164 29.6372 175.993 29.3562 176.491 28.4964C177.878 26.0982 176.198 23.1835 173.442 23.1724C170.509 23.0758 170.089 25.1166 170.653 26.7969C171.113 28.1672 172.8 29.4851 174.205 29.5757ZM172.364 25.2032C172.633 24.7551 173.894 24.7823 174.382 25.2676C174.739 25.621 174.97 26.1013 175.263 26.5332C175.067 27.0144 175.011 27.551 174.764 27.6608C174.427 27.8108 173.918 27.7121 173.533 27.5772C173.233 27.4715 172.989 27.1674 172.756 26.9178C172.3 26.4274 171.967 25.8586 172.364 25.2032Z" fill="#480003"/>
</svg>
