<svg width="91" height="12" viewBox="0 0 91 12" fill="none" xmlns="http://www.w3.org/2000/svg">
<path d="M2.06473 5.7918L21.6783 5.00013C21.8537 4.99127 21.9972 5.43438 22 5.98678C22.0019 6.53918 21.8621 6.99409 21.6858 7C21.6833 7 21.6808 7 21.6783 7L2.06473 6.20833C2.02816 6.20537 1.99908 6.11084 2.00002 5.99563C2.00002 5.88338 2.02909 5.79476 2.06473 5.7918Z" fill="#FAF5EE"/>
<path d="M35.033 6.00015C35.033 7.84267 33.5409 9.33479 31.7023 9.33479C29.8598 9.33479 28.3676 7.84267 28.3676 6.00015C28.3676 4.16157 29.8598 2.66943 31.7023 2.66943C33.5409 2.66943 35.033 4.16157 35.033 6.00015Z" fill="#FAF5EE"/>
<path d="M22.533 6.00001C22.533 7.10631 21.6393 8.00002 20.533 8.00002C19.4306 8.00002 18.533 7.10631 18.533 6.00001C18.533 4.89765 19.4306 4 20.533 4C21.6393 4 22.533 4.89765 22.533 6.00001Z" fill="#FAF5EE"/>
<path d="M50.8676 6C50.8676 9.31496 48.1826 12 44.8676 12C41.5527 12 38.8676 9.31496 38.8676 6C38.8676 2.68897 41.5527 0 44.8676 0C48.1826 0 50.8676 2.68897 50.8676 6Z" fill="#FAF5EE"/>
<path d="M89.9343 6.20824L70.3217 6.99994C70.1463 7.00585 70.0019 6.56568 70 6.01326C69.9972 5.46084 70.1379 5.00591 70.3133 5C70.3158 5 70.3186 5 70.3217 5L89.9343 5.7917C89.9709 5.79465 90 5.88624 90 6.00145C89.9991 6.11371 89.97 6.20529 89.9343 6.20824Z" fill="#FAF5EE"/>
<path d="M54.7023 6.00015C54.7023 4.16157 56.1944 2.66943 58.037 2.66943C59.8756 2.66943 61.3677 4.16157 61.3677 6.00015C61.3677 7.84267 59.8756 9.33479 58.037 9.33479C56.1944 9.33479 54.7023 7.84267 54.7023 6.00015Z" fill="#FAF5EE"/>
<path d="M67.2023 6.00001C67.2023 4.89765 68.0999 4 69.2023 4C70.3086 4 71.2023 4.89765 71.2023 6.00001C71.2023 7.10631 70.3086 8.00002 69.2023 8.00002C68.0999 8.00002 67.2023 7.10631 67.2023 6.00001Z" fill="#FAF5EE"/>
<path d="M0 6.00001C0 4.89765 0.893708 4 2.00001 4C3.10237 4 3.99999 4.89765 3.99999 6.00001C3.99999 7.10631 3.10237 8.00002 2.00001 8.00002C0.893708 8.00002 0 7.10631 0 6.00001Z" fill="#FAF5EE"/>
<path d="M86.2353 6.00001C86.2353 4.89765 87.1329 4 88.2353 4C89.3416 4 90.2353 4.89765 90.2353 6.00001C90.2353 7.10631 89.3416 8.00002 88.2353 8.00002C87.1329 8.00002 86.2353 7.10631 86.2353 6.00001Z" fill="#FAF5EE"/>
</svg>
