<svg width="151" height="12" viewBox="0 0 151 12" fill="none" xmlns="http://www.w3.org/2000/svg">
<path d="M1.79524 5.77287L49.9377 4.90923C50.3681 4.89956 50.7203 5.38295 50.7272 5.98557C50.7318 6.58819 50.3888 7.08446 49.9561 7.09091C49.9499 7.09091 49.9438 7.09091 49.9377 7.09091L1.79524 6.22726C1.70546 6.22404 1.6341 6.12091 1.63641 5.99523C1.63641 5.87277 1.70777 5.7761 1.79524 5.77287Z" fill="#4A4A4A"/>
<path d="M65.033 6C65.033 7.84252 63.5409 9.33464 61.7023 9.33464C59.8598 9.33464 58.3676 7.84252 58.3676 6C58.3676 4.16142 59.8598 2.66928 61.7023 2.66928C63.5409 2.66928 65.033 4.16142 65.033 6Z" fill="#4A4A4A"/>
<path d="M52.533 6.00001C52.533 7.10631 51.6393 8.00002 50.533 8.00002C49.4306 8.00002 48.533 7.10631 48.533 6.00001C48.533 4.89765 49.4306 4 50.533 4C51.6393 4 52.533 4.89765 52.533 6.00001Z" fill="#4A4A4A"/>
<path d="M80.8676 6C80.8676 9.31496 78.1826 12 74.8676 12C71.5527 12 68.8676 9.31496 68.8676 6C68.8676 2.68897 71.5527 0 74.8676 0C78.1826 0 80.8676 2.68897 80.8676 6Z" fill="#4A4A4A"/>
<path d="M148.748 6.22717L100.608 7.09084C100.177 7.09729 99.8229 6.6171 99.8183 6.01446C99.8114 5.41182 100.157 4.91553 100.587 4.90909C100.593 4.90909 100.6 4.90909 100.608 4.90909L148.748 5.77276C148.838 5.77598 148.909 5.87589 148.909 6.00158C148.907 6.12404 148.835 6.22395 148.748 6.22717Z" fill="#4A4A4A"/>
<path d="M84.7023 6C84.7023 4.16142 86.1944 2.66928 88.037 2.66928C89.8756 2.66928 91.3677 4.16142 91.3677 6C91.3677 7.84252 89.8756 9.33464 88.037 9.33464C86.1944 9.33464 84.7023 7.84252 84.7023 6Z" fill="#4A4A4A"/>
<path d="M97.2023 6.00001C97.2023 4.89765 98.0999 4 99.2023 4C100.309 4 101.202 4.89765 101.202 6.00001C101.202 7.10631 100.309 8.00002 99.2023 8.00002C98.0999 8.00002 97.2023 7.10631 97.2023 6.00001Z" fill="#4A4A4A"/>
<path d="M0 6.00001C0 4.89765 0.893708 4 2.00001 4C3.10237 4 3.99999 4.89765 3.99999 6.00001C3.99999 7.10631 3.10237 8.00002 2.00001 8.00002C0.893708 8.00002 0 7.10631 0 6.00001Z" fill="#4A4A4A"/>
<path d="M146.235 6.00001C146.235 4.89765 147.133 4 148.235 4C149.342 4 150.235 4.89765 150.235 6.00001C150.235 7.10631 149.342 8.00002 148.235 8.00002C147.133 8.00002 146.235 7.10631 146.235 6.00001Z" fill="#4A4A4A"/>
</svg>
